<svg id="Warstwa_1" data-name="Warstwa 1" xmlns="http://www.w3.org/2000/svg" xmlns:xlink="http://www.w3.org/1999/xlink" viewBox="0 0 1464.81 478.25"><defs><style>.cls-1{fill:#2ea39d;}.cls-2{fill:url(#Gradient_bez_nazwy_2);}</style><linearGradient id="Gradient_bez_nazwy_2" x1="688.33" y1="726.2" x2="974.23" y2="440.3" gradientUnits="userSpaceOnUse"><stop offset="0" stop-color="#00dd84"/><stop offset="1" stop-color="#00a3b6"/></linearGradient></defs><title>logo_kolor</title><path d="M1168.92,377.1c-22.61,1.4-41.14-16.3-41.14-37.32v-.85c0-16.22,9.31-31.55,24.41-37.48,25.68-10.07,51.62,8.89,51.62,35.27v1.44C1203.81,357.47,1188.18,375.91,1168.92,377.1Zm-2.51,359.95c-21.46,0-38.63-17.17-38.63-38V462.39c0-20.84,17.17-37.4,38.63-37.4a37.55,37.55,0,0,1,37.4,37.4V699C1203.81,719.88,1186.64,737.05,1166.41,737.05Z" transform="translate(-260 -258.82)"/><path d="M549.36,732.63a34,34,0,0,1-17.16,4.29c-12.88,0-25.75-6.75-31.88-19.62l-90.12-171H332.34V698.62c0,18.51-15,36.29-33.43,37.59A35.9,35.9,0,0,1,260,700.13V311.45c0-19,15.32-38.62,34.33-39.85H434.11c72.95,0,134.26,64.37,134.26,141,0,53.33-34.33,100.54-82.76,121.38l79.08,149.59A36.4,36.4,0,0,1,549.36,732.63Zm-217-258.72H429.2c35.56,0,66.83-28.81,66.83-61.3,0-36.18-29.43-68.05-61.92-68.05H332.34Z" transform="translate(-260 -258.82)"/><path d="M1388.15,736.82a154,154,0,0,1-153.16-169c6.75-70.62,62.83-128.45,133.2-137.45,93.39-11.94,173.79,61.38,174.45,153.21C1542,668.16,1472.75,736.82,1388.15,736.82Zm7-232.05A78.33,78.33,0,0,0,1310,590c3.21,37.35,33.76,67.9,71.11,71.11a78.34,78.34,0,0,0,85.23-85.22C1463.11,538.53,1432.56,508,1395.2,504.77Z" transform="translate(-260 -258.82)"/><path class="cls-1" d="M1543.19,399H1515.8V284.53h-16.27V258.82h43.66Z" transform="translate(-260 -258.82)"/><path class="cls-1" d="M1605,368.71a16.51,16.51,0,1,1-16.61,16.5,15.78,15.78,0,0,1,4.88-11.67A16.07,16.07,0,0,1,1605,368.71Z" transform="translate(-260 -258.82)"/><path class="cls-1" d="M1724.81,267.58,1675.6,399h-29.37l43-114.49h-44.44V258.82h80Z" transform="translate(-260 -258.82)"/><path d="M782,621.64a78.39,78.39,0,0,1-141.23-11c-8.24,14.12-24.84,23.79-44,23.79a53.4,53.4,0,0,1-30.56-9.4C584.69,689.49,644,736.46,714,736.46a153.68,153.68,0,0,0,104.23-40.72A140.88,140.88,0,0,1,782,621.64Z" transform="translate(-260 -258.82)"/><path class="cls-2" d="M1099.35,581.12a37.92,37.92,0,1,0-75.84,0c0,1,.09,3.16.09,3.16a78,78,0,0,1-156,1.3h.28c-1.08-84.4-69.81-152.89-153.72-152.89-80.62,0-147.85,63-153.38,142.23-.35,7.1-.39,15,3.09,23a37.84,37.84,0,0,0,72.69-14.84c0-.79.19-1.68.14-2.46a77.86,77.86,0,0,1,155.56,5h.28C793.46,669,862,737.07,945.62,737.07c83.91,0,152.64-68.48,153.73-152.89l-.07-.4C1099.36,582.75,1099.35,582.17,1099.35,581.12Z" transform="translate(-260 -258.82)"/><path d="M1095.14,292.18c0-17.13-16.56-31.66-37.4-31.66-20.23,0-36.79,14.53-36.79,31.66V413.62l-.06,0v37.65A152.39,152.39,0,0,0,842.49,476a140.11,140.11,0,0,1,37.87,72.29,78.51,78.51,0,0,1,138.13,2.6c7.89-14.73,24.6-24.93,44-24.93a52,52,0,0,1,31,10.08c.54.63,1.13,1.22,1.64,1.87Z" transform="translate(-260 -258.82)"/></svg>