<?xml version="1.0" encoding="utf-8"?>
<!-- Generator: Adobe Illustrator 25.0.0, SVG Export Plug-In . SVG Version: 6.00 Build 0)  -->
<svg version="1.1" id="Layer_1" xmlns="http://www.w3.org/2000/svg" xmlns:xlink="http://www.w3.org/1999/xlink" x="0px" y="0px"
	 viewBox="0 0 1920 3080" style="enable-background:new 0 0 1920 3080;" xml:space="preserve">
<style type="text/css">
	.st0{fill:#41FFC4;stroke:#41FFC4;stroke-width:1.51;}
	.st1{fill:#43FFC3;stroke:#43FFC3;stroke-width:1.51;}
	.st2{fill:#36FFC1;stroke:#36FFC1;stroke-width:1.51;}
	.st3{fill:#35FEBD;stroke:#35FEBD;stroke-width:1.51;}
	.st4{fill:#30FDBA;stroke:#30FDBA;stroke-width:1.51;}
	.st5{fill:#49FFC8;stroke:#49FFC8;stroke-width:1.51;}
	.st6{fill:#35FFC2;stroke:#35FFC2;stroke-width:1.51;}
	.st7{fill:#40FFC4;stroke:#40FFC4;stroke-width:1.51;}
	.st8{fill:#24FEBD;stroke:#24FEBD;stroke-width:1.51;}
	.st9{fill:#35FFBE;stroke:#35FFBE;stroke-width:1.51;}
	.st10{fill:#2BFCBA;stroke:#2BFCBA;stroke-width:1.51;}
	.st11{fill:#2EF7B6;stroke:#2EF7B6;stroke-width:1.51;}
	.st12{fill:#2FFFC1;stroke:#2FFFC1;stroke-width:1.51;}
	.st13{fill:#39FEBF;stroke:#39FEBF;stroke-width:1.51;}
	.st14{fill:#26F3AC;stroke:#26F3AC;stroke-width:1.51;}
	.st15{fill:#23F9B6;stroke:#23F9B6;stroke-width:1.51;}
	.st16{fill:#21F5B1;stroke:#21F5B1;stroke-width:1.51;}
	.st17{fill:#20F6B3;stroke:#20F6B3;stroke-width:1.51;}
	.st18{fill:#2DF4B2;stroke:#2DF4B2;stroke-width:1.51;}
	.st19{fill:#33FFBF;stroke:#33FFBF;stroke-width:1.51;}
	.st20{fill:#26F6B0;stroke:#26F6B0;stroke-width:1.51;}
	.st21{fill:#17F4B0;stroke:#17F4B0;stroke-width:1.51;}
	.st22{fill:#2AFCB7;stroke:#2AFCB7;stroke-width:1.51;}
	.st23{fill:#35FBBC;stroke:#35FBBC;stroke-width:1.51;}
	.st24{fill:#39FDBD;stroke:#39FDBD;stroke-width:1.51;}
	.st25{fill:#39FFC0;stroke:#39FFC0;stroke-width:1.51;}
	.st26{fill:#2CF5B4;stroke:#2CF5B4;stroke-width:1.51;}
	.st27{fill:#2CFFBB;stroke:#2CFFBB;stroke-width:1.51;}
	.st28{fill:#25F8B4;stroke:#25F8B4;stroke-width:1.51;}
	.st29{fill:#2EF3B0;stroke:#2EF3B0;stroke-width:1.51;}
	.st30{fill:#0CECAA;stroke:#0CECAA;stroke-width:1.51;}
	.st31{fill:#11EFAC;stroke:#11EFAC;stroke-width:1.51;}
	.st32{fill:#0EEDAA;stroke:#0EEDAA;stroke-width:1.51;}
	.st33{fill:#3AFFC3;stroke:#3AFFC3;stroke-width:1.51;}
	.st34{fill:#30F4B1;stroke:#30F4B1;stroke-width:1.51;}
	.st35{fill:#29F3AE;stroke:#29F3AE;stroke-width:1.51;}
	.st36{fill:#22F3AE;stroke:#22F3AE;stroke-width:1.51;}
	.st37{fill:#1EF2AE;stroke:#1EF2AE;stroke-width:1.51;}
	.st38{fill:#25FFBA;stroke:#25FFBA;stroke-width:1.51;}
	.st39{fill:#30F3AF;stroke:#30F3AF;stroke-width:1.51;}
	.st40{fill:#44FFC6;stroke:#44FFC6;stroke-width:1.51;}
	.st41{fill:#47FFC8;stroke:#47FFC8;stroke-width:1.51;}
	.st42{fill:#2BFFBF;stroke:#2BFFBF;stroke-width:1.51;}
	.st43{fill:#4AFFC7;stroke:#4AFFC7;stroke-width:1.51;}
	.st44{fill:#2FF3B0;stroke:#2FF3B0;stroke-width:1.51;}
	.st45{fill:#04E8A4;stroke:#04E8A4;stroke-width:1.51;}
	.st46{fill:#13F0AC;stroke:#13F0AC;stroke-width:1.51;}
	.st47{fill:#2CF3AD;stroke:#2CF3AD;stroke-width:1.51;}
	.st48{fill:#03E7A3;stroke:#03E7A3;stroke-width:1.51;}
	.st49{fill:#23F3AD;stroke:#23F3AD;stroke-width:1.51;}
	.st50{fill:#27F3AF;stroke:#27F3AF;stroke-width:1.51;}
	.st51{fill:#00E6A3;stroke:#00E6A3;stroke-width:1.51;}
	.st52{fill:#02E7A3;stroke:#02E7A3;stroke-width:1.51;}
	.st53{fill:#39FFC4;stroke:#39FFC4;stroke-width:1.51;}
	.st54{fill:#38FCBC;stroke:#38FCBC;stroke-width:1.51;}
	.st55{fill:#16F2AE;stroke:#16F2AE;stroke-width:1.51;}
	.st56{fill:#3EFFC1;stroke:#3EFFC1;stroke-width:1.51;}
	.st57{fill:#1DF4B1;stroke:#1DF4B1;stroke-width:1.51;}
	.st58{fill:#38FFC0;stroke:#38FFC0;stroke-width:1.51;}
	.st59{fill:#1AF2B0;stroke:#1AF2B0;stroke-width:1.51;}
	.st60{fill:#34F7B7;stroke:#34F7B7;stroke-width:1.51;}
	.st61{fill:#24F3AD;stroke:#24F3AD;stroke-width:1.51;}
	.st62{fill:#1CF2AF;stroke:#1CF2AF;stroke-width:1.51;}
	.st63{fill:#3FFFC5;stroke:#3FFFC5;stroke-width:1.51;}
	.st64{fill:#1EF3AC;stroke:#1EF3AC;stroke-width:1.51;}
	.st65{fill:#35F7B6;stroke:#35F7B6;stroke-width:1.51;}
	.st66{fill:#3CFFC2;stroke:#3CFFC2;stroke-width:1.51;}
	.st67{fill:#45FFC6;stroke:#45FFC6;stroke-width:1.51;}
	.st68{fill:#4CFFC6;stroke:#4CFFC6;stroke-width:1.51;}
	.st69{fill:#3BFFC3;stroke:#3BFFC3;stroke-width:1.51;}
	.st70{fill:#10EEAB;stroke:#10EEAB;stroke-width:1.51;}
	.st71{fill:#25F3AD;stroke:#25F3AD;stroke-width:1.51;}
	.st72{fill:#0BEBA9;stroke:#0BEBA9;stroke-width:1.51;}
	.st73{fill:#31F3AF;stroke:#31F3AF;stroke-width:1.51;}
	.st74{fill:#31F4B0;stroke:#31F4B0;stroke-width:1.51;}
	.st75{fill:#48FFC4;stroke:#48FFC4;stroke-width:1.51;}
	.st76{fill:#48FFC8;stroke:#48FFC8;stroke-width:1.51;}
	.st77{fill:#33F6B2;stroke:#33F6B2;stroke-width:1.51;}
	.st78{fill:#35F9B9;stroke:#35F9B9;stroke-width:1.51;}
	.st79{fill:#39FCBC;stroke:#39FCBC;stroke-width:1.51;}
	.st80{fill:#4DFFC9;stroke:#4DFFC9;stroke-width:1.51;}
	.st81{fill:#2BF3AE;stroke:#2BF3AE;stroke-width:1.51;}
	.st82{fill:#31F3B2;stroke:#31F3B2;stroke-width:1.51;}
	.st83{fill:#46FFC5;stroke:#46FFC5;stroke-width:1.51;}
</style>
<path class="st0" d="M884,1327l193-132l-522-158L884,1327z"/>
<path class="st1" d="M1077,1195l163-200l-685,42L1077,1195z"/>
<path class="st2" d="M1240,995L444,735l111,302L1240,995z"/>
<path class="st3" d="M1240,995L864,259L444,735L1240,995z"/>
<path class="st4" d="M1366,563L864,259l376,736L1366,563z"/>
<path class="st5" d="M884,1327l297,589l-104-721L884,1327z"/>
<path class="st6" d="M1077,1195l581-20l-418-180L1077,1195z"/>
<path class="st7" d="M307,1838l586,8l-9-519L307,1838z"/>
<path class="st8" d="M1240,995l453-318l-327-114L1240,995z"/>
<path class="st2" d="M1602,1606l56-431l-581,20L1602,1606z"/>
<path class="st9" d="M555,1037L68,1419l816-92L555,1037z"/>
<path class="st10" d="M444,735L68,1419l487-382L444,735z"/>
<path class="st5" d="M893,1846l288,70l-297-589L893,1846z"/>
<path class="st11" d="M1366,563L1056,52L864,259L1366,563z"/>
<path class="st12" d="M1658,1175l35-498l-453,318L1658,1175z"/>
<path class="st0" d="M1181,1916l421-310l-525-411L1181,1916z"/>
<path class="st13" d="M68,1419l239,419l577-511L68,1419z"/>
<path class="st7" d="M893,1846l196,247l92-177L893,1846z"/>
<path class="st14" d="M-263,793l59,541l272,85L-263,793z"/>
<path class="st15" d="M864,259l-493-71l73,547L864,259z"/>
<path class="st16" d="M864,259L591,12L371,188L864,259z"/>
<path class="st17" d="M1574-41l-518,93l310,511L1574-41z"/>
<path class="st18" d="M1056,52L591,12l273,247L1056,52z"/>
<path class="st19" d="M1181,1916l495,261l-74-571L1181,1916z"/>
<path class="st7" d="M922,2326l167-233l-196-247L922,2326z"/>
<path class="st20" d="M-115,2067l278,12l144-241L-115,2067z"/>
<path class="st16" d="M-263,793l331,626l376-684L-263,793z"/>
<path class="st21" d="M371,188l-634,605l707-58L371,188z"/>
<path class="st22" d="M1693,677l117-287l-444,173L1693,677z"/>
<path class="st23" d="M2092,469l-282-79l-117,287L2092,469z"/>
<path class="st24" d="M2092,469l-399,208l503,41L2092,469z"/>
<path class="st25" d="M307,1838l615,488l-29-480L307,1838z"/>
<path class="st26" d="M-115,2067l422-229L68,1419L-115,2067z"/>
<path class="st19" d="M1089,2093l587,84l-495-261L1089,2093z"/>
<path class="st27" d="M163,2079l759,247l-615-488L163,2079z"/>
<path class="st28" d="M1810,390L1574-41l-208,604L1810,390z"/>
<path class="st29" d="M1056,52l19-571L591,12L1056,52z"/>
<path class="st30" d="M371,188l-715-6l81,611L371,188z"/>
<path class="st31" d="M591,12L66-77l305,265L591,12z"/>
<path class="st32" d="M226-579L66-77l525,89L226-579z"/>
<path class="st33" d="M2196,718l-503-41l-35,498L2196,718z"/>
<path class="st34" d="M1810,390l450-474l-686,43L1810,390z"/>
<path class="st35" d="M-334,1913l219,154l183-648L-334,1913z"/>
<path class="st36" d="M-263,793l-290,325l349,216L-263,793z"/>
<path class="st37" d="M-684,935l131,183l290-325L-684,935z"/>
<path class="st38" d="M163,2079l133,564l626-317L163,2079z"/>
<path class="st39" d="M-334,1913l402-494l-272-85L-334,1913z"/>
<path class="st40" d="M2207,1508l-11-790l-538,457L2207,1508z"/>
<path class="st41" d="M1602,1606l605-98l-549-333L1602,1606z"/>
<path class="st42" d="M1225,2724l451-547l-587-84L1225,2724z"/>
<path class="st43" d="M2150,1957l57-449l-605,98L2150,1957z"/>
<path class="st44" d="M-656,1609l322,304l130-579L-656,1609z"/>
<path class="st45" d="M66-77l-410,259l715,6L66-77z"/>
<path class="st46" d="M-495,234l-189,701l421-142L-495,234z"/>
<path class="st47" d="M-553,1118l-103,491l452-275L-553,1118z"/>
<path class="st30" d="M-344,182l-151,52l232,559L-344,182z"/>
<path class="st48" d="M-752-144l257,378l151-52L-752-144z"/>
<path class="st49" d="M1574-41l-499-478l-19,571L1574-41z"/>
<path class="st50" d="M-684,935l28,674l103-491L-684,935z"/>
<path class="st0" d="M1676,2177l474-220l-548-351L1676,2177z"/>
<path class="st51" d="M66-77l-241-127l-169,386L66-77z"/>
<path class="st52" d="M226-579l-401,375L66-77L226-579z"/>
<path class="st7" d="M1676,2177l305,83l169-303L1676,2177z"/>
<path class="st53" d="M1841,2714l140-454l-305-83L1841,2714z"/>
<path class="st47" d="M1075-519L910-621L591,12L1075-519z"/>
<path class="st54" d="M2196,718l390-253l-494,4L2196,718z"/>
<path class="st47" d="M2260-84l-611-363l-75,406L2260-84z"/>
<path class="st55" d="M1574-41l75-406l-574-72L1574-41z"/>
<path class="st56" d="M2684,1267l-202-548l-286-1L2684,1267z"/>
<path class="st40" d="M2684,1267l-488-549l11,790L2684,1267z"/>
<path class="st57" d="M-228,2524l524,119l-133-564L-228,2524z"/>
<path class="st58" d="M922,2326l303,398l-136-631L922,2326z"/>
<path class="st59" d="M-228,2524l391-445l-278-12L-228,2524z"/>
<path class="st55" d="M-228,2524l113-457l-353,290L-228,2524z"/>
<path class="st60" d="M2260-84l-450,474l282,79L2260-84z"/>
<path class="st61" d="M1075-519l574,72L910-621L1075-519z"/>
<path class="st7" d="M927,2795l298-71l-303-398L927,2795z"/>
<path class="st62" d="M910-621l-684,42L591,12L910-621z"/>
<path class="st58" d="M296,2643l631,152l-5-469L296,2643z"/>
<path class="st63" d="M296,2643l591,501l40-349L296,2643z"/>
<path class="st64" d="M-468,2357l353-290l-219-154L-468,2357z"/>
<path class="st65" d="M2586,465L2260-84l-168,553L2586,465z"/>
<path class="st66" d="M2684,1267l-98-802l-104,254L2684,1267z"/>
<path class="st24" d="M2482,719l104-254l-390,253L2482,719z"/>
<path class="st61" d="M-656,1609l188,748l134-444L-656,1609z"/>
<path class="st43" d="M2150,1957l438-304l-381-145L2150,1957z"/>
<path class="st67" d="M2492,2098l96-445l-438,304L2492,2098z"/>
<path class="st68" d="M2588,1653l96-386l-477,241L2588,1653z"/>
<path class="st69" d="M1660,3121l181-407l-616,10L1660,3121z"/>
<path class="st19" d="M1225,2724l616-10l-165-537L1225,2724z"/>
<path class="st7" d="M1981,2260l511-162l-342-141L1981,2260z"/>
<path class="st51" d="M226-579l-379-61l-22,436L226-579z"/>
<path class="st51" d="M-175-204l-577,60l408,326L-175-204z"/>
<path class="st70" d="M910-621l-1063-19l379,61L910-621z"/>
<path class="st69" d="M2274,2589l218-491l-511,162L2274,2589z"/>
<path class="st0" d="M2588,1653l-132,1608l228-1994L2588,1653z"/>
<path class="st71" d="M-684,935l-170,2297l198-1623L-684,935z"/>
<path class="st72" d="M-495,234l-257-378l68,1079L-495,234z"/>
<path class="st51" d="M-526-663l-226,519l577-60L-526-663z"/>
<path class="st73" d="M2498-227l-215-130l-23,273L2498-227z"/>
<path class="st73" d="M2260-84l23-273l-634-90L2260-84z"/>
<path class="st35" d="M1649-447l1047-208L910-621L1649-447z"/>
<path class="st62" d="M-468,2357l-103,153l343,14L-468,2357z"/>
<path class="st13" d="M77,3342l810-198l-591-501L77,3342z"/>
<path class="st62" d="M-656,1609l85,901l103-153L-656,1609z"/>
<path class="st0" d="M927,2795l454,328l-156-399L927,2795z"/>
<path class="st35" d="M-36,3225l332-582l-524-119L-36,3225z"/>
<path class="st74" d="M2586,465l-88-692L2260-84L2586,465z"/>
<path class="st7" d="M1841,2714l433-125l-293-329L1841,2714z"/>
<path class="st40" d="M2404,2808l-130-219l-433,125L2404,2808z"/>
<path class="st75" d="M887,3144l494-21l-454-328L887,3144z"/>
<path class="st51" d="M-153-640l-373-23l351,459L-153-640z"/>
<path class="st45" d="M910-621l-1436-42l373,23L910-621z"/>
<path class="st75" d="M1944,3285l-284-164l39,459L1944,3285z"/>
<path class="st25" d="M1381,3123l279-2l-435-397L1381,3123z"/>
<path class="st50" d="M-571,2510l535,715l-192-701L-571,2510z"/>
<path class="st76" d="M887,3144l146,488l348-509L887,3144z"/>
<path class="st7" d="M2274,2589l130,219l88-710L2274,2589z"/>
<path class="st66" d="M2492,2098l-36,1163l132-1608L2492,2098z"/>
<path class="st43" d="M1944,3285l460-477l-563-94L1944,3285z"/>
<path class="st7" d="M77,3342l750,114l60-312L77,3342z"/>
<path class="st77" d="M-36,3225l113,117l219-699L-36,3225z"/>
<path class="st7" d="M1699,3580l-39-459l-279,2L1699,3580z"/>
<path class="st76" d="M1660,3121l284,164l-103-571L1660,3121z"/>
<path class="st73" d="M2586,465l110-1120l-198,428L2586,465z"/>
<path class="st73" d="M2498-227l198-428l-413,298L2498-227z"/>
<path class="st73" d="M2283-357l413-298L1649-447L2283-357z"/>
<path class="st29" d="M910-621l1786-34l-3222-8L910-621z"/>
<path class="st78" d="M2684,1267l12-1922L2586,465L2684,1267z"/>
<path class="st68" d="M827,3456l206,176l-146-488L827,3456z"/>
<path class="st1" d="M190,3802l843-170l-206-176L190,3802z"/>
<path class="st79" d="M77,3342l113,460l637-346L77,3342z"/>
<path class="st73" d="M-36,3225l-194,259l307-142L-36,3225z"/>
<path class="st73" d="M-854,3232l624,252l194-259L-854,3232z"/>
<path class="st56" d="M1033,3632l666-52l-318-457L1033,3632z"/>
<path class="st80" d="M1944,3285l512-24l-52-453L1944,3285z"/>
<path class="st67" d="M2404,2808l52,453l36-1163L2404,2808z"/>
<path class="st80" d="M2415,3418l41-157l-512,24L2415,3418z"/>
<path class="st29" d="M-571,2510l-283,722l818-7L-571,2510z"/>
<path class="st62" d="M-656,1609l-198,1623l283-722L-656,1609z"/>
<path class="st81" d="M-752-144l-102,3376l170-2297L-752-144z"/>
<path class="st73" d="M-766,3532l956,270l-420-318L-766,3532z"/>
<path class="st82" d="M-230,3484l420,318L77,3342L-230,3484z"/>
<path class="st1" d="M1033,3632l1184,80l-518-132L1033,3632z"/>
<path class="st80" d="M2217,3712l198-294l-471-133L2217,3712z"/>
<path class="st73" d="M-854,3232l88,300l536-48L-854,3232z"/>
<path class="st83" d="M190,3802l2027-90l-1184-80L190,3802z"/>
<path class="st80" d="M1699,3580l518,132l-273-427L1699,3580z"/>
</svg>
