<svg id="Warstwa_1" data-name="Warstwa 1" xmlns="http://www.w3.org/2000/svg" viewBox="0 0 1919.76 668.65"><defs><style>.cls-1,.cls-10,.cls-11,.cls-2,.cls-3,.cls-4,.cls-5,.cls-6,.cls-7,.cls-8,.cls-9{fill:#1d1d1b;}.cls-10,.cls-11,.cls-2,.cls-3,.cls-4,.cls-5,.cls-6,.cls-7,.cls-8,.cls-9{stroke:#fff;stroke-miterlimit:10;}.cls-2{stroke-width:3.63px;}.cls-3{stroke-width:4.08px;}.cls-4{stroke-width:3.4px;}.cls-5{stroke-width:3.17px;}.cls-6{stroke-width:2.72px;}.cls-7{stroke-width:2.27px;}.cls-8{stroke-width:1.59px;}.cls-9{stroke-width:1.13px;}.cls-10{stroke-width:0.84px;}.cls-11{stroke-width:1.36px;}</style></defs><path class="cls-1" d="M503.74,144.7c-1.87-2-3.69-1.39-8-3.35s-6.7-4.46-8.89-6.47c-7.78-7.1-12.14-7-31.63-20.29-8.23-5.6-8.69-6.47-13.76-9.28a101.74,101.74,0,0,0-18.93-8c-40.58-13.51-39.19-14.59-51.86-17.12-8.24-1.64-13-2-23.25-4.74-3.06-.83-8.06-2.24-17.07-4.58C323.5,69,320.93,68.43,317.4,68c-6.55-.86-7.75-.12-12.55-.77-9.07-1.25-11.71-4.87-16.39-5.74C278,59.5,267,73.2,260.05,82.09c-7.45,9.49-25.85,33.63-30.19,68.13-3,23.58,2.64,36.22,2.51,44.39a4.79,4.79,0,0,0,.87,3.09c1.33,1.74,3.81,1.71,5.71,2a12.23,12.23,0,0,1,5.43,2.36c.79,9.5-.58,13.07-1.78,14.62a23.37,23.37,0,0,1-2,2.52,48.33,48.33,0,0,0-4.68,5.77c-3.67,5.06-6.77,10.51-10.48,15.53-.14.14-.26.32-.39.46a2.79,2.79,0,0,1-.1.39c-.12.13-.23.28-.35.41h0a11.52,11.52,0,0,0-3,4.45,6,6,0,0,1-.27.92,2.75,2.75,0,0,0-.44.81c-.07.1-.14.22-.23.33s-.2.32-.29.48a1,1,0,0,1-.12.2,2.66,2.66,0,0,0-.63,1.11c-.09.13-.18.27-.28.4s-.2.32-.29.48a5.4,5.4,0,0,0-.23.49,7.45,7.45,0,0,0-1.2,2.26,4.38,4.38,0,0,1-.28.42,4.66,4.66,0,0,0-.3.47c-.22.3-.47.56-.71.84s-.29.43-.44.67a17.05,17.05,0,0,0-1.95,4.53c0,.13-.05.26-.08.39s-.23.32-.36.48a1.35,1.35,0,0,1-.06.35,1.36,1.36,0,0,0-.78,1.34l-.48,2a.69.69,0,0,0-.43.48,8.11,8.11,0,0,0-1.63,3c-.62,1.69-1.78,3.2-1.79,5.11-.65.4-.67,1.11-.87,1.73h.13v0l-.13,0a1,1,0,0,0-.35.87,33.91,33.91,0,0,0-1.64,5.12,11.54,11.54,0,0,0-1,4.26c-1,1-.85,2.2-.78,3.42l-.48.86a4.16,4.16,0,0,0-.52,1.87,5.66,5.66,0,0,1-.2,1.87,4,4,0,0,0-.15.62,5.37,5.37,0,0,0,0,.7,1.82,1.82,0,0,1-.36.95c0,.29.06.58.07.89-.14,2.49-.35,5-.41,7.48a6.5,6.5,0,0,0,1.18,4.56,4.91,4.91,0,0,0,1.53,1.64,3.63,3.63,0,0,0,1.47,1.74c.91,1.42,2.33,2.5,3.14,3.92,1.16,2,2.54,3.85,3.65,5.88.06.13.1.26.15.39,1.36,2.44,2.72,4.87,4.07,7.31.09.33.12.7.49.86a2,2,0,0,0,.94,1.59c.13.45.28.88.42,1.32.32.48.12,1.12.47,1.58s.93.88,1.22,1.48c.56,1.13,1.14,2.29,1.72,3.42,2,3.86,3.68,7.84,5.9,11.57a43,43,0,0,0,5.17,9,.88.88,0,0,0,.48.79v0a5.84,5.84,0,0,1,.39.48c1,2.16,2.92,3.65,4.31,5.55a1,1,0,0,0,.37,1.28,6.48,6.48,0,0,0,1.66,2.59,1.77,1.77,0,0,0,.94,1.22v0a1.51,1.51,0,0,0,.83.85v0a1,1,0,0,1,.4.43l-.4-.43a.44.44,0,0,0,.4.45.49.49,0,0,0,.41.45.46.46,0,0,0,.42.43.47.47,0,0,0,.42.44.49.49,0,0,0,.43.42.48.48,0,0,0,.44.42.52.52,0,0,0,.45.42,5.15,5.15,0,0,0,2.07,1.77.47.47,0,0,0,.44.4.46.46,0,0,0,.42.44.45.45,0,0,0,.5.36,4.15,4.15,0,0,0,1.48,1.25c.12-.27.26-.53.39-.79a61.79,61.79,0,0,1,8.55-12.49,40,40,0,0,0-6.06,15.33.62.62,0,0,0,0,.13,2.58,2.58,0,0,0,1.14.92v0a.39.39,0,0,1,.25.08.57.57,0,0,0-.25-.06.46.46,0,0,0,.5.33v0a2.14,2.14,0,0,0,1.19.94.52.52,0,0,0,.51.35.42.42,0,0,0,.45.37l0,0a.8.8,0,0,0,.75.52.42.42,0,0,0,.48.37,2.28,2.28,0,0,0,1.2.92.45.45,0,0,0,.51.35,1.84,1.84,0,0,0,1.2,1,.46.46,0,0,0,.49.35,4.13,4.13,0,0,0,1.68,1.3.42.42,0,0,0,.48.36l0,0a3.24,3.24,0,0,0,1.66,1.32.45.45,0,0,0,.45.39,1.26,1.26,0,0,1,.44.42h0a6,6,0,0,0,2,1.8.49.49,0,0,0,.41.43,2.22,2.22,0,0,0,1,1.19,1,1,0,0,0,.4.89,5.62,5.62,0,0,0,.32,1.95.73.73,0,0,0,.12.32l-.09.12.09.13c0,4.39.49,8.8.26,13.19a131,131,0,0,0,1,22.75,23.68,23.68,0,0,0,.79,5.16,26.48,26.48,0,0,0,.92,6.61h0l-.09.08.06.1a28.46,28.46,0,0,0,.85,6h0c.11.87-.12,1.78.42,2.58a23.14,23.14,0,0,0,.9,6.14l-.09.12.09.1a4.76,4.76,0,0,0,0,.84c.43,3.37.87,6.73,1.34,10.09a50,50,0,0,0,5.29-1.06,54.53,54.53,0,0,0,15.38-6.52q-10,6.51-19.9,13v0l0,.05-.45,1.57.44-1.57a26.54,26.54,0,0,0-3.83,10.14c-.43,3-.1,4.52-.34,8.2a46.63,46.63,0,0,1-2,10.53l-.05,4.36L314,490.91l-40.34,28.82c7.05-.09,26,1.3,38.14,6.59,3.81,1.66,7.95,3.45,12,7.5s4.63,7.93,7.21,8c2.89.11,3.35-4.41,9.28-9.18a31.4,31.4,0,0,1,10.34-5.35,39.65,39.65,0,0,1,13.55-2.15,73.11,73.11,0,0,0,12.46-.37,11.25,11.25,0,0,0,2.51-.61c3.22-1.22,3.81-2.93,8.56-4.81a29,29,0,0,1,7.49-1.87c.21-2,.48-5,.73-8.63.58-8.64.37-14.89.59-16.86a275.17,275.17,0,0,1,4.89-29.4l.11-1.2c-7.95,6.53-15.4,13.22-22.37,20,7-7.69,14.18-16.05,21.4-25.15.57-.71,1.13-1.44,1.7-2.15L404.09,436a91,91,0,0,1-12.72,12.32,75.81,75.81,0,0,0,12.43-21.81q1.05-2.83,1.77-5.51l1.75-17.6c-.05-.22-.13-.48-.18-.79a5.74,5.74,0,0,1,.33-.71l.09-.82.52-.05a7.34,7.34,0,0,1,2-1.62,25.24,25.24,0,0,1,4.51-1.94,34.28,34.28,0,0,0,2-5.76,35.26,35.26,0,0,0,1-11.77c.55,5.36,1.1,10.7,1.65,16.05,5.18-1.61,10.42-3.09,15.69-4.35a7.31,7.31,0,0,0,4.23-2.26v-.07c0-3.31,2-3.3,2.7-3.66,6-3.23,11.33-3.93,17-7.71a125,125,0,0,1,15.74-9c4-1.92,8-3.93,12-6a3.91,3.91,0,0,0,2.66-1.42c3.62-5.7,3.87-8.8,3.29-10.61-.05-.13-.11-.28-1.25-3.69l-1.26-3.68a7.84,7.84,0,0,0-1.26-3.93c-.2-.55-.41-1.08-.6-1.64a9.38,9.38,0,0,0-1.13-2.58,1.37,1.37,0,0,0-.05-.4c-.47-1.19-.7-2.5-1.66-3.44.06-1.13-.66-2-1-3a5.9,5.9,0,0,0-1.08-2.17A47.54,47.54,0,0,0,480,319a20,20,0,0,0-2.6-4.59c-.3-.76-.47-1.6-1.3-2a1.32,1.32,0,0,0-.86-1.28,1.29,1.29,0,0,0-.86-1.29,2.1,2.1,0,0,0-1.29-1.71,9.44,9.44,0,0,0-3-3.86c0-.94-.8-1.45-1.3-2.11-.12-.16-.25-.31-.38-.47a.49.49,0,0,0-.45-.4,54.06,54.06,0,0,0-4.32-6.85,74.41,74.41,0,0,1-6-9.52c-.27-.48-.51-1-.76-1.44L456.1,282c-.41-.79-.8-1.62-1.19-2.43a17.7,17.7,0,0,1-1.64-6.09c0-.25,0-.49-.06-.73,0-.62-.11-1.24-.18-1.85l-.5-.47a12,12,0,0,0,5.31.25c6.39-1.19,10.63-6.65,17.57-18.77,6.67-11.66,11.87-20.72,17.84-36.71,0,0,7.95-21.31,11-41.59.39-2.69-.11.19,1-16.39C505.68,150.34,506,147.06,503.74,144.7ZM257.44,386.47v0a.45.45,0,0,1,.23.11A.39.39,0,0,0,257.44,386.47Zm-10.27-8.1a.33.33,0,0,1,.29.11A.51.51,0,0,0,247.17,378.37Zm21,16.67a.38.38,0,0,1,.4.43A.45.45,0,0,0,268.12,395Zm10.13,108.13.33-2.29A13.3,13.3,0,0,1,278.25,503.17ZM307,481.31l-28.08,16.92c9.14-7,18.52-14.57,28-22.76q8-6.86,15.31-13.63ZM438.3,381.83s0-2.62,0-5.87c.06,1.17.07,2.19.07,3C438.39,380.8,438.3,381.83,438.3,381.83Zm15.87-49.59c.16.42.3.85.48,1.29s.33.85.51,1.29c.59.39.23.58.23.59,3.95,9.66,8.52,15.72,7.82,16.21-.46.33-2.46-2.41-6.1-6.93a2.44,2.44,0,0,1-.85.13c-.24,0-.47,0-.7,0a15.76,15.76,0,0,0-1.88-.27c-4,0-7.91,0-11.87-.05-1.45,0-1.16,0-1.72,0-3.15.07-4.67.55-6.7.68a10.35,10.35,0,0,1-1.51.06l-.44,0c5.49,7.28,7,13.4,7,18.23,0,1.13-.07,7.53-.13,12.49a69.59,69.59,0,0,0-4.55-21.6,61.52,61.52,0,0,0-4.71-9.44H429s0-.06,0-.07c-1.46-1.89-2.37-2.16-4.78-1.06a47.36,47.36,0,0,1-15.85,3.71,38.49,38.49,0,0,0-17.87,6.25c-.5,5.32-.94,6.91-1.3,6.91s-.29-2.65-1-6.69a.47.47,0,0,0-.33.08,1.74,1.74,0,0,0-.51,0,17.08,17.08,0,0,0-4.33,1.77,13,13,0,0,1-5.19,1c-2.57,0-5.13,0-7.7,0a38.67,38.67,0,0,1-6.92,7.55,40.08,40.08,0,0,1-18.55,8.57c3.33-.94,11.53-3.79,17.13-11.77a29.13,29.13,0,0,0,2.37-4.12h-.43a4.7,4.7,0,0,1-2.48-4.14,5.42,5.42,0,0,1,.07-.81,59.39,59.39,0,0,1-14.15-2.8c-6.44-2.13-7.9-2.58-11.43-5,5.78,2.78,9.69,3.26,18.64,5.29,2.71.62,5.34,1.1,7.83,1.46l.11-.07a1.05,1.05,0,0,0,.89-.39h.1a1.07,1.07,0,0,0,.32,0,1.49,1.49,0,0,0,1.32-.37h.19l.18,0c.61,0,1.25.1,1.74-.41h.21l.2,0a.93.93,0,0,0,.88-.39,1,1,0,0,0,.41-.09c.14-.1.29-.22.42-.33l.53-.41h.06a.33.33,0,0,0,.23-.09,5.45,5.45,0,0,0,2.63-3.71h0a1.59,1.59,0,0,0,.42-1.34,1.19,1.19,0,0,0,0-1.74,7,7,0,0,1-.71-2.73,3.84,3.84,0,0,1,.3-1.52,12.57,12.57,0,0,0,1.18-3.84c.2-1.32.31-2.67.5-4,.34-2.25.31-4.54.61-6.77a15,15,0,0,0-.55-6.93,24.53,24.53,0,0,1-.74-2.67,5.92,5.92,0,0,1,.51-4.35,8.48,8.48,0,0,0,1.06-4.48c0-1-.26-2,.4-2.9.39-.16.79-.3,1.18-.47,4.11-1.85,8.05-3.95,11.24-7.22a1.24,1.24,0,0,1,.44-.44.49.49,0,0,0,.43-.42.48.48,0,0,0,.43-.43,2.71,2.71,0,0,0,1.22-1.41,4,4,0,0,0,1.33-2,3,3,0,0,0,.87-2.12,6.22,6.22,0,0,0-1.46-6.81,12.42,12.42,0,0,0-6.66-3.94,15.76,15.76,0,0,0-11.15,1.29c-.42-.15-.45-.76-.94-.82-2.59-2.3-5.17-4.65-7.95-6.75A29.36,29.36,0,0,0,354,264.29a46.33,46.33,0,0,0-12-1.5,3.68,3.68,0,0,0-2.07.32,14.06,14.06,0,0,0-5.6.84,6.78,6.78,0,0,0-3.36.89,8.28,8.28,0,0,0-3.43,1.26,8,8,0,0,0-2.89,1.33,34.29,34.29,0,0,0-13.24,11.41c-3.85,5.58-5.2,12.05-6.46,18.56a8,8,0,0,0-.79,3,4.66,4.66,0,0,0-.52,2.14,3.43,3.43,0,0,0-.4,2.14c-.54.51-.34,1.2-.44,1.81-.55,3.29.51,4.22,3.51,2.86.69.45.35,1.13.38,1.72.05,2.3-.22,4.6.05,6.89a7.75,7.75,0,0,0-.07,1,3.23,3.23,0,0,0,.39,1.62c0,.13,0,.28.05.41a6.49,6.49,0,0,0,.3,2.09,65,65,0,0,0,3.61,10.4,6.56,6.56,0,0,1-.52,6.28,9.61,9.61,0,0,1-1.68,2.18c-.26.11-.48.37-.31.58.38.4.83.2,1.22-.08a13.43,13.43,0,0,0,6.81-3.08c.32.4.09.82,0,1.2a26.62,26.62,0,0,1-6.37,10.76,2.18,2.18,0,0,0-.71-.18.89.89,0,0,0-.31.06l-.71.19a3,3,0,0,0-1.36.27c-1,.13-2,.18-2.95.22a1.07,1.07,0,0,0-.38,0c-.19.73-.28,1.45-.55,2.84-1,4.69-2.26,8-2.41,8s1-4.26.71-8.07a10,10,0,0,0-.45-2.41,6.89,6.89,0,0,0-.39-1.06,3.33,3.33,0,0,0-2.29-.43,5.41,5.41,0,0,1-3.57-1c-.61-.37-1.09-1-1.74-1.27h0a2.39,2.39,0,0,0-.22-.23l-.24-.18-.07,0a1.62,1.62,0,0,0-.19-.13l-.15-.05a158.1,158.1,0,0,0-11.69-11.32c-1.94-1.65-3.81-3.42-6.23-4.41a1.35,1.35,0,0,0-.42-.1h-.06a4.76,4.76,0,0,1-1.62-.77c-13,12.49-19.45,22.9-19.77,22.63s3.52-5.45,18.13-24.28a11.1,11.1,0,0,0-1-.84,1.44,1.44,0,0,1-.43-.42s0,0,0,0a9.23,9.23,0,0,0-2.13-2.53l-.43-.43c-.15-.19-.29-.36-.42-.54h0a.3.3,0,0,0-.1-.29c-.4-.58-.78-1.17-1.23-1.72a95.85,95.85,0,0,0-6.35-7.73,40.25,40.25,0,0,0-10.31-9.38,2.3,2.3,0,0,0-.41-.36.71.71,0,0,0-.35-.1c-.17-.13-.34-.28-.52-.41l-.43-.39h0a38.09,38.09,0,0,0-6.84-4.28c-1.07-.94-2.58-1.33-3.39-2.63a.51.51,0,0,1-.45-.36,3,3,0,0,1-.34-.45,45.73,45.73,0,0,0-15-1.94,51.56,51.56,0,0,1,16.32-.62,51.1,51.1,0,0,0,2.54-7.83,6.11,6.11,0,0,1,.13-1.12,4,4,0,0,0,.23-.87c.06-.16.11-.33.17-.49a3.63,3.63,0,0,0,.19-.52,5,5,0,0,1,.68-1.21,37.81,37.81,0,0,0,1.41-4.5c.13-.48.29-.95.43-1.42a4.51,4.51,0,0,0,.15-.58,6.48,6.48,0,0,1,.42-1.79c1.07-3.72,2.1-7.46,3.29-11.18.07-.29.17-.56.26-.85a6.39,6.39,0,0,1,.19-1.44c.05-.18.11-.37.15-.56l.27-1.15c.05-.21.11-.42.17-.62.14-.43.26-.87.36-1.3.05-.14.09-.27.15-.4h0c0-.17.09-.33.12-.49a4.22,4.22,0,0,1,.75-1.42c.71-1.92,1.35-3.85,1.94-5.8.2-.66.39-1.29.58-2q1.06-3.73,2-7.52a6.84,6.84,0,0,1,.23-1.57,3,3,0,0,0,.17-.53.36.36,0,0,0,0-.07,1.09,1.09,0,0,0,.07-.24,6.05,6.05,0,0,1,.83-1.42c1-1.49,1.19-3.32,2.22-4.81a19.16,19.16,0,0,1,1.91-2.46c3.16-3.5,10.68-8.15,12.31-9.15,7.77,4.68,15.76,9.39,21.51,12.61A225.59,225.59,0,0,0,325.25,247c5.06,1.9,3,.9,25.49,8.38,16.19,5.38,18.26,6.22,23.44,7.09,11,1.81,10.93-.13,24.7,1.13,8,.73,10.86,1.94,15.25,2.93a2.34,2.34,0,0,1,.13.35,10.75,10.75,0,0,0,1,3c.83,4.13,2.23,5.49,3.42,5.93,1,.36,1.86.1,3.34.72a7.42,7.42,0,0,1,2.85,2.21,1.52,1.52,0,0,0,1.38.42l.19,0h.17s0,0,0,.05c1.36,1.69,3.62,1.34,5.27,2.37h.24q4.31,5.92,8.62,11.86l1.14.13c1.52,3.45,3.18,7.43,4.8,11.93,1,2.82,2.32,6.62,3.65,11.15C451.58,320.94,452.94,326.18,454.17,332.24ZM335.76,291.88h.07l-.06,0S335.76,291.89,335.76,291.88ZM310.24,315.8h-.1a.3.3,0,0,1,0-.12S310.21,315.77,310.24,315.8ZM499.15,169a182.6,182.6,0,0,1-5.6,28.7c-13.86,45.51-24.8,62.14-29.43,62.51-.47.05-2.07.18-2.43-.52-.58-1.17,2.74-3.67,3.39-4.52,4-5.31,5.87-10.06,10.36-19.24a229.29,229.29,0,0,0,13-31.43c1.89-6,1.68-6.42,4.26-14.55a61.77,61.77,0,0,0,2.55-9.7c.79-4.87.85-9.82.4-9.88s-1.17,5.82-3.42,14.95a208.44,208.44,0,0,1-8.61,26.54c-1.68,4.34-1.56,3.67-4.92,12.1s-3.81,9.91-5.54,13.3a60,60,0,0,1-7.73,11.88c-3.31,3.8-8.12,8.14-9,7.43-.66-.52,1.09-3.52,3.91-9.22.31-.62,2.66-5.79,7.32-16.12,1.7-3.75,2.22-5.07,9.39-23.21,8.17-20.66,9.29-23.45,9.46-23.45s-3.34,10.84-6,18.38c-2.27,6.41-4.14,11.28-5,13.47-8.29,21.42-14.47,33.07-14.14,33.24.55,0,12.16-20.14,22.2-46.32.84-2.17,1.78-4.64,2.95-8,6.38-18.43,11.54-41.38,8.73-42.41-.86-.3-2.22,1.6-5,5.38a75.5,75.5,0,0,0-13,31.14,26.22,26.22,0,0,1-.66,3.53,41.53,41.53,0,0,1-2.5,6.42A26.24,26.24,0,0,0,472,205.7c.54.19,13.87-33.21,15.39-32.67s-11.29,38.17-16.75,44.13a15,15,0,0,0-3.28,5.19,17.29,17.29,0,0,0-1,5.4c-.2,2.58-1.52,5.72-4.16,11.89-3.5,8.21-5.26,12.32-6,12.11s-.19-6,.61-9.79c1.81-8.65,4.64-13.66,8.06-21.76,1.29-3.06,2.85-7.44,5.94-16.19,4.29-12.08,8.94-26.56,8.52-26.71-.8-.27-19.88,52.41-21.3,51.92-.35-.13.43-3.29,1.19-6.41a102.81,102.81,0,0,1,4.47-14.08c5.52-13.61,10.71-27,10.71-27.29-.17,0-2.32,5-6.79,14.62-5.54,11.89-8.48,18.17-9,18-.76-.29,3.27-12.38,4.39-15.76,1.87-5.61,2.81-8.41,4.33-11.86a149.39,149.39,0,0,1,8-15,59.78,59.78,0,0,0,3.74-6.51c.43-.92,1.26-2.84,2.66-5.4.64-1.15,1-1.73,1-1.79-.87-.49-18.66,21.85-26.21,51.76a154.48,154.48,0,0,0-4.05,25.08c-1,15.63.87,29,.15,29-.38,0-1.61-3.31-1.73-7-.08-2.68.42-5.56-.78-6.13-.53-.26-1,.13-1.45-.23-.65-.57-.36-1.91-.2-3,.43-3.1-.19-6.21-.59-6.26s-1.7,5-2.5,9.67c-1.3,7.91-1,11.77-1.49,11.8-1,.1-4.82-14.6-4.72-32.42.11-22.57,6.47-39,5.46-39.26-.72-.2-4.26,8.38-6.81,18.43-3.51,13.73-3.61,24.09-4.09,24.09s-.39-9.9.12-20.31c.56-11.67,1.35-16.93.55-17.1s-3.45,6.06-4.74,13.12c-1.59,8.72-.55,15.62-1.32,15.71-.21,0-.49-.49-2.11-5.9-1.77-5.87-1.94-6.94-2.31-6.94-1.07,0-2.32,9.17-2.55,19.6-.34,16.25,2,27.44,1.67,27.5s-3.78-12.83-4.75-30.16c-.74-12.94.24-22.13-.74-22.25-1.36-.16-4.12,17.45-4.83,17.35s.05-11.55,2.76-24.95c3.82-18.87,9.65-31.15,9.4-31.24s-10.22,17.56-15.32,42.1c-5.76,27.81-2.08,48.44-2.45,48.45-.46-.17-6.25-31.14,2.11-66.48,1.85-7.9,5.1-18.85,4.44-19.07s-4.24,8.64-6.5,15.43c-1.41,4.28-2.73,9.06-3.7,11.67a13.24,13.24,0,0,0-1,3.14c-.15,1.09,0,1.69-.41,2-.72.49-1.87-1-2.94-.75-1.62.43-2,4.8-2.26,8.51-.29,3.9,0,5.49-1,6-.68.32-1.3-.28-5-1.74-2.2-.89-3-1.34-3.56-1-1,.65-.09,3.23.36,6.12,1.12,7.09-2.65,7.67-1.4,15.54.5,3.13,0,1.81.3,9.06.3,7.7.42,8.13-.17,8.87-1.47,1.86-4.55,1.73-10.73,1.44-4.56-.19-6.85-.29-7.94-1.41-2.14-2.22-.4-5.49-.52-14.47,0-3.11-.48-4.39-.49-7.29,0-9.84,1.25-35.11.4-35.21-.59,0-3.69,12.49-4.41,28.56-.58,12.78.53,23.52-.48,23.63-.41,0-1.23-2.73-2.86-8.25-2.32-7.86-2.27-8.86-3.61-10.38-2.13-2.39-4.26-2.18-10.82-4.18-.55-.17-4.39-1.69-12.08-4.72-8.68-3.43-18.17-7.15-18.17-7.54.05-.13,2.2.61,8.31,2.27,4.6,1.26,7.94,2.11,11.23,2.92,8.71,2.17,16.07,4,16.2,3.62.26-.91-35.47-12.8-35.34-13.13a133.09,133.09,0,0,0,24,4.88c5.26.52,9.13.52,9.19.06.11-.87-14.48-3.39-14.27-4.77.14-.93,6-.39,6.25-1.56.35-1.86-14.2-5.5-13.91-6.79.13-.62,3.54-.49,5.44-.27,2.4.26,3,.73,5.42,1,2.13.22,5,.19,5.1-.24.08-.6-5.26-1.87-12.32-3.57-2.8-.68-5.5-1.73-8.33-2.19-2.67-.42-4.61-.48-5.46-1.91-.67-1.12-.57-2.84.27-3.44s2,.06,3.65.73c2.28.91,4.77,1.27,7.09,2.1s7,2,16,4.12c12.36,2.92,18.55,4.4,18.65,4.11.26-.91-40.27-13.36-40.12-13.86.24-.69,42.12,11.83,42.25,11.46,0-.54-42.09-13.56-42.09-14s22.4,5.54,22.54,5.12c0-.25-5.6-1.64-5.6-3.64,0-.94,1.24-1.19,1.26-2,0-1.62-5.15-2.88-13.46-5.07,0,0-9.83-2.59-9.71-3a15.4,15.4,0,0,0,5.65-.25c1.2-.35,2.16-.62,2.3-1.23.38-1.7-6.17-2.74-8.27-7.19-1.15-2.44-.34-4.54.81-9.19,2.27-9.25,3.14-17.49,2.81-17.6-.49,0-5.95,12.07-8.46,28.44-2.73,17.76-5.45,35.43.06,50.77.69,1.94,2.17,5.68.55,7.45-2.7,2.93-12.2-1.32-17.62-4.87-3-1.94-10.54-7.05-14.06-16.64-1.51-4.08-.72-6.25-.95-21.16s.55-26-.16-26.08c-.87-.08-2.63,15.95-3.52,15.86-.63,0-.57-8.32,0-15.8.65-9.09,1.87-14.65,1.45-14.74s-3.24,6.84-4.76,15.53a147.58,147.58,0,0,0-.79,42c.4,2.7,1,6-.54,7-2.3,1.48-8.72-2.71-11.74-8.38A19.73,19.73,0,0,1,257.54,192c2-34.63,4.84-49.67,4.84-49.67,2.91-15.32,4.12-20.08,3.83-20.18-.57-.14-6.83,16.6-9.7,37.25s-1.74,36.49-2.55,36.5c-.61,0-1.71-9-1.58-18.79.13-9.94,1.49-16.79,1.05-16.87s-2.16,6.2-3.21,13.39c-1.71,11.8-.84,21.17-1.1,21.17s-.58-3.35-.81-8.83c0,0-.78-26.05,5-45.48.29-1,1.41-4.43,2.81-9.61a60.78,60.78,0,0,1,1.83-6.48c.94-2.35,2.2-4,4.36-8.54a25.51,25.51,0,0,0,1-2.74c1-2.72,1.44-4.09,1.23-4.2-.68-.38-6.76,10.58-8.44,9.87-1.28-.57,1.1-7.8.2-8.1s-4,6-5.87,10.94c-1.29,3.29-2.1,6.09-3.66,11.54-1.41,4.9-1.58,5.9-2.6,9.51-2,6.94-4.27,15.12-5.06,15-1.68-.32,7.06-39.14,8.84-44.3a31.22,31.22,0,0,1,1.8-4.22c3-4.47,2.56-5.36,5-9.21,8.78-14.09,20.07-22.77,20.45-22.41s-3.79,3.65-8.65,10.92C260,98,256.84,106.92,257,107s1.42-3,4.38-7.2c4.49-6.45,9.65-11.11,10.19-10.66s-2.51,3.67-4.64,10.19c-1,3.08-1.87,7.08-1.23,7.34.42.13,1.29-1.23,4.4-6.26,2.87-4.69,4.28-7,4.7-7.69,4.68-7.2,15.52-20.58,16.17-20.11.45.34-4.77,6.67-8.61,17.87-1.27,3.74-2.07,7-1.64,7.17.61.2,2.66-5.94,7.64-11.84,5.16-6.11,12.07-10.3,13-9.38,1.18,1.2-8.43,10.19-17.28,24.44-8.65,13.89-12.39,26.34-15.13,35.23-3.75,12.2-5,20.73-7,35.08C258.87,193,260,201,264.29,204c1.12.77,3.94,2.25,4.93,1.36.83-.75-.32-2.75-1-6a79.12,79.12,0,0,1-.93-8.76A148.31,148.31,0,0,1,274.41,133c6.55-18.92,18.4-39.16,28-45.79.62-.42,5-3.68,13.69-10.22,3.61-3.33,4.1-3.77,4.33-3.72h.06c.17.26-3.06,2.7-4.39,3.71-2.48,2.26-6.4,5.9-12.71,11.69a81,81,0,0,0-6.21,6c-3,3.16-9.68,10.85-16.42,27.29a128.6,128.6,0,0,0-8.25,28.77c.76-2.34,7.08-18.54,11.32-30.67.45-1.26,1.68-4.83,4.23-5.38,1.62-.33,3.19.68,3.57.11.53-.79-2.15-3.47-1.83-3.79s1.8,1.3,2.48.87.1-2.48.53-2.6a.31.31,0,0,1,.28.12c.84.75,3.56,1.4,4,.84.6-.73-2.39-3.5-1.88-4.21.78-1,8.56,3.73,8.94,3.14s-6.33-5.69-5.9-6.34,4.31,3,7.68,1.77c2-.75,1.73-2.41,5-5.21a23.86,23.86,0,0,1,5-3.18c3.72-1.92,6-3.09,6.48-2.57.85,1-5.74,6.61-11.83,15.19-7.92,11.21-11.27,22.2-10.82,22.41S303,124.9,309.39,116c6.89-9.61,14.31-16.93,14.89-16.48S316,109.27,308.12,126a173.58,173.58,0,0,0-8.21,21.34c-1.57,5-2.58,8.91-4.55,16.74-4,15.63-4.91,21.41-5.43,21.34-.8-.12,0-13.55,2.4-27.59,2-11.51,4-18.1,3.61-18.26-.61-.18-5.15,12-8.38,25.51-3,12.47-3.49,19.11-3.2,25.08.36,7.67,1.87,9.32.84,15.22-.51,2.86-.66,4.7.26,7.11,1.19,3.06,3.63,4.77,7.48,7.45,3.36,2.35,5.61,3.91,6.84,3.14s.64-3.55-.1-8.22a245.38,245.38,0,0,1-2-25,72,72,0,0,1,.35-7.26c2.78-36.53,20.34-65.22,20.34-65.22,14.84-24.27,34.74-39,35.79-38,1.26,1.16-25.14,22.12-42,61.67,0,0-14.12,33.07-11.58,70.68.12,1.91.8,3.39,1.39,8.85.2,1.86.28,3.12,1.28,4.16,1.68,1.77,5.05,2,5.91.79.42-.58.09-1.26-.45-3.51-.38-1.62-.52-3.31-.86-5-7.63-37.6,10.18-79,10.18-79,3.58-8.33,10.68-24.39,25.73-39.51A117.73,117.73,0,0,1,358.38,86a130.62,130.62,0,0,0-15.28,15.47,134.56,134.56,0,0,0-9.05,12.63c-7.38,11.22-11.2,19.39-10.78,19.64s2.9-6.84,9.29-9c5.27-1.78,10.59.65,10.8-.11.29-1-7.94-4.38-7.73-5,.1-.23,1.56.32,1.94-.24s-1.06-1.92-.62-2.45c.73-.92,4,.94,4.59.13s-1.35-2.29-1.06-2.79c1-1.81,29.29,12,31.78,13.15-2.26-1.27-24.58-12.77-24.17-13.64.26-.58,10.05,3.68,10.61,2.6s-9.83-7-9.15-8.41c.41-.86,4.44.2,7.25,1.06,13,3.91,22.44,10,22.59,9.77s-15.2-10.18-14.68-11.09,13.63,6.08,14.17,5.14c.14-.26-.68-1.16-8.11-6.56-8.48-6.17-11.73-8.14-11.51-8.5s6.62,2.87,19.82,8.63c7.54,3.29,13.13,5.52,12.94,6-.1.33-2.63-.26-3.37-.45-6.83-1.6-11.22-4.74-11.47-4.4-.39.57,9.94,7.91,9.18,9.22-.47.8-4.89-1.14-5.15-.55s5.16,4,5.86,4.48c2.72,1.64,3.36,1.77,3.74,2.6,1.24,2.77-3.22,7.3-4.24,8.38-3.88,4.09-7,11.87-13.33,27.48-7.24,17.94-6.3,36-4.88,36.22,1.77.32,3.27-26.79,20.66-56.9,10.42-18,22.23-29.69,23-29.11,1,.76-19.16,22.13-31.5,57.39,0,0-7,19.34-10.54,48.35a94.83,94.83,0,0,0-.77,15.48c.29,6.44,1,6.44.79,11.38-.24,6.4-1.55,9.73.5,11.6,1.52,1.39,4.5,1.2,5.31,1.12,1.4-.1,2.4-.53,4.16-.21,1.43.26,1.75.71,2.21.6,2.64-.73.6-13.93.6-13.93-2.93-19,5.34-55.06,10.21-70.59,10.84-34.4,33.24-57.15,34-57.95-.25.38-3.22,4.82-8.09,12.91-6.4,10.65-11.91,19.8-10.86,20.57,1.65,1.24,18.78-20,20.62-18.6.55.4-.58,2.43-3.38,9-1.71,4-6.39,15-5.7,15.3.51.28,3.54-5.26,10-14.71,3.42-5,8.42-12,8.77-11.8s-1.77,3.48-6.51,12.22c-4.58,8.45-6.34,12.09-7.63,17-1,3.69-1.67,8.17-1.08,8.37,1,.29,3.05-11.31,11.55-22.91,6.45-8.78,13.93-15,14.26-14.71s-3.68,3.84-7.36,10.42c-4.48,8-6.14,16-5.36,16.34s3.94-6.31,4.75-5.94-.87,5.1-1.06,5.67c-5.43,17.12-14.27,49-14.53,50.34.55-1,7.13-19.32,7.13-19.32,9.62-26.75,11.75-32.34,16.74-39.59a69.33,69.33,0,0,1,12.94-14.49,44.59,44.59,0,0,0-9.35,14.1c-1.19,2.87-2.25,6.36-1.61,6.69,1,.54,6.1-7.11,6.49-6.82.67.46-2.2,6.74-4.29,12.25-5.07,13.3-7.71,27.9-5.92,28.58s6.29-13.2,20.34-29.48c6.67-7.69,13.58-13.76,14.13-13.27.78.7-12.59,13-24.36,33.48-6.35,11-18.21,32.44-16.4,58,.55,7.88,2.46,16.86,3,16.86s-.87-6.64.09-14.07c.51-3.93,1.22-8.35,2-12.76s1.73-8.83,2.67-12.77c.65-3.77,5.09-21.36,15.9-39.2.53-.89,2.62-4.32,5.68-8.63a88.4,88.4,0,0,1,6-7.77c3.06-3.52,7.87-8.33,8.57-7.77.93.73-5.68,10.25-5,10.68.22.16,1.48-.89,3.59-3.37a37.47,37.47,0,0,1,4.39-4.6c2.54-2.06,5.82-3.39,6.21-2.85s-3.87,3.78-8,9.09c-5.19,6.65-8,13.9-7.2,14.39,1.42.91,14.5-21.69,19.43-19.63C501.22,151.06,500.35,158.92,499.15,169Z"/><path class="cls-2" d="M420.11,526.73c.14,2.94.81,24-15.35,37.74a43.17,43.17,0,0,1-20.39,9.42A39.09,39.09,0,0,1,386,553.27C393.9,532.15,418.21,527.1,420.11,526.73Z"/><path class="cls-2" d="M443.06,590.19c-1.78-2.33-14.91-18.86-36.09-18.86a43,43,0,0,0-21.64,6A39.16,39.16,0,0,0,399.91,592C419.57,603,441.38,591.14,443.06,590.19Z"/><path class="cls-3" d="M380.49,541.66c-.68,2.86-5.85,23.33-25.16,32a43.16,43.16,0,0,1-22.21,3.41,39.27,39.27,0,0,1,7.28-19.36C353.8,539.63,378.56,541.49,380.49,541.66Z"/><path class="cls-3" d="M386.09,611.63c-1.07-2.74-9.12-22.25-29.48-28.11a43.14,43.14,0,0,0-22.46-.2,39.08,39.08,0,0,0,10,18.12C360,617.46,384.21,612.07,386.09,611.63Z"/><path class="cls-4" d="M457,503.38c.94,2.78,7.34,22.9-4.46,40.49a43.1,43.1,0,0,1-17.06,14.63,39.21,39.21,0,0,1-4-20.28C433.26,515.75,455.27,504.25,457,503.38Z"/><path class="cls-4" d="M496.4,558.16c-2.36-1.75-19.49-14.08-39.87-8.29a43.08,43.08,0,0,0-19.18,11.69,39.1,39.1,0,0,0,18,10.12C477.3,576.91,495,559.53,496.4,558.16Z"/><path class="cls-5" d="M484.6,475.85c1.61,2.45,12.9,20.29,5.94,40.3a43.16,43.16,0,0,1-12.79,18.48,39.11,39.11,0,0,1-9-18.6C464.77,493.83,483.14,477.13,484.6,475.85Z"/><path class="cls-5" d="M536.59,518.85c-2.72-1.1-22.42-8.68-40.67,2.08a43.15,43.15,0,0,0-15.59,16.18,39.09,39.09,0,0,0,20,5.22C522.86,541.83,535.62,520.52,536.59,518.85Z"/><path class="cls-6" d="M510.21,444.17c2,2.13,16.34,17.64,13.09,38.58A43.08,43.08,0,0,1,514,503.23a39.3,39.3,0,0,1-12.24-16.67C493.94,465.43,509,445.69,510.21,444.17Z"/><path class="cls-6" d="M569.08,477.11c-2.87-.59-23.61-4.5-39.62,9.37A43.1,43.1,0,0,0,517,505.21a39.24,39.24,0,0,0,20.61,1.53C559.72,502.19,568.43,478.93,569.08,477.11Z"/><path class="cls-7" d="M525.65,404.05c2.39,1.71,19.35,14.27,20.07,35.45a43.22,43.22,0,0,1-5.27,21.85,39.22,39.22,0,0,1-15.14-14.09C513.63,428,524.75,405.77,525.65,404.05Z"/><path class="cls-7" d="M589.64,425.39c-2.94,0-24,0-37.18,16.62a43.28,43.28,0,0,0-8.71,20.72,39.12,39.12,0,0,0,20.54-2.35C585.12,451.79,589.34,427.31,589.64,425.39Z"/><path class="cls-7" d="M538.73,363.7c2.55,1.45,20.75,12.14,23.71,33.12a43.16,43.16,0,0,1-2.92,22.29A39.26,39.26,0,0,1,543,406.71C529.32,388.77,538,365.5,538.73,363.7Z"/><path class="cls-7" d="M604.62,378.14c-2.92.27-23.9,2.55-35.21,20.47A43.15,43.15,0,0,0,563,420.13a39.14,39.14,0,0,0,20.17-4.51C602.93,404.86,604.53,380.07,604.62,378.14Z"/><path class="cls-8" d="M530.9,326.06c2.88.57,23.51,5,32.89,24A43.17,43.17,0,0,1,568,372.15a39.15,39.15,0,0,1-19.6-6.58C529.82,352.82,530.79,328,530.9,326.06Z"/><path class="cls-8" d="M598,319.1c-2.69,1.18-21.9,9.92-27,30.49a43,43,0,0,0,.6,22.46,39.1,39.1,0,0,0,17.74-10.61C604.76,345,598.51,321,598,319.1Z"/><path class="cls-9" d="M520.9,284.14c2.94-.09,24-.37,37.44,16a43.21,43.21,0,0,1,9,20.58,39,39,0,0,1-20.57-2C525.83,310.46,521.23,286.05,520.9,284.14Z"/><path class="cls-9" d="M584.74,262.34c-2.36,1.75-19.12,14.57-19.51,35.76a43.08,43.08,0,0,0,5.61,21.76,39.2,39.2,0,0,0,14.91-14.32C597.13,286.08,585.66,264,584.74,262.34Z"/><path class="cls-10" d="M503.19,245.47c2.89-.51,23.72-3.9,39.38,10.36a43.17,43.17,0,0,1,12,19,39,39,0,0,1-20.65,1C511.94,270.78,503.8,247.31,503.19,245.47Z"/><path class="cls-10" d="M563.13,214.51c-2.08,2.08-16.78,17.23-14,38.24a43.25,43.25,0,0,0,8.75,20.71,39.24,39.24,0,0,0,12.65-16.36C578.87,236.17,564.29,216.06,563.13,214.51Z"/><path class="cls-10" d="M515.9,189.89c-.64,2.66-4.88,21.86,7.56,37.18a40.14,40.14,0,0,0,17,12.12,36.43,36.43,0,0,0,2-19.15C539,199.35,517.57,190.55,515.9,189.89Z"/><path class="cls-2" d="M244,527.47c-.15,2.93-.82,24,15.34,37.74a43,43,0,0,0,20.4,9.41A39.18,39.18,0,0,0,278.09,554C270.22,532.88,245.91,527.83,244,527.47Z"/><path class="cls-2" d="M221.05,590.93c1.79-2.33,14.91-18.87,36.09-18.87a43.21,43.21,0,0,1,21.65,6,39.2,39.2,0,0,1-14.59,14.66C244.54,603.75,222.73,591.88,221.05,590.93Z"/><path class="cls-3" d="M285.15,541.66c.67,2.86,5.85,23.33,25.16,32a43.12,43.12,0,0,0,22.2,3.41,39.17,39.17,0,0,0-7.28-19.36C311.83,539.63,287.07,541.49,285.15,541.66Z"/><path class="cls-3" d="M277.63,611.63c1.08-2.74,9.12-22.25,29.48-28.11a43.18,43.18,0,0,1,22.47-.2,39.27,39.27,0,0,1-10,18.12C303.75,617.46,279.51,612.07,277.63,611.63Z"/><path class="cls-4" d="M207.11,504.12c-.93,2.78-7.34,22.9,4.46,40.49a43.18,43.18,0,0,0,17.06,14.63,39.24,39.24,0,0,0,4-20.28C230.85,516.48,208.84,505,207.11,504.12Z"/><path class="cls-4" d="M167.71,558.89c2.36-1.75,19.49-14.07,39.87-8.29a43.11,43.11,0,0,1,19.18,11.7,39.29,39.29,0,0,1-18,10.12C186.81,577.65,169.07,560.27,167.71,558.89Z"/><path class="cls-5" d="M179.52,476.58c-1.62,2.46-12.91,20.29-6,40.31a43.16,43.16,0,0,0,12.79,18.48,39.12,39.12,0,0,0,9-18.6C199.35,494.57,181,477.86,179.52,476.58Z"/><path class="cls-5" d="M127.52,519.58c2.73-1.1,22.42-8.67,40.67,2.09a43.07,43.07,0,0,1,15.59,16.18,39.13,39.13,0,0,1-20,5.22C141.25,542.57,128.49,521.26,127.52,519.58Z"/><path class="cls-6" d="M153.9,444.91c-2,2.12-16.34,17.63-13.09,38.58A43,43,0,0,0,150.07,504a39.17,39.17,0,0,0,12.24-16.66C170.18,466.17,155.1,446.43,153.9,444.91Z"/><path class="cls-6" d="M95,477.84c2.87-.59,23.61-4.49,39.62,9.38a43.08,43.08,0,0,1,12.43,18.72,39.14,39.14,0,0,1-20.61,1.53C104.4,502.93,95.68,479.67,95,477.84Z"/><path class="cls-7" d="M138.46,404.79c-2.38,1.7-19.35,14.26-20.07,35.44a43.19,43.19,0,0,0,5.27,21.85A39.18,39.18,0,0,0,138.8,448C150.48,428.71,139.36,406.5,138.46,404.79Z"/><path class="cls-7" d="M74.47,426.13c2.94,0,24,0,37.18,16.62a43.25,43.25,0,0,1,8.71,20.72,39.29,39.29,0,0,1-20.53-2.35C79,452.52,74.77,428,74.47,426.13Z"/><path class="cls-7" d="M125.38,364.44c-2.55,1.45-20.75,12.13-23.71,33.12a43.23,43.23,0,0,0,2.92,22.28,39.18,39.18,0,0,0,16.55-12.4C134.79,389.51,126.09,366.24,125.38,364.44Z"/><path class="cls-7" d="M59.49,378.87c2.92.27,23.9,2.55,35.21,20.48a43.12,43.12,0,0,1,6.46,21.52A39.07,39.07,0,0,1,81,416.35C61.19,405.59,59.59,380.81,59.49,378.87Z"/><path class="cls-8" d="M133.21,326.8c-2.88.57-23.5,5-32.89,24a43.26,43.26,0,0,0-4.21,22.08,39.18,39.18,0,0,0,19.6-6.59C134.3,353.55,133.32,328.73,133.21,326.8Z"/><path class="cls-8" d="M66.12,319.84c2.69,1.17,21.9,9.92,27,30.48a43.16,43.16,0,0,1-.61,22.47A39.16,39.16,0,0,1,74.8,362.17C59.36,345.75,65.6,321.7,66.12,319.84Z"/><path class="cls-11" d="M143.21,284.87c-2.94-.08-24-.37-37.43,16a43.18,43.18,0,0,0-9,20.58,39.12,39.12,0,0,0,20.57-2C138.28,311.19,142.88,286.78,143.21,284.87Z"/><path class="cls-11" d="M79.37,263.08c2.36,1.74,19.12,14.56,19.52,35.75a43.33,43.33,0,0,1-5.61,21.77,39.15,39.15,0,0,1-14.92-14.32C67,286.81,78.45,264.78,79.37,263.08Z"/><path class="cls-10" d="M162.64,252.06c-2.89-.52-23.72-3.91-39.38,10.35a43.21,43.21,0,0,0-12,19,39.19,39.19,0,0,0,20.64,1C153.9,277.37,162,253.9,162.64,252.06Z"/><path class="cls-10" d="M102.71,221.1c2.07,2.07,16.77,17.22,14,38.24A43.16,43.16,0,0,1,108,280a39.17,39.17,0,0,1-12.65-16.36C87,242.75,101.54,222.65,102.71,221.1Z"/><path class="cls-10" d="M182.35,215.55c-2.81-.83-23.14-6.51-40.29,5.93a43.25,43.25,0,0,0-14,17.59,39.2,39.2,0,0,0,20.41,3.3C170.86,239.73,181.55,217.31,182.35,215.55Z"/><path class="cls-10" d="M126.2,178.15c1.84,2.29,14.77,19,9.74,39.56a43.26,43.26,0,0,1-11,19.61,39.29,39.29,0,0,1-10.76-17.66C108.16,197.93,124.88,179.56,126.2,178.15Z"/><path class="cls-10" d="M215.61,183.59c-2.69-1.18-22.16-9.34-40.71.88a43.06,43.06,0,0,0-16.07,15.71,39.23,39.23,0,0,0,19.84,5.8C201.2,206.16,214.59,185.23,215.61,183.59Z"/><path class="cls-10" d="M164.54,139.49c1.54,2.51,12.3,20.67,4.74,40.47A43.2,43.2,0,0,1,156,198.05a39.28,39.28,0,0,1-8.49-18.86C144.19,156.88,163.05,140.73,164.54,139.49Z"/><path class="cls-10" d="M210.21,120.67c.63,2.66,4.87,21.86-7.57,37.18a40.28,40.28,0,0,1-17,12.13,36.56,36.56,0,0,1-2-19.16C187.14,130.13,208.53,121.33,210.21,120.67Z"/><path class="cls-1" d="M954.55,276.9V274l6-2.16a2.47,2.47,0,0,0,1-.64,1.74,1.74,0,0,0,.43-1.26V228.11a1.71,1.71,0,0,0-.41-1.23,2.28,2.28,0,0,0-1.06-.62l-6-2v-2.83h19.9l12.94,36.61,1.94,6.73h.61l15-43.34h19.63v2.83l-5.88,2a2.8,2.8,0,0,0-1.08.63,1.62,1.62,0,0,0-.46,1.22v42.06a1.75,1.75,0,0,0,.42,1.28,3,3,0,0,0,1.12.66l5.88,1.89v2.9h-22.88V274l5.87-1.89a2.56,2.56,0,0,0,1.11-.64,1.79,1.79,0,0,0,.44-1.3V225.68h-.73l-1.82,5.72-13.18,36.92-3.67,8.58h-3.94l-16.11-45.46-1.78-5.76h-.62v44.26a1.64,1.64,0,0,0,.43,1.26,3.1,3.1,0,0,0,1,.64l5.84,2.16v2.9Z"/><path class="cls-1" d="M1033.1,276.9V274l6.26-1.89a2.59,2.59,0,0,0,1.09-.66,1.88,1.88,0,0,0,.38-1.28V228.11a1.67,1.67,0,0,0-.42-1.23,2.47,2.47,0,0,0-1.05-.62l-6.26-2v-2.83h23.57v2.83l-6.22,2a2.65,2.65,0,0,0-1.06.63,1.65,1.65,0,0,0-.44,1.22v42.06a1.75,1.75,0,0,0,.44,1.3,2.56,2.56,0,0,0,1.06.64l6.22,1.89v2.9Z"/><path class="cls-1" d="M1065.25,276.9V274l6-1.89a2.23,2.23,0,0,0,1.06-.64,1.88,1.88,0,0,0,.41-1.3V228.11a1.67,1.67,0,0,0-.42-1.23,2.53,2.53,0,0,0-1-.62l-6-2v-2.83h43v13.77h-4.56l-1.51-7.62a1.89,1.89,0,0,0-.58-1.06,1.56,1.56,0,0,0-1.08-.37h-19.75V245.7h11.87a1.69,1.69,0,0,0,1.14-.33,1.89,1.89,0,0,0,.52-1.06l1.39-6.11h3.71V258h-3.71l-1.39-6.07a2.14,2.14,0,0,0-.52-1.1,1.55,1.55,0,0,0-1.14-.37h-11.87v21.76h22.76a1.51,1.51,0,0,0,1-.38,1.82,1.82,0,0,0,.56-1.08l1.54-8.51h4.52V276.9h-6.41a16.09,16.09,0,0,0-3.44,3.6,8.37,8.37,0,0,0-1.43,4.91,5.37,5.37,0,0,0,1.22,3.42,4.32,4.32,0,0,0,3.61,1.52,7,7,0,0,0,2.13-.34,13.71,13.71,0,0,0,2-.82h.62v4.06a20.61,20.61,0,0,1-3.19,1,13.69,13.69,0,0,1-2.88.33,11.11,11.11,0,0,1-5.37-1.12,7.15,7.15,0,0,1-2.92-2.84,7.52,7.52,0,0,1-.91-3.5,8.49,8.49,0,0,1,2.15-5.78,33.27,33.27,0,0,1,4.69-4.43Z"/><path class="cls-1" d="M1120,276.9V274l6-1.89a2.47,2.47,0,0,0,1-.64,1.83,1.83,0,0,0,.42-1.3V228.11a1.67,1.67,0,0,0-.42-1.23,2.53,2.53,0,0,0-1-.62l-6-2v-2.83h25.35a35.08,35.08,0,0,1,7.09.78,29.43,29.43,0,0,1,7.44,2.63,23.43,23.43,0,0,1,6.66,5.06,23.85,23.85,0,0,1,4.8,8,33,33,0,0,1,1.79,11.48q0,9.48-3.77,15.56a23,23,0,0,1-10.1,9,33.13,33.13,0,0,1-14.06,2.92Zm15.54-50.8v46.16h9.85q9.69,0,14.22-5.68t4.52-16a30,30,0,0,0-2.61-13,19.64,19.64,0,0,0-7.36-8.45,20.64,20.64,0,0,0-11.17-3Z"/><path class="cls-1" d="M1179.28,276.9v-3.59L1211,230l2.67-3.17v-.66h-23.77a1.44,1.44,0,0,0-1,.37,1.83,1.83,0,0,0-.58,1.06l-1.55,8.27h-4.52V221.46h42v3.44l-31.87,43.38-2.67,3.25v.65h27a1.68,1.68,0,0,0,1.06-.34,1.82,1.82,0,0,0,.6-1.12l1.55-9.32h4.52v15.5Z"/><path class="cls-1" d="M1243,276.9V274l6.34-1.89a2.22,2.22,0,0,0,1.1-.64,1.88,1.88,0,0,0,.41-1.3V256.1L1235.07,228a6.28,6.28,0,0,0-.79-1.16,2.85,2.85,0,0,0-1.14-.85l-4.29-1.7v-2.83h20.48v2.83l-6.38,2.28,11.13,19.17,2.13,4.76h.62L1270,226.8l-6.29-2.51v-2.83H1281v2.83l-4.13,1.81a3.21,3.21,0,0,0-1.12.85,8.33,8.33,0,0,0-.85,1.16l-16,27.76v14.3a1.88,1.88,0,0,0,.41,1.3,2.25,2.25,0,0,0,1,.64l6.42,1.89v2.9Z"/><path class="cls-1" d="M1313.82,278.22a26.55,26.55,0,0,1-11.81-2.34,17.33,17.33,0,0,1-7.12-6.07,14.4,14.4,0,0,1-2.4-7.91V228.11a1.61,1.61,0,0,0-.43-1.22,2.81,2.81,0,0,0-1.12-.63l-5.87-2v-2.83h23v2.83l-5.91,2a2.45,2.45,0,0,0-1,.63,1.68,1.68,0,0,0-.43,1.22V258a23.8,23.8,0,0,0,.52,4.66,14,14,0,0,0,2,4.81,11.1,11.1,0,0,0,4.29,3.73,15.93,15.93,0,0,0,7.33,1.45,16.32,16.32,0,0,0,7.43-1.49,12.75,12.75,0,0,0,4.6-3.77,14.36,14.36,0,0,0,2.36-4.77,17.47,17.47,0,0,0,.67-4.51V228.31a1.55,1.55,0,0,0-.42-1.2,2.73,2.73,0,0,0-1-.58l-5.91-2.24v-2.83h19.94v2.83l-5.91,2.24a3.06,3.06,0,0,0-1,.62,1.45,1.45,0,0,0-.43,1.16V260.2a15.55,15.55,0,0,1-2.11,8.31,17.27,17.27,0,0,1-5.38,5.57,24.83,24.83,0,0,1-7,3.13A25.88,25.88,0,0,1,1313.82,278.22Z"/><path class="cls-1" d="M1395.23,264.53h2v5.14a48.34,48.34,0,0,1-5.37,3.81,35.27,35.27,0,0,1-6.88,3.29,23.49,23.49,0,0,1-7.88,1.33,29.51,29.51,0,0,1-14.39-3.38,23.42,23.42,0,0,1-9.57-9.84,33.16,33.16,0,0,1-3.4-15.58,31.54,31.54,0,0,1,3.58-15.35,25.55,25.55,0,0,1,9.79-10.11,27.94,27.94,0,0,1,14.15-3.58,46.8,46.8,0,0,1,6.33.49q3.48.48,6.78,1.14c2.21.44,4.05.85,5.55,1.24v14.15h-4.52l-1.51-7.93a1.67,1.67,0,0,0-.69-1,7.39,7.39,0,0,0-1.24-.74,24,24,0,0,0-5.26-1.91,26.3,26.3,0,0,0-6.14-.68,16.46,16.46,0,0,0-12.9,5.59q-5,5.58-5,17,0,12.09,5.33,18.26t15.42,6.17a16.58,16.58,0,0,0,6-1,22.53,22.53,0,0,0,5-2.75Q1392.8,266.55,1395.23,264.53Z"/><path class="cls-1" d="M1402.81,276.9v-3.59l31.76-43.3,2.66-3.17v-.66h-23.76a1.44,1.44,0,0,0-1,.37,1.83,1.83,0,0,0-.58,1.06l-1.55,8.27h-4.52V221.46h42v3.44l-31.88,43.38-2.66,3.25v.65h27a1.68,1.68,0,0,0,1.06-.34,1.82,1.82,0,0,0,.6-1.12l1.55-9.32H1448v15.5Z"/><path class="cls-1" d="M1455.7,276.9V274l6-1.89a2.26,2.26,0,0,0,1.07-.64,1.87,1.87,0,0,0,.4-1.3V228.11a1.67,1.67,0,0,0-.42-1.23,2.47,2.47,0,0,0-1-.62l-6-2v-2.83h43v13.77h-4.56l-1.51-7.62a1.83,1.83,0,0,0-.58-1.06,1.56,1.56,0,0,0-1.08-.37h-19.74V245.7h11.86a1.69,1.69,0,0,0,1.14-.33,1.89,1.89,0,0,0,.52-1.06l1.39-6.11h3.71V258h-3.71l-1.39-6.07a2.14,2.14,0,0,0-.52-1.1,1.55,1.55,0,0,0-1.14-.37h-11.86v21.76H1494a1.51,1.51,0,0,0,1-.38,1.77,1.77,0,0,0,.56-1.08l1.55-8.51h4.52V276.9Z"/><path class="cls-1" d="M1510.49,276.9V274l6-1.89a2.59,2.59,0,0,0,1-.64,1.79,1.79,0,0,0,.44-1.3V228.11a1.7,1.7,0,0,0-.4-1.23,2.32,2.32,0,0,0-1.07-.62l-6-2v-2.83h23v2.83l-6,2a2.65,2.65,0,0,0-1.06.63,1.65,1.65,0,0,0-.44,1.22v44.07H1546a1.55,1.55,0,0,0,1.12-.44,2,2,0,0,0,.58-1.18l1.7-11.37H1554V276.9Z"/><path class="cls-1" d="M1561,276.9V274l6-2.16a2.82,2.82,0,0,0,1.06-.66,1.73,1.73,0,0,0,.41-1.24V228.15a1.71,1.71,0,0,0-.43-1.24,2.52,2.52,0,0,0-1-.61l-6.19-2v-2.83h15.89l26.81,38.24,3,5h.61V228.31a1.39,1.39,0,0,0-.46-1.18,3.77,3.77,0,0,0-1.08-.6l-5.87-2.24v-2.83h20v2.83l-5.91,2.24a3.79,3.79,0,0,0-1,.6,1.41,1.41,0,0,0-.51,1.18v40l-1.15,9h-4.6l-29.18-41.45-3-5.06h-.62v39.16a1.66,1.66,0,0,0,.46,1.28,3.07,3.07,0,0,0,1,.62L1581,274v2.9Z"/><path class="cls-1" d="M1627.38,276.9V274l6.26-1.89a2.61,2.61,0,0,0,1.08-.66,1.83,1.83,0,0,0,.39-1.28V228.11a1.67,1.67,0,0,0-.43-1.23,2.43,2.43,0,0,0-1-.62l-6.26-2v-2.83H1651v2.83l-6.22,2a2.59,2.59,0,0,0-1.06.63,1.65,1.65,0,0,0-.45,1.22v42.06a1.75,1.75,0,0,0,.45,1.3,2.5,2.5,0,0,0,1.06.64L1651,274v2.9Z"/><path class="cls-1" d="M1655.2,276.9V274l3.94-1.74a3.64,3.64,0,0,0,2-2.12l15.73-40.29,4.56-9.24h4.36l19.52,49.64a6.52,6.52,0,0,0,.75,1.26,2.57,2.57,0,0,0,1.1.87l4.1,1.62v2.9h-20.48V274l6.49-2.24-13.83-35.45-1.51-5.22h-.66L1666,271.57l6.57,2.43v2.9Zm15.45-19.45,1.9-5.37h17.81l1.89,5.37Z"/><path class="cls-1" d="M1715.44,276.9V274l6-2.16a2.74,2.74,0,0,0,1.06-.66,1.73,1.73,0,0,0,.41-1.24V228.15a1.71,1.71,0,0,0-.43-1.24,2.52,2.52,0,0,0-1-.61l-6.18-2v-2.83h15.88l26.81,38.24,3,5h.62V228.31a1.4,1.4,0,0,0-.47-1.18,3.77,3.77,0,0,0-1.08-.6l-5.87-2.24v-2.83h20v2.83l-5.91,2.24a3.79,3.79,0,0,0-1,.6,1.41,1.41,0,0,0-.5,1.18v40l-1.16,9h-4.6l-29.17-41.45-3-5.06h-.62v39.16a1.66,1.66,0,0,0,.47,1.28,2.93,2.93,0,0,0,1,.62l5.83,2.16v2.9Z"/><path class="cls-1" d="M1781.82,276.9V274l6-1.89a2.23,2.23,0,0,0,1.06-.64,1.88,1.88,0,0,0,.41-1.3V228.11a1.63,1.63,0,0,0-.43-1.23,2.43,2.43,0,0,0-1-.62l-6-2v-2.83h43v13.77h-4.56l-1.51-7.62a1.89,1.89,0,0,0-.58-1.06,1.56,1.56,0,0,0-1.08-.37h-19.75V245.7h11.87a1.69,1.69,0,0,0,1.14-.33,2,2,0,0,0,.52-1.06l1.39-6.11H1816V258h-3.71l-1.39-6.07a2.22,2.22,0,0,0-.52-1.1,1.55,1.55,0,0,0-1.14-.37h-11.87v21.76h22.76a1.51,1.51,0,0,0,1-.38,1.82,1.82,0,0,0,.56-1.08l1.54-8.51h4.52V276.9Z"/><path class="cls-1" d="M954.55,381.28v-2.9l6.26-1.89a2.61,2.61,0,0,0,1.08-.66,1.83,1.83,0,0,0,.39-1.28V332.49a1.67,1.67,0,0,0-.43-1.23,2.43,2.43,0,0,0-1-.62l-6.26-2v-2.83h23.57v2.83l-6.22,2a2.5,2.5,0,0,0-1.06.64,1.61,1.61,0,0,0-.45,1.21v42.06a1.75,1.75,0,0,0,.45,1.3,2.5,2.5,0,0,0,1.06.64l6.22,1.89v2.9Z"/><path class="cls-1" d="M1026.22,375.33V362a1.75,1.75,0,0,0-.4-1.24,2.15,2.15,0,0,0-1-.58l-7.66-2v-2.82h23.46v2.82l-4.91,2a3.55,3.55,0,0,0-1,.6,1.49,1.49,0,0,0-.49,1.22v6.34q0,3.63,0,6.21c0,1.71.07,3.07.18,4.08a74.48,74.48,0,0,1-9.86,2.76,54,54,0,0,1-11.39,1.22,27.38,27.38,0,0,1-13.36-3.33,24.58,24.58,0,0,1-9.71-9.76q-3.65-6.44-3.64-15.75a31.37,31.37,0,0,1,3.6-15.41,25.66,25.66,0,0,1,9.83-10.09,27.93,27.93,0,0,1,14.12-3.57c2.43,0,4.71.11,6.86.32s4.3.54,6.44,1,4.35.95,6.64,1.57v14.15h-4.56l-1.43-8a1.43,1.43,0,0,0-.67-1,7.41,7.41,0,0,0-1.07-.6,32.94,32.94,0,0,0-12.9-2.71,17.41,17.41,0,0,0-9.35,2.5,16.36,16.36,0,0,0-6.32,7.51,31.08,31.08,0,0,0-2.26,12.72,35.79,35.79,0,0,0,2.32,13.38,20.47,20.47,0,0,0,6.72,9.08,17.28,17.28,0,0,0,10.67,3.29,23.25,23.25,0,0,0,4.79-.46,28,28,0,0,0,3.84-1.07C1024.83,375.91,1025.66,375.59,1026.22,375.33Z"/><path class="cls-1" d="M1047.67,381.28v-2.9l5.95-1.89a2.23,2.23,0,0,0,1.06-.64,1.88,1.88,0,0,0,.41-1.3V332.49a1.63,1.63,0,0,0-.43-1.23,2.43,2.43,0,0,0-1-.62l-5.95-2v-2.83h22.64a36,36,0,0,1,10.34,1.24,15.71,15.71,0,0,1,6.18,3.29,10.86,10.86,0,0,1,3,4.52,15.41,15.41,0,0,1,.83,5,14.37,14.37,0,0,1-2,7.75,15.88,15.88,0,0,1-5,5.12,18.65,18.65,0,0,1-5.91,2.55l-6.26,2.55-8.89-1.81.35-4.14a10.13,10.13,0,0,0,1.66.25c.88.09,1.81.16,2.8.21s1.77.08,2.34.08a13.85,13.85,0,0,0,6.88-1.53,9.94,9.94,0,0,0,4-4,11.24,11.24,0,0,0,1.33-5.37q0-5.81-3.32-8.41t-9.74-2.61h-5.76v44.07a1.79,1.79,0,0,0,.43,1.3,2.37,2.37,0,0,0,1,.64l6.11,1.89v2.9Zm53.9,0h-9.35a12.71,12.71,0,0,1-3.86-.44,4.91,4.91,0,0,1-2.17-1.53c-.59-.72-1.35-1.73-2.28-3L1070,357.16l7.85-2.44,14.56,19.33a10,10,0,0,0,1.37,1.49,4.51,4.51,0,0,0,1.8,1.1l6,1.74Z"/><path class="cls-1" d="M1103,381.28v-3.59l31.76-43.3,2.67-3.17v-.66h-23.76a1.48,1.48,0,0,0-1,.37A1.89,1.89,0,0,0,1112,332l-1.54,8.27H1106V325.84h42v3.44l-31.88,43.38-2.67,3.25v.65h27a1.69,1.69,0,0,0,1.07-.34,1.92,1.92,0,0,0,.6-1.12l1.54-9.32h4.52v15.5Z"/><path class="cls-1" d="M1166.64,381.28v-2.9l6.34-1.89a2.27,2.27,0,0,0,1.1-.64,1.87,1.87,0,0,0,.4-1.3V360.48l-15.72-28.1a6.35,6.35,0,0,0-.8-1.16,2.89,2.89,0,0,0-1.13-.85l-4.29-1.7v-2.83H1173v2.83l-6.38,2.28,11.13,19.17,2.12,4.76h.62l13.14-23.7-6.3-2.51v-2.83h17.35v2.83l-4.13,1.81a3.12,3.12,0,0,0-1.12.85,9.35,9.35,0,0,0-.86,1.16l-15.95,27.76v14.3a1.87,1.87,0,0,0,.4,1.3,2.23,2.23,0,0,0,1,.64l6.41,1.89v2.9Z"/><path class="cls-1" d="M1209.92,379.08l-.24-14.81h4.56l1.63,8a2.07,2.07,0,0,0,.71,1.09,12.89,12.89,0,0,0,1,.85,30.86,30.86,0,0,0,3.2,1.77,20.33,20.33,0,0,0,3.69,1.38,15.79,15.79,0,0,0,4,.52q6,0,9.47-2.63a8.56,8.56,0,0,0,3.44-7.19,8.12,8.12,0,0,0-2.05-5.68,15.21,15.21,0,0,0-5.49-3.68,69.3,69.3,0,0,0-6.55-2.37c-2.15-.66-4.25-1.41-6.31-2.27a17.13,17.13,0,0,1-7.35-5.45,13.7,13.7,0,0,1-2.66-8.5,13.41,13.41,0,0,1,2.49-8,17.08,17.08,0,0,1,6.74-5.53,21.7,21.7,0,0,1,9.51-2,46.88,46.88,0,0,1,6,.38q2.87.39,5.48,1c1.74.39,3.4.77,5,1.16v14.19h-4.52l-1.55-7.58a2.11,2.11,0,0,0-.69-1.06,8.72,8.72,0,0,0-1-.83,10.78,10.78,0,0,0-2.18-1.22,15.71,15.71,0,0,0-2.88-.91,16,16,0,0,0-3.4-.35c-3.66,0-6.5.78-8.52,2.32a7,7,0,0,0-3,5.69,10.31,10.31,0,0,0,1.64,5.62q1.64,2.61,6.32,4.35,3.09,1.13,6.06,2.13t6.49,2.47a23.91,23.91,0,0,1,5,2.82,13.86,13.86,0,0,1,3.9,4.47,13.68,13.68,0,0,1,1.53,6.78,15.83,15.83,0,0,1-2.2,8,16.12,16.12,0,0,1-7,6.21q-4.76,2.4-12.44,2.4a31.62,31.62,0,0,1-5.64-.55q-3-.54-6.07-1.35Z"/><path class="cls-1" d="M1258,381.28v-2.9l6-1.89a2.26,2.26,0,0,0,1.07-.64,1.87,1.87,0,0,0,.4-1.3V332.49a1.7,1.7,0,0,0-.4-1.23,2.32,2.32,0,0,0-1.07-.62l-6-2v-2.83h23v2.83l-5.92,2a2.4,2.4,0,0,0-1.08.64,1.68,1.68,0,0,0-.42,1.21v21.88l21.83-23.62-3.63-2.08v-2.83h17.92v2.83l-6,1.93a8.2,8.2,0,0,0-1.61.73,7.43,7.43,0,0,0-1.64,1.32l-15.92,16.7,18.66,24.93a14,14,0,0,0,1.28,1.43,3.88,3.88,0,0,0,1.47,1l5.52,1.82v2.74H1292v-2.74l3.13-1.78-16.23-22-5.37,3.09v16.74a1.87,1.87,0,0,0,.4,1.3,2.27,2.27,0,0,0,1.1.64l5.92,1.89v2.9Z"/><path class="cls-1" d="M1311.77,381.28v-2.9l3.94-1.74a3.64,3.64,0,0,0,2-2.12l15.73-40.29L1338,325h4.36l19.52,49.64a6.52,6.52,0,0,0,.75,1.26,2.57,2.57,0,0,0,1.1.87l4.1,1.62v2.9h-20.48v-2.9l6.49-2.24L1340,340.69l-1.51-5.22h-.66L1322.55,376l6.57,2.43v2.9Zm15.46-19.44,1.89-5.38h17.81l1.9,5.38Z"/><path class="cls-1" d="M955.36,483.46l-.23-14.81h4.56l1.62,8a2.16,2.16,0,0,0,.72,1.09,13,13,0,0,0,1,.85,34.27,34.27,0,0,0,3.21,1.77,20.33,20.33,0,0,0,3.69,1.38,15.73,15.73,0,0,0,4,.52q6,0,9.46-2.63a8.54,8.54,0,0,0,3.44-7.19,8.07,8.07,0,0,0-2.05-5.68,15.16,15.16,0,0,0-5.48-3.68c-2.22-.92-4.4-1.72-6.55-2.37s-4.26-1.41-6.32-2.27a17.09,17.09,0,0,1-7.34-5.45,13.64,13.64,0,0,1-2.67-8.5,13.41,13.41,0,0,1,2.49-8,17.11,17.11,0,0,1,6.75-5.53,21.66,21.66,0,0,1,9.5-2,46.88,46.88,0,0,1,6.05.38q2.88.39,5.49,1c1.74.39,3.39.77,5,1.16v14.19h-4.52l-1.54-7.58a2.07,2.07,0,0,0-.7-1.06,8.71,8.71,0,0,0-1-.83,10.88,10.88,0,0,0-2.19-1.22,15.85,15.85,0,0,0-6.28-1.26c-3.65,0-6.49.78-8.52,2.32a7,7,0,0,0-3,5.69,10.39,10.39,0,0,0,1.64,5.62c1.1,1.74,3.2,3.19,6.32,4.35q3.09,1.13,6.07,2.13t6.49,2.47a24.1,24.1,0,0,1,5,2.82,13.07,13.07,0,0,1,5.43,11.25,15.73,15.73,0,0,1-2.2,8,16.15,16.15,0,0,1-7,6.21q-4.75,2.4-12.45,2.4a31.71,31.71,0,0,1-5.64-.55q-3-.54-6.06-1.35Z"/><path class="cls-1" d="M1014,485.66v-2.9l6.37-1.89a2.27,2.27,0,0,0,1.1-.64,1.88,1.88,0,0,0,.41-1.3V434.86h-12.75a1.59,1.59,0,0,0-1.08.39,1.69,1.69,0,0,0-.58,1.08l-1.55,8.31h-4.52V430.22h49.07v14.42H1046l-1.54-8.31a1.93,1.93,0,0,0-.58-1.12,1.64,1.64,0,0,0-1-.35H1030v44.07a1.75,1.75,0,0,0,.45,1.3,2.5,2.5,0,0,0,1.06.64l6.38,1.89v2.9Z"/><path class="cls-1" d="M1085.07,487a26.5,26.5,0,0,1-11.8-2.34,17.36,17.36,0,0,1-7.13-6.07,14.4,14.4,0,0,1-2.4-7.91V436.87a1.6,1.6,0,0,0-.42-1.21,2.77,2.77,0,0,0-1.12-.64l-5.87-2v-2.83h23v2.83l-5.91,2a2.35,2.35,0,0,0-1,.64,1.68,1.68,0,0,0-.42,1.21v29.85a23.06,23.06,0,0,0,.52,4.66,14,14,0,0,0,2,4.81,11,11,0,0,0,4.29,3.73,15.88,15.88,0,0,0,7.32,1.45,16.39,16.39,0,0,0,7.44-1.49,12.84,12.84,0,0,0,4.6-3.77,14.33,14.33,0,0,0,2.35-4.77,17.46,17.46,0,0,0,.68-4.51V437.07a1.53,1.53,0,0,0-.43-1.2,2.69,2.69,0,0,0-1-.58l-5.91-2.24v-2.83h19.94v2.83l-5.92,2.24a3.06,3.06,0,0,0-1,.62,1.48,1.48,0,0,0-.42,1.16V469a15.64,15.64,0,0,1-2.11,8.31,17.3,17.3,0,0,1-5.39,5.57,24.7,24.7,0,0,1-7,3.13A25.82,25.82,0,0,1,1085.07,487Z"/><path class="cls-1" d="M1121.2,485.66v-2.9l6-1.89a2.37,2.37,0,0,0,1-.64,1.79,1.79,0,0,0,.43-1.3V436.87a1.63,1.63,0,0,0-.43-1.23,2.43,2.43,0,0,0-1-.62l-6-2v-2.83h25.35a35.08,35.08,0,0,1,7.09.78,29.43,29.43,0,0,1,7.44,2.63,23.32,23.32,0,0,1,11.45,13.06,32.75,32.75,0,0,1,1.8,11.48q0,9.48-3.77,15.56a23,23,0,0,1-10.1,9,33.17,33.17,0,0,1-14.07,2.92Zm15.53-50.8V481h9.86q9.69,0,14.22-5.68t4.52-16a30,30,0,0,0-2.61-13,19.64,19.64,0,0,0-7.36-8.45,20.64,20.64,0,0,0-11.17-3Z"/><path class="cls-1" d="M1182.68,485.66v-2.9l6-1.89a2.28,2.28,0,0,0,1.06-.64,1.87,1.87,0,0,0,.4-1.3V436.87a1.67,1.67,0,0,0-.42-1.23,2.43,2.43,0,0,0-1-.62l-6-2v-2.83h43V444h-4.56l-1.5-7.62a2,2,0,0,0-.58-1.06,1.6,1.6,0,0,0-1.09-.37h-19.74v19.52h11.86a1.65,1.65,0,0,0,1.14-.33,1.83,1.83,0,0,0,.52-1.06l1.39-6.11h3.71v19.76h-3.71l-1.39-6.07a2.06,2.06,0,0,0-.52-1.1,1.52,1.52,0,0,0-1.14-.37h-11.86v21.76H1221a1.49,1.49,0,0,0,1-.38,1.77,1.77,0,0,0,.56-1.08l1.55-8.51h4.52v14.69Z"/><path class="cls-1" d="M1237.47,485.66v-2.9l6-2.16a2.74,2.74,0,0,0,1.06-.66,1.73,1.73,0,0,0,.41-1.24V436.91a1.71,1.71,0,0,0-.43-1.24,2.52,2.52,0,0,0-1-.61l-6.18-2v-2.83h15.88l26.81,38.24,3,5h.62V437.07a1.41,1.41,0,0,0-.47-1.18,3.77,3.77,0,0,0-1.08-.6l-5.87-2.24v-2.83h20v2.83l-5.91,2.24a3.79,3.79,0,0,0-1,.6,1.41,1.41,0,0,0-.5,1.18v40l-1.16,9h-4.6l-29.18-41.45-3-5.06h-.62V478.7a1.69,1.69,0,0,0,.46,1.28,3.07,3.07,0,0,0,1,.62l5.83,2.16v2.9Z"/><path class="cls-1" d="M1349.14,473.29h2v5.14a50.29,50.29,0,0,1-5.37,3.81,35.55,35.55,0,0,1-6.88,3.29,23.59,23.59,0,0,1-7.89,1.33,29.51,29.51,0,0,1-14.39-3.38,23.34,23.34,0,0,1-9.56-9.84,33,33,0,0,1-3.4-15.58,31.53,31.53,0,0,1,3.57-15.35,25.57,25.57,0,0,1,9.8-10.11,27.87,27.87,0,0,1,14.14-3.57,46.7,46.7,0,0,1,6.34.48q3.48.48,6.78,1.14t5.54,1.24V446h-4.52l-1.51-7.93a1.59,1.59,0,0,0-.69-1,7.39,7.39,0,0,0-1.24-.74,23.9,23.9,0,0,0-5.25-1.91,26.39,26.39,0,0,0-6.15-.68,16.46,16.46,0,0,0-12.9,5.59q-5,5.58-5,17,0,12.09,5.34,18.26t15.41,6.17a16.58,16.58,0,0,0,6-1,22.53,22.53,0,0,0,5-2.75C1345.92,475.87,1347.51,474.63,1349.14,473.29Z"/><path class="cls-1" d="M1359,485.66v-2.9l6-1.89a2.23,2.23,0,0,0,1.06-.64,1.88,1.88,0,0,0,.41-1.3V436.87a1.71,1.71,0,0,0-.41-1.23,2.28,2.28,0,0,0-1.06-.62l-6-2v-2.83h23v2.83l-5.91,2a2.35,2.35,0,0,0-1.08.64,1.69,1.69,0,0,0-.43,1.21v21.88l21.84-23.62-3.64-2.08v-2.83h17.93v2.83l-6,1.93a8.14,8.14,0,0,0-1.6.73,7.43,7.43,0,0,0-1.64,1.32l-15.92,16.7,18.66,24.93a14,14,0,0,0,1.28,1.43,3.93,3.93,0,0,0,1.46,1l5.53,1.82v2.74H1393v-2.74l3.13-1.78-16.23-22-5.37,3.09v16.74a1.88,1.88,0,0,0,.41,1.3,2.27,2.27,0,0,0,1.1.64l5.91,1.89v2.9Z"/><path class="cls-1" d="M1417.06,485.66v-2.9l6.26-1.89a2.59,2.59,0,0,0,1.09-.66,1.88,1.88,0,0,0,.38-1.28V436.87a1.67,1.67,0,0,0-.42-1.23,2.47,2.47,0,0,0-1-.62l-6.26-2v-2.83h23.57v2.83l-6.22,2a2.56,2.56,0,0,0-1.06.64,1.61,1.61,0,0,0-.44,1.21v42.06a1.75,1.75,0,0,0,.44,1.3,2.56,2.56,0,0,0,1.06.64l6.22,1.89v2.9Z"/><path class="cls-1" d="M1449.21,485.66v-2.9l6-1.89a2.23,2.23,0,0,0,1.06-.64,1.83,1.83,0,0,0,.41-1.3V436.87a1.67,1.67,0,0,0-.42-1.23,2.53,2.53,0,0,0-1-.62l-6-2v-2.83h43V444h-4.56l-1.51-7.62a1.83,1.83,0,0,0-.58-1.06,1.56,1.56,0,0,0-1.08-.37h-19.74v19.52h11.86a1.69,1.69,0,0,0,1.14-.33,1.89,1.89,0,0,0,.52-1.06l1.39-6.11h3.71v19.76h-3.71l-1.39-6.07a2.14,2.14,0,0,0-.52-1.1,1.55,1.55,0,0,0-1.14-.37h-11.86v21.76h22.75a1.51,1.51,0,0,0,1-.38,1.82,1.82,0,0,0,.56-1.08l1.54-8.51h4.52v14.69Z"/><path class="cls-1" d="M622.24,479.7V466l12.37-7.31a11,11,0,0,0,3.6-4.2,66.51,66.51,0,0,0,3.1-6.21l40.91-96.46L642.54,248.41a31.21,31.21,0,0,0-2.83-5.84,11.71,11.71,0,0,0-3.45-3.84l-12.17-7.67V217.72h55.35v13.34l-13.81,10.78L690.47,306l6.39,21.56h.62l33.8-84.77L718,231.06V217.72h45.66v13.34l-11.44,7.67a12.69,12.69,0,0,0-3.3,3.75,38.12,38.12,0,0,0-3.3,6.3l-39.47,93.9,40.81,106a39,39,0,0,0,3,6.21,9.88,9.88,0,0,0,3.3,3.66l12,7.49v13.7H710V466l13.91-10.6L698.1,388.17l-6.5-21H691l-35.36,87.51L668.93,466v13.7Z"/><path class="cls-1" d="M780.24,479.7V466l16.7-8.95a7.6,7.6,0,0,0,2.88-3.11,13.65,13.65,0,0,0,1-6V249.14a12.18,12.18,0,0,0-1.13-5.84,7.42,7.42,0,0,0-2.78-2.92l-16.7-9.32V217.72h62.87v13.34l-16.59,9.32a7.55,7.55,0,0,0-2.84,3,11.76,11.76,0,0,0-1.18,5.75V447.91a12.69,12.69,0,0,0,1.18,6.12,7.58,7.58,0,0,0,2.84,3L843.11,466v13.7Z"/><path class="cls-1" d="M866,479.7V466l16.69-8.95a7.56,7.56,0,0,0,2.89-3.11,13.65,13.65,0,0,0,1-6V249.14a12.18,12.18,0,0,0-1.13-5.84,7.37,7.37,0,0,0-2.79-2.92L866,231.06V217.72h62.87v13.34l-16.6,9.32a7.6,7.6,0,0,0-2.83,3,11.76,11.76,0,0,0-1.18,5.75V447.91a12.69,12.69,0,0,0,1.18,6.12,7.63,7.63,0,0,0,2.83,3l16.6,8.95v13.7Z"/></svg>