<?xml version="1.0" encoding="UTF-8" standalone="no"?>
<svg
   xmlns:dc="http://purl.org/dc/elements/1.1/"
   xmlns:cc="http://creativecommons.org/ns#"
   xmlns:rdf="http://www.w3.org/1999/02/22-rdf-syntax-ns#"
   xmlns:svg="http://www.w3.org/2000/svg"
   xmlns="http://www.w3.org/2000/svg"
   xmlns:sodipodi="http://sodipodi.sourceforge.net/DTD/sodipodi-0.dtd"
   xmlns:inkscape="http://www.inkscape.org/namespaces/inkscape"
   width="210mm"
   height="60mm"
   viewBox="0 0 210 59.999999"
   version="1.1"
   id="svg839"
   inkscape:version="1.0.1 (3bc2e813f5, 2020-09-07)"
   sodipodi:docname="logo_wektorowe.svg">
  <defs
     id="defs833">
    <clipPath
       clipPathUnits="userSpaceOnUse"
       id="clipPath691">
      <path
         d="M 0,853.229 H 606.619 V 0 H 0 Z"
         transform="translate(-200.17474,-172.99781)"
         id="path691" />
    </clipPath>
    <clipPath
       clipPathUnits="userSpaceOnUse"
       id="clipPath693">
      <path
         d="M 0,853.229 H 606.619 V 0 H 0 Z"
         transform="translate(-179.68451,-80.306422)"
         id="path693" />
    </clipPath>
    <clipPath
       clipPathUnits="userSpaceOnUse"
       id="clipPath695">
      <path
         d="M 0,853.229 H 606.619 V 0 H 0 Z"
         transform="translate(-185.63659,-63.864997)"
         id="path695" />
    </clipPath>
    <clipPath
       clipPathUnits="userSpaceOnUse"
       id="clipPath697">
      <path
         d="M 0,853.229 H 606.619 V 0 H 0 Z"
         transform="translate(-169.41401,-76.438222)"
         id="path697" />
    </clipPath>
    <clipPath
       clipPathUnits="userSpaceOnUse"
       id="clipPath701">
      <path
         d="M 0,853.229 H 606.619 V 0 H 0 Z"
         transform="translate(-189.24889,-86.358097)"
         id="path701" />
    </clipPath>
    <clipPath
       clipPathUnits="userSpaceOnUse"
       id="clipPath703">
      <path
         d="M 0,853.229 H 606.619 V 0 H 0 Z"
         transform="translate(-199.46284,-72.164797)"
         id="path703" />
    </clipPath>
    <clipPath
       clipPathUnits="userSpaceOnUse"
       id="clipPath705">
      <path
         d="M 0,853.229 H 606.619 V 0 H 0 Z"
         transform="translate(-196.40231,-93.490897)"
         id="path705" />
    </clipPath>
    <clipPath
       clipPathUnits="userSpaceOnUse"
       id="clipPath707">
      <path
         d="M 0,853.229 H 606.619 V 0 H 0 Z"
         transform="translate(-209.88079,-82.350322)"
         id="path707" />
    </clipPath>
    <clipPath
       clipPathUnits="userSpaceOnUse"
       id="clipPath709">
      <path
         d="M 0,853.229 H 606.619 V 0 H 0 Z"
         transform="translate(-203.04192,-101.69801)"
         id="path709" />
    </clipPath>
    <clipPath
       clipPathUnits="userSpaceOnUse"
       id="clipPath711">
      <path
         d="M 0,853.229 H 606.619 V 0 H 0 Z"
         transform="translate(-218.30464,-93.164797)"
         id="path711" />
    </clipPath>
    <clipPath
       clipPathUnits="userSpaceOnUse"
       id="clipPath713">
      <path
         d="M 0,853.229 H 606.619 V 0 H 0 Z"
         transform="translate(-207.04482,-112.09451)"
         id="path713" />
    </clipPath>
    <clipPath
       clipPathUnits="userSpaceOnUse"
       id="clipPath715">
      <path
         d="M 0,853.229 H 606.619 V 0 H 0 Z"
         transform="translate(-223.63272,-106.5642)"
         id="path715" />
    </clipPath>
    <clipPath
       clipPathUnits="userSpaceOnUse"
       id="clipPath717">
      <path
         d="M 0,853.229 H 606.619 V 0 H 0 Z"
         transform="translate(-210.43549,-122.54861)"
         id="path717" />
    </clipPath>
    <clipPath
       clipPathUnits="userSpaceOnUse"
       id="clipPath719">
      <path
         d="M 0,853.229 H 606.619 V 0 H 0 Z"
         transform="translate(-227.51652,-118.8083)"
         id="path719" />
    </clipPath>
    <clipPath
       clipPathUnits="userSpaceOnUse"
       id="clipPath721">
      <path
         d="M 0,853.229 H 606.619 V 0 H 0 Z"
         transform="translate(-208.40524,-132.3015)"
         id="path721" />
    </clipPath>
    <clipPath
       clipPathUnits="userSpaceOnUse"
       id="clipPath723">
      <path
         d="M 0,853.229 H 606.619 V 0 H 0 Z"
         transform="translate(-225.79879,-134.1042)"
         id="path723" />
    </clipPath>
    <clipPath
       clipPathUnits="userSpaceOnUse"
       id="clipPath725">
      <path
         d="M 0,853.229 H 606.619 V 0 H 0 Z"
         transform="translate(-205.81542,-143.1638)"
         id="path725" />
    </clipPath>
    <clipPath
       clipPathUnits="userSpaceOnUse"
       id="clipPath727">
      <path
         d="M 0,853.229 H 606.619 V 0 H 0 Z"
         transform="translate(-222.36424,-148.8122)"
         id="path727" />
    </clipPath>
    <clipPath
       clipPathUnits="userSpaceOnUse"
       id="clipPath729">
      <path
         d="M 0,853.229 H 606.619 V 0 H 0 Z"
         transform="translate(-201.22264,-153.1823)"
         id="path729" />
    </clipPath>
    <clipPath
       clipPathUnits="userSpaceOnUse"
       id="clipPath731">
      <path
         d="M 0,853.229 H 606.619 V 0 H 0 Z"
         transform="translate(-216.76069,-161.2038)"
         id="path731" />
    </clipPath>
    <clipPath
       clipPathUnits="userSpaceOnUse"
       id="clipPath733">
      <path
         d="M 0,853.229 H 606.619 V 0 H 0 Z"
         transform="translate(-204.51649,-167.5847)"
         id="path733" />
    </clipPath>
    <clipPath
       clipPathUnits="userSpaceOnUse"
       id="clipPath735">
      <path
         d="M 0,853.229 H 606.619 V 0 H 0 Z"
         transform="translate(-134.03411,-80.115922)"
         id="path735" />
    </clipPath>
    <clipPath
       clipPathUnits="userSpaceOnUse"
       id="clipPath737">
      <path
         d="M 0,853.229 H 606.619 V 0 H 0 Z"
         transform="translate(-128.082,-63.673597)"
         id="path737" />
    </clipPath>
    <clipPath
       clipPathUnits="userSpaceOnUse"
       id="clipPath739">
      <path
         d="M 0,853.229 H 606.619 V 0 H 0 Z"
         transform="translate(-144.69911,-76.438222)"
         id="path739" />
    </clipPath>
    <clipPath
       clipPathUnits="userSpaceOnUse"
       id="clipPath743">
      <path
         d="M 0,853.229 H 606.619 V 0 H 0 Z"
         transform="translate(-124.4697,-86.166697)"
         id="path743" />
    </clipPath>
    <clipPath
       clipPathUnits="userSpaceOnUse"
       id="clipPath745">
      <path
         d="M 0,853.229 H 606.619 V 0 H 0 Z"
         transform="translate(-114.2558,-71.973397)"
         id="path745" />
    </clipPath>
    <clipPath
       clipPathUnits="userSpaceOnUse"
       id="clipPath747">
      <path
         d="M 0,853.229 H 606.619 V 0 H 0 Z"
         transform="translate(-117.31631,-93.300472)"
         id="path747" />
    </clipPath>
    <clipPath
       clipPathUnits="userSpaceOnUse"
       id="clipPath749">
      <path
         d="M 0,853.229 H 606.619 V 0 H 0 Z"
         transform="translate(-103.8378,-82.159897)"
         id="path749" />
    </clipPath>
    <clipPath
       clipPathUnits="userSpaceOnUse"
       id="clipPath751">
      <path
         d="M 0,853.229 H 606.619 V 0 H 0 Z"
         transform="translate(-110.67671,-101.50751)"
         id="path751" />
    </clipPath>
    <clipPath
       clipPathUnits="userSpaceOnUse"
       id="clipPath753">
      <path
         d="M 0,853.229 H 606.619 V 0 H 0 Z"
         transform="translate(-95.414002,-92.974297)"
         id="path753" />
    </clipPath>
    <clipPath
       clipPathUnits="userSpaceOnUse"
       id="clipPath755">
      <path
         d="M 0,853.229 H 606.619 V 0 H 0 Z"
         transform="translate(-106.67381,-111.90401)"
         id="path755" />
    </clipPath>
    <clipPath
       clipPathUnits="userSpaceOnUse"
       id="clipPath757">
      <path
         d="M 0,853.229 H 606.619 V 0 H 0 Z"
         transform="translate(-90.085905,-106.3737)"
         id="path757" />
    </clipPath>
    <clipPath
       clipPathUnits="userSpaceOnUse"
       id="clipPath759">
      <path
         d="M 0,853.229 H 606.619 V 0 H 0 Z"
         transform="translate(-103.28411,-122.35811)"
         id="path759" />
    </clipPath>
    <clipPath
       clipPathUnits="userSpaceOnUse"
       id="clipPath761">
      <path
         d="M 0,853.229 H 606.619 V 0 H 0 Z"
         transform="translate(-86.202105,-118.6179)"
         id="path761" />
    </clipPath>
    <clipPath
       clipPathUnits="userSpaceOnUse"
       id="clipPath763">
      <path
         d="M 0,853.229 H 606.619 V 0 H 0 Z"
         transform="translate(-105.3134,-132.1101)"
         id="path763" />
    </clipPath>
    <clipPath
       clipPathUnits="userSpaceOnUse"
       id="clipPath765">
      <path
         d="M 0,853.229 H 606.619 V 0 H 0 Z"
         transform="translate(-87.9198,-133.91381)"
         id="path765" />
    </clipPath>
    <clipPath
       clipPathUnits="userSpaceOnUse"
       id="clipPath767">
      <path
         d="M 0,853.229 H 606.619 V 0 H 0 Z"
         transform="translate(-107.90321,-142.9734)"
         id="path767" />
    </clipPath>
    <clipPath
       clipPathUnits="userSpaceOnUse"
       id="clipPath769">
      <path
         d="M 0,853.229 H 606.619 V 0 H 0 Z"
         transform="translate(-91.354402,-148.6208)"
         id="path769" />
    </clipPath>
    <clipPath
       clipPathUnits="userSpaceOnUse"
       id="clipPath771">
      <path
         d="M 0,853.229 H 606.619 V 0 H 0 Z"
         transform="translate(-112.94231,-151.4753)"
         id="path771" />
    </clipPath>
    <clipPath
       clipPathUnits="userSpaceOnUse"
       id="clipPath773">
      <path
         d="M 0,853.229 H 606.619 V 0 H 0 Z"
         transform="translate(-97.404202,-159.49781)"
         id="path773" />
    </clipPath>
    <clipPath
       clipPathUnits="userSpaceOnUse"
       id="clipPath775">
      <path
         d="M 0,853.229 H 606.619 V 0 H 0 Z"
         transform="translate(-118.05071,-160.9353)"
         id="path775" />
    </clipPath>
    <clipPath
       clipPathUnits="userSpaceOnUse"
       id="clipPath777">
      <path
         d="M 0,853.229 H 606.619 V 0 H 0 Z"
         transform="translate(-103.496,-170.62571)"
         id="path777" />
    </clipPath>
    <clipPath
       clipPathUnits="userSpaceOnUse"
       id="clipPath779">
      <path
         d="M 0,853.229 H 606.619 V 0 H 0 Z"
         transform="translate(-126.67181,-169.2165)"
         id="path779" />
    </clipPath>
    <clipPath
       clipPathUnits="userSpaceOnUse"
       id="clipPath781">
      <path
         d="M 0,853.229 H 606.619 V 0 H 0 Z"
         transform="translate(-113.4345,-180.6413)"
         id="path781" />
    </clipPath>
    <clipPath
       clipPathUnits="userSpaceOnUse"
       id="clipPath783">
      <path
         d="M 0,853.229 H 606.619 V 0 H 0 Z"
         transform="translate(-125.27141,-185.5193)"
         id="path783" />
    </clipPath>
    <clipPath
       clipPathUnits="userSpaceOnUse"
       id="clipPath785">
      <path
         d="M 0,853.229 H 606.619 V 0 H 0 Z"
         transform="translate(-352.24414,-162.11591)"
         id="path785" />
    </clipPath>
    <clipPath
       clipPathUnits="userSpaceOnUse"
       id="clipPath787">
      <path
         d="M 0,853.229 H 606.619 V 0 H 0 Z"
         transform="translate(-359.97454,-162.11591)"
         id="path787" />
    </clipPath>
    <clipPath
       clipPathUnits="userSpaceOnUse"
       id="clipPath789">
      <path
         d="M 0,853.229 H 606.619 V 0 H 0 Z"
         transform="translate(-373.54189,-159.9753)"
         id="path789" />
    </clipPath>
    <clipPath
       clipPathUnits="userSpaceOnUse"
       id="clipPath791">
      <path
         d="M 0,853.229 H 606.619 V 0 H 0 Z"
         transform="translate(-379.17574,-162.11591)"
         id="path791" />
    </clipPath>
    <clipPath
       clipPathUnits="userSpaceOnUse"
       id="clipPath793">
      <path
         d="M 0,853.229 H 606.619 V 0 H 0 Z"
         transform="translate(-399.27919,-162.4314)"
         id="path793" />
    </clipPath>
    <clipPath
       clipPathUnits="userSpaceOnUse"
       id="clipPath795">
      <path
         d="M 0,853.229 H 606.619 V 0 H 0 Z"
         transform="translate(-412.46382,-162.11591)"
         id="path795" />
    </clipPath>
    <clipPath
       clipPathUnits="userSpaceOnUse"
       id="clipPath797">
      <path
         d="M 0,853.229 H 606.619 V 0 H 0 Z"
         transform="translate(-426.34662,-162.11591)"
         id="path797" />
    </clipPath>
    <clipPath
       clipPathUnits="userSpaceOnUse"
       id="clipPath799">
      <path
         d="M 0,853.229 H 606.619 V 0 H 0 Z"
         transform="translate(-437.9081,-158.78)"
         id="path799" />
    </clipPath>
    <clipPath
       clipPathUnits="userSpaceOnUse"
       id="clipPath801">
      <path
         d="M 0,853.229 H 606.619 V 0 H 0 Z"
         transform="translate(-449.96585,-162.4314)"
         id="path801" />
    </clipPath>
    <clipPath
       clipPathUnits="userSpaceOnUse"
       id="clipPath803">
      <path
         d="M 0,853.229 H 606.619 V 0 H 0 Z"
         transform="translate(-462.78905,-159.9753)"
         id="path803" />
    </clipPath>
    <clipPath
       clipPathUnits="userSpaceOnUse"
       id="clipPath805">
      <path
         d="M 0,853.229 H 606.619 V 0 H 0 Z"
         transform="translate(-470.13575,-162.11591)"
         id="path805" />
    </clipPath>
    <clipPath
       clipPathUnits="userSpaceOnUse"
       id="clipPath807">
      <path
         d="M 0,853.229 H 606.619 V 0 H 0 Z"
         transform="translate(-490.8476,-162.0935)"
         id="path807" />
    </clipPath>
    <clipPath
       clipPathUnits="userSpaceOnUse"
       id="clipPath809">
      <path
         d="M 0,853.229 H 606.619 V 0 H 0 Z"
         transform="translate(-498.03702,-162.11591)"
         id="path809" />
    </clipPath>
    <clipPath
       clipPathUnits="userSpaceOnUse"
       id="clipPath811">
      <path
         d="M 0,853.229 H 606.619 V 0 H 0 Z"
         transform="translate(-504.3701,-154.2956)"
         id="path811" />
    </clipPath>
    <clipPath
       clipPathUnits="userSpaceOnUse"
       id="clipPath813">
      <path
         d="M 0,853.229 H 606.619 V 0 H 0 Z"
         transform="translate(-528.37302,-162.0935)"
         id="path813" />
    </clipPath>
    <clipPath
       clipPathUnits="userSpaceOnUse"
       id="clipPath815">
      <path
         d="M 0,853.229 H 606.619 V 0 H 0 Z"
         transform="translate(-540.9482,-159.9753)"
         id="path815" />
    </clipPath>
    <clipPath
       clipPathUnits="userSpaceOnUse"
       id="clipPath817">
      <path
         d="M 0,853.229 H 606.619 V 0 H 0 Z"
         transform="translate(-343.31929,-135.071)"
         id="path817" />
    </clipPath>
    <clipPath
       clipPathUnits="userSpaceOnUse"
       id="clipPath819">
      <path
         d="M 0,853.229 H 606.619 V 0 H 0 Z"
         transform="translate(-356.09764,-131.9831)"
         id="path819" />
    </clipPath>
    <clipPath
       clipPathUnits="userSpaceOnUse"
       id="clipPath821">
      <path
         d="M 0,853.229 H 606.619 V 0 H 0 Z"
         transform="translate(-361.64149,-135.0486)"
         id="path821" />
    </clipPath>
    <clipPath
       clipPathUnits="userSpaceOnUse"
       id="clipPath823">
      <path
         d="M 0,853.229 H 606.619 V 0 H 0 Z"
         transform="translate(-381.45214,-135.3864)"
         id="path823" />
    </clipPath>
    <clipPath
       clipPathUnits="userSpaceOnUse"
       id="clipPath825">
      <path
         d="M 0,853.229 H 606.619 V 0 H 0 Z"
         transform="translate(-394.63669,-135.071)"
         id="path825" />
    </clipPath>
    <clipPath
       clipPathUnits="userSpaceOnUse"
       id="clipPath827">
      <path
         d="M 0,853.229 H 606.619 V 0 H 0 Z"
         transform="translate(-405.0488,-134.778)"
         id="path827" />
    </clipPath>
    <clipPath
       clipPathUnits="userSpaceOnUse"
       id="clipPath829">
      <path
         d="M 0,853.229 H 606.619 V 0 H 0 Z"
         transform="translate(-419.60832,-135.071)"
         id="path829" />
    </clipPath>
    <clipPath
       clipPathUnits="userSpaceOnUse"
       id="clipPath831">
      <path
         d="M 0,853.229 H 606.619 V 0 H 0 Z"
         transform="translate(-425.15232,-127.2507)"
         id="path831" />
    </clipPath>
    <clipPath
       clipPathUnits="userSpaceOnUse"
       id="clipPath833">
      <path
         d="M 0,853.229 H 606.619 V 0 H 0 Z"
         transform="translate(-347.37589,-107.7321)"
         id="path833" />
    </clipPath>
    <clipPath
       clipPathUnits="userSpaceOnUse"
       id="clipPath835">
      <path
         d="M 0,853.229 H 606.619 V 0 H 0 Z"
         transform="translate(-360.42469,-105.3435)"
         id="path835" />
    </clipPath>
    <clipPath
       clipPathUnits="userSpaceOnUse"
       id="clipPath837">
      <path
         d="M 0,853.229 H 606.619 V 0 H 0 Z"
         transform="translate(-374.41992,-108.0251)"
         id="path837" />
    </clipPath>
    <clipPath
       clipPathUnits="userSpaceOnUse"
       id="clipPath839">
      <path
         d="M 0,853.229 H 606.619 V 0 H 0 Z"
         transform="translate(-379.49112,-108.0251)"
         id="path839" />
    </clipPath>
    <clipPath
       clipPathUnits="userSpaceOnUse"
       id="clipPath841">
      <path
         d="M 0,853.229 H 606.619 V 0 H 0 Z"
         transform="translate(-400.65335,-105.88451)"
         id="path841" />
    </clipPath>
    <clipPath
       clipPathUnits="userSpaceOnUse"
       id="clipPath843">
      <path
         d="M 0,853.229 H 606.619 V 0 H 0 Z"
         transform="translate(-416.22755,-108.0027)"
         id="path843" />
    </clipPath>
    <clipPath
       clipPathUnits="userSpaceOnUse"
       id="clipPath845">
      <path
         d="M 0,853.229 H 606.619 V 0 H 0 Z"
         transform="translate(-427.81055,-104.69021)"
         id="path845" />
    </clipPath>
    <clipPath
       clipPathUnits="userSpaceOnUse"
       id="clipPath847">
      <path
         d="M 0,853.229 H 606.619 V 0 H 0 Z"
         transform="translate(-442.28022,-108.0251)"
         id="path847" />
    </clipPath>
    <clipPath
       clipPathUnits="userSpaceOnUse"
       id="clipPath849">
      <path
         d="M 0,853.229 H 606.619 V 0 H 0 Z"
         transform="translate(-449.67185,-108.0251)"
         id="path849" />
    </clipPath>
    <clipPath
       clipPathUnits="userSpaceOnUse"
       id="clipPath851">
      <path
         d="M 0,853.229 H 606.619 V 0 H 0 Z"
         transform="translate(-463.2392,-105.88451)"
         id="path851" />
    </clipPath>
    <clipPath
       clipPathUnits="userSpaceOnUse"
       id="clipPath853">
      <path
         d="M 0,853.229 H 606.619 V 0 H 0 Z"
         transform="translate(-300.24514,-103.14911)"
         id="path853" />
    </clipPath>
    <clipPath
       clipPathUnits="userSpaceOnUse"
       id="clipPath855">
      <path
         d="M 0,853.229 H 606.619 V 0 H 0 Z"
         transform="translate(-291.32119,-156.6989)"
         id="path855" />
    </clipPath>
  </defs>
  <sodipodi:namedview
     id="base"
     pagecolor="#ffffff"
     bordercolor="#666666"
     borderopacity="1.0"
     inkscape:pageopacity="0.0"
     inkscape:pageshadow="2"
     inkscape:zoom="0.95577267"
     inkscape:cx="423.02283"
     inkscape:cy="348.49759"
     inkscape:document-units="mm"
     inkscape:current-layer="layer1"
     inkscape:document-rotation="0"
     showgrid="false"
     inkscape:window-width="1920"
     inkscape:window-height="991"
     inkscape:window-x="-9"
     inkscape:window-y="-9"
     inkscape:window-maximized="1"
     fit-margin-top="0"
     fit-margin-left="0"
     fit-margin-right="0"
     fit-margin-bottom="0" />
  <metadata
     id="metadata836">
    <rdf:RDF>
      <cc:Work
         rdf:about="">
        <dc:format>image/svg+xml</dc:format>
        <dc:type
           rdf:resource="http://purl.org/dc/dcmitype/StillImage" />
        <dc:title></dc:title>
      </cc:Work>
    </rdf:RDF>
  </metadata>
  <g
     inkscape:label="Warstwa 1"
     inkscape:groupmode="layer"
     id="layer1"
     transform="translate(-15.095889,-10.137877)">
    <g
       id="g1979"
       transform="translate(13.841332,5.2597061)">
      <path
         id="path690"
         d="m 0,0 c -0.522,-4.395 -1.45,-7.437 -1.45,-7.437 -3.595,-11.792 -6.431,-16.1 -7.629,-16.198 -0.124,-0.011 -0.537,-0.045 -0.631,0.136 -0.15,0.304 0.71,0.95 0.879,1.172 1.037,1.374 1.521,2.606 2.685,4.984 0.782,1.604 2.232,4.59 3.359,8.144 0.492,1.552 0.435,1.664 1.104,3.771 0.282,0.887 0.503,1.532 0.662,2.513 0.206,1.262 0.221,2.543 0.104,2.558 -0.127,0.015 -0.304,-1.506 -0.886,-3.872 -0.755,-3.054 -1.672,-5.44 -2.231,-6.878 -0.436,-1.123 -0.405,-0.951 -1.278,-3.133 -0.878,-2.194 -0.987,-2.57 -1.434,-3.448 -0.921,-1.799 -1.777,-2.81 -2.006,-3.077 -0.856,-0.984 -2.103,-2.111 -2.337,-1.926 -0.173,0.134 0.282,0.912 1.015,2.388 0.079,0.161 0.687,1.502 1.896,4.177 0.44,0.973 0.575,1.314 2.435,6.014 2.118,5.352 2.407,6.078 2.453,6.078 0.071,-0.023 -0.868,-2.81 -1.56,-4.763 -0.589,-1.661 -1.074,-2.923 -1.296,-3.49 -2.148,-5.552 -3.751,-8.568 -3.666,-8.613 0.143,0 3.152,5.217 5.755,12.002 0.218,0.563 0.462,1.202 0.767,2.081 1.652,4.773 2.989,10.719 2.261,10.986 -0.222,0.079 -0.575,-0.413 -1.284,-1.394 -2.537,-3.507 -3.25,-7.193 -3.371,-8.068 -0.018,-0.131 -0.055,-0.47 -0.172,-0.912 -0.049,-0.181 -0.173,-0.624 -0.646,-1.664 -0.342,-0.756 -0.59,-1.623 -0.549,-1.642 0.14,-0.049 3.595,8.606 3.989,8.467 0.41,-0.15 -2.925,-9.891 -4.341,-11.435 -0.106,-0.112 -0.564,-0.578 -0.85,-1.344 -0.228,-0.594 -0.228,-1.056 -0.259,-1.402 -0.052,-0.668 -0.394,-1.479 -1.078,-3.08 -0.909,-2.126 -1.363,-3.192 -1.566,-3.136 -0.233,0.068 -0.049,1.547 0.158,2.536 0.469,2.242 1.202,3.538 2.088,5.637 0.335,0.793 0.74,1.927 1.54,4.197 1.112,3.129 2.318,6.881 2.209,6.919 -0.207,0.071 -5.153,-13.579 -5.522,-13.452 -0.09,0.034 0.113,0.853 0.308,1.661 0.481,1.979 1.063,3.41 1.161,3.647 1.431,3.527 2.776,6.986 2.776,7.073 -0.045,0 -0.601,-1.296 -1.762,-3.79 -1.435,-3.081 -2.197,-4.707 -2.34,-4.658 -0.195,0.075 0.849,3.208 1.138,4.083 0.485,1.454 0.729,2.179 1.123,3.072 0.793,1.774 1.818,3.464 2.074,3.892 0.417,0.684 0.661,1.029 0.969,1.686 0.112,0.242 0.327,0.737 0.691,1.402 0.165,0.297 0.263,0.447 0.263,0.462 -0.226,0.128 -4.838,-5.66 -6.795,-13.41 -0.822,-3.249 -1.033,-6.273 -1.048,-6.498 -0.264,-4.049 0.226,-7.501 0.037,-7.524 -0.098,0 -0.417,0.857 -0.447,1.815 -0.023,0.694 0.109,1.442 -0.202,1.588 -0.14,0.068 -0.263,-0.034 -0.376,0.06 -0.169,0.147 -0.094,0.496 -0.053,0.777 0.113,0.804 -0.049,1.609 -0.153,1.623 -0.14,0.015 -0.44,-1.284 -0.647,-2.505 -0.338,-2.051 -0.259,-3.05 -0.387,-3.058 -0.255,-0.025 -1.251,3.783 -1.224,8.399 0.03,5.849 1.679,10.097 1.416,10.172 -0.188,0.053 -1.105,-2.171 -1.766,-4.774 -0.909,-3.557 -0.935,-6.242 -1.059,-6.242 -0.117,0.006 -0.101,2.565 0.03,5.261 0.146,3.025 0.35,4.388 0.143,4.433 -0.214,0.049 -0.894,-1.57 -1.228,-3.399 -0.413,-2.261 -0.144,-4.049 -0.342,-4.072 -0.056,-0.004 -0.128,0.127 -0.549,1.529 -0.458,1.521 -0.503,1.799 -0.597,1.799 -0.278,0 -0.601,-2.378 -0.661,-5.079 -0.09,-4.211 0.514,-7.11 0.432,-7.125 -0.094,0 -0.98,3.325 -1.232,7.813 -0.192,3.354 0.064,5.736 -0.192,5.765 -0.353,0.042 -1.066,-4.522 -1.251,-4.496 -0.15,0.027 0.012,2.994 0.714,6.465 0.991,4.891 2.502,8.072 2.438,8.095 -0.09,0 -2.648,-4.549 -3.97,-10.908 -1.495,-7.204 -0.541,-12.55 -0.635,-12.554 -0.121,0.045 -1.623,8.068 0.544,17.227 0.482,2.046 1.322,4.882 1.154,4.939 -0.158,0.053 -1.101,-2.238 -1.687,-3.997 -0.364,-1.107 -0.706,-2.348 -0.958,-3.024 -0.116,-0.327 -0.206,-0.492 -0.248,-0.815 -0.037,-0.281 -0.003,-0.435 -0.105,-0.507 -0.188,-0.128 -0.484,0.271 -0.762,0.196 -0.421,-0.113 -0.515,-1.244 -0.586,-2.206 -0.075,-1.009 -0.012,-1.423 -0.256,-1.543 -0.177,-0.083 -0.338,0.071 -1.288,0.451 -0.571,0.229 -0.777,0.345 -0.924,0.248 -0.267,-0.169 -0.022,-0.838 0.094,-1.585 0.289,-1.837 -0.688,-1.988 -0.364,-4.028 0.13,-0.811 0.01,-0.469 0.079,-2.347 0.078,-1.994 0.108,-2.108 -0.046,-2.299 -0.379,-0.481 -1.179,-0.447 -2.78,-0.372 -1.183,0.049 -1.776,0.075 -2.058,0.365 -0.556,0.574 -0.105,1.423 -0.135,3.748 -0.012,0.808 -0.124,1.139 -0.128,1.89 -0.008,2.551 0.323,9.097 0.106,9.124 -0.155,0 -0.958,-3.238 -1.146,-7.4 -0.15,-3.313 0.139,-6.096 -0.124,-6.123 -0.105,-0.011 -0.319,0.706 -0.74,2.137 -0.602,2.036 -0.59,2.296 -0.936,2.69 -0.551,0.62 -1.104,0.563 -2.805,1.082 -0.143,0.044 -1.139,0.439 -3.133,1.224 -2.25,0.887 -4.711,1.852 -4.711,1.953 0.016,0.034 0.571,-0.157 2.156,-0.59 1.192,-0.326 2.059,-0.543 2.911,-0.754 2.258,-0.564 4.166,-1.037 4.2,-0.939 0.068,0.236 -9.195,3.316 -9.162,3.403 0.016,0.045 2.633,-0.913 6.225,-1.266 1.363,-0.135 2.366,-0.135 2.381,-0.015 0.03,0.226 -3.752,0.879 -3.699,1.236 0.037,0.241 1.569,0.101 1.622,0.406 0.091,0.48 -3.681,1.424 -3.606,1.758 0.033,0.161 0.916,0.128 1.408,0.071 0.624,-0.068 0.774,-0.192 1.406,-0.248 0.551,-0.057 1.306,-0.049 1.322,0.064 0.022,0.154 -1.364,0.485 -3.193,0.924 -0.725,0.177 -1.428,0.447 -2.161,0.567 -0.69,0.109 -1.194,0.125 -1.416,0.496 -0.172,0.289 -0.146,0.736 0.072,0.89 0.203,0.147 0.518,-0.014 0.947,-0.187 0.59,-0.238 1.235,-0.331 1.837,-0.545 0.631,-0.234 1.81,-0.511 4.142,-1.068 3.205,-0.757 4.809,-1.141 4.835,-1.066 0.068,0.236 -10.439,3.464 -10.401,3.591 0.064,0.181 10.919,-3.065 10.953,-2.967 0,0.139 -10.912,3.512 -10.912,3.628 0.03,0.087 5.808,-1.435 5.845,-1.326 0,0.064 -1.453,0.425 -1.453,0.943 0.003,0.244 0.322,0.308 0.326,0.515 0,0.421 -1.333,0.747 -3.489,1.314 0,0 -2.547,0.673 -2.517,0.789 0.015,0.041 0.676,-0.165 1.465,0.064 0.311,0.091 0.559,0.162 0.597,0.319 0.097,0.44 -1.6,0.71 -2.145,1.863 -0.297,0.631 -0.086,1.176 0.211,2.382 0.589,2.397 0.814,4.53 0.728,4.56 -0.127,0 -1.544,-3.129 -2.194,-7.369 -0.706,-4.602 -1.412,-9.181 0.016,-13.156 0.179,-0.503 0.563,-1.471 0.142,-1.93 -0.698,-0.759 -3.163,0.342 -4.567,1.262 -0.771,0.503 -2.732,1.826 -3.644,4.312 -0.39,1.056 -0.188,1.619 -0.248,5.48 -0.06,3.888 0.143,6.744 -0.041,6.758 -0.225,0.023 -0.68,-4.132 -0.913,-4.109 -0.162,0.012 -0.146,2.156 -0.008,4.095 0.169,2.354 0.485,3.796 0.376,3.82 -0.128,0.025 -0.838,-1.774 -1.232,-4.024 -0.991,-5.634 -0.206,-10.897 -0.206,-10.897 0.104,-0.698 0.263,-1.562 -0.14,-1.817 -0.596,-0.384 -2.26,0.702 -3.042,2.171 -0.612,1.141 -0.563,2.276 -0.537,2.738 0.515,8.973 1.254,12.869 1.254,12.869 0.756,3.971 1.067,5.202 0.992,5.228 -0.146,0.039 -1.769,-4.3 -2.512,-9.649 -0.745,-5.342 -0.452,-9.455 -0.662,-9.459 -0.158,-0.003 -0.443,2.341 -0.41,4.868 0.034,2.577 0.388,4.351 0.271,4.373 -0.113,0 -0.56,-1.608 -0.83,-3.47 -0.444,-3.058 -0.218,-5.485 -0.285,-5.485 -0.041,0.015 -0.151,0.867 -0.211,2.287 0,0 -0.203,6.75 1.289,11.784 0.075,0.259 0.364,1.149 0.728,2.491 0.308,1.134 0.297,1.227 0.474,1.678 0.244,0.609 0.57,1.044 1.13,2.213 0.094,0.196 0.146,0.371 0.263,0.71 0.248,0.706 0.371,1.059 0.32,1.089 -0.177,0.098 -1.755,-2.742 -2.191,-2.557 -0.33,0.146 0.285,2.02 0.053,2.099 -0.24,0.078 -1.029,-1.566 -1.521,-2.836 -0.334,-0.852 -0.545,-1.578 -0.951,-2.99 -0.364,-1.27 -0.409,-1.529 -0.672,-2.464 -0.507,-1.8 -1.108,-3.918 -1.311,-3.877 -0.436,0.083 1.829,10.143 2.291,11.48 0.199,0.593 0.466,1.092 0.466,1.092 0.781,1.158 0.665,1.39 1.289,2.386 2.276,3.651 5.202,5.901 5.3,5.807 0.06,-0.06 -0.981,-0.946 -2.243,-2.828 -1.675,-2.498 -2.502,-4.805 -2.46,-4.824 0.052,0 0.368,0.767 1.134,1.868 1.164,1.671 2.502,2.877 2.641,2.76 0.12,-0.093 -0.65,-0.95 -1.202,-2.64 -0.259,-0.797 -0.485,-1.833 -0.32,-1.902 0.11,-0.033 0.335,0.32 1.143,1.623 0.743,1.214 1.107,1.823 1.217,1.992 1.213,1.866 4.022,5.334 4.191,5.21 0.117,-0.087 -1.235,-1.729 -2.23,-4.628 -0.331,-0.969 -0.537,-1.815 -0.425,-1.86 0.157,-0.052 0.687,1.54 1.979,3.069 1.337,1.582 3.129,2.667 3.366,2.43 0.304,-0.311 -2.186,-2.64 -4.481,-6.333 -2.243,-3.598 -3.212,-6.825 -3.922,-9.128 -0.972,-3.162 -1.285,-5.371 -1.806,-9.089 -0.8,-5.654 -0.515,-7.731 0.604,-8.501 0.289,-0.199 1.022,-0.582 1.278,-0.353 0.213,0.195 -0.084,0.714 -0.252,1.566 -0.109,0.571 -0.155,1.138 -0.241,2.269 -0.086,1.164 -0.173,3.316 -0.007,5.59 0.345,4.913 1.757,9.059 1.844,9.322 1.697,4.902 4.771,10.147 7.253,11.862 0.162,0.11 1.289,0.954 3.55,2.649 0.936,0.864 1.063,0.976 1.123,0.966 0,0 0.012,0 0.016,-0.004 0.045,-0.068 -0.793,-0.699 -1.139,-0.962 -0.643,-0.586 -1.66,-1.529 -3.294,-3.028 -1.007,-0.923 -0.958,-0.875 -1.611,-1.566 -0.775,-0.819 -2.51,-2.81 -4.256,-7.069 -1.642,-4 -2.048,-6.964 -2.138,-7.456 0.195,0.608 1.833,4.803 2.934,7.948 0.116,0.326 0.435,1.251 1.096,1.393 0.421,0.086 0.828,-0.176 0.925,-0.03 0.139,0.207 -0.556,0.902 -0.473,0.985 0.063,0.063 0.465,-0.338 0.642,-0.226 0.173,0.109 0.027,0.643 0.139,0.673 0.03,0.007 0.06,-0.02 0.071,-0.03 0.218,-0.196 0.924,-0.365 1.048,-0.218 0.154,0.187 -0.619,0.905 -0.488,1.089 0.203,0.266 2.219,-0.965 2.317,-0.812 0.102,0.151 -1.641,1.473 -1.528,1.642 0.086,0.135 1.115,-0.788 1.991,-0.458 0.521,0.195 0.446,0.623 1.284,1.348 0.409,0.35 0.763,0.545 1.308,0.827 0.965,0.496 1.566,0.799 1.678,0.665 0.222,-0.252 -1.487,-1.713 -3.065,-3.937 -2.055,-2.903 -2.922,-5.751 -2.806,-5.808 0.102,-0.037 0.838,1.654 2.491,3.959 1.788,2.492 3.711,4.388 3.861,4.272 0.169,-0.136 -2.137,-2.528 -4.188,-6.87 -1.138,-2.412 -1.878,-4.738 -2.129,-5.53 -0.407,-1.295 -0.669,-2.31 -1.18,-4.338 -1.033,-4.049 -1.274,-5.548 -1.409,-5.53 -0.206,0.031 0.011,3.513 0.624,7.149 0.507,2.982 1.048,4.691 0.935,4.732 -0.158,0.046 -1.334,-3.109 -2.172,-6.61 -0.769,-3.231 -0.905,-4.951 -0.83,-6.499 0.095,-1.987 0.486,-2.415 0.218,-3.944 -0.131,-0.74 -0.172,-1.217 0.068,-1.84 0.308,-0.793 0.939,-1.237 1.938,-1.931 0.872,-0.608 1.454,-1.015 1.773,-0.815 0.334,0.207 0.165,0.919 -0.026,2.129 0,0 -0.458,3.377 -0.507,6.492 -0.012,0.563 0.023,1.003 0.09,1.881 0.722,9.466 5.273,16.9 5.273,16.9 3.847,6.288 9.004,10.104 9.279,9.852 0.327,-0.3 -6.517,-5.732 -10.897,-15.979 0,0 -3.659,-8.567 -3.002,-18.312 0.031,-0.496 0.207,-0.879 0.362,-2.295 0.052,-0.481 0.071,-0.807 0.33,-1.078 0.435,-0.458 1.311,-0.518 1.532,-0.203 0.109,0.151 0.023,0.327 -0.116,0.909 -0.098,0.421 -0.135,0.857 -0.222,1.285 -1.979,9.744 2.637,20.461 2.637,20.461 0.929,2.156 2.768,6.318 6.672,10.235 1.843,1.856 3.748,3.25 3.786,3.25 0,-0.049 -1.904,-1.514 -3.959,-4.008 -0.992,-1.206 -1.631,-2.183 -2.348,-3.272 -1.912,-2.908 -2.903,-5.026 -2.795,-5.09 0.098,-0.06 0.751,1.773 2.408,2.337 1.368,0.462 2.746,-0.169 2.802,0.03 0.075,0.244 -2.058,1.134 -2.006,1.28 0.027,0.061 0.406,-0.082 0.503,0.065 0.11,0.161 -0.273,0.495 -0.161,0.634 0.192,0.237 1.041,-0.244 1.191,-0.034 0.124,0.177 -0.349,0.594 -0.274,0.722 0.263,0.469 7.591,-3.118 8.237,-3.407 -0.585,0.33 -6.371,3.309 -6.265,3.534 0.067,0.15 2.606,-0.954 2.75,-0.672 0.149,0.301 -2.547,1.803 -2.371,2.179 0.105,0.221 1.149,-0.053 1.879,-0.275 3.377,-1.014 5.818,-2.595 5.855,-2.532 0.057,0.083 -3.94,2.638 -3.805,2.874 0.121,0.218 3.535,-1.578 3.674,-1.333 0.037,0.067 -0.177,0.3 -2.103,1.701 -2.199,1.597 -3.039,2.108 -2.983,2.201 0.068,0.128 1.716,-0.744 5.138,-2.235 1.954,-0.852 3.403,-1.431 3.354,-1.562 -0.026,-0.086 -0.683,0.067 -0.875,0.116 -1.769,0.414 -2.907,1.228 -2.97,1.138 -0.102,-0.146 2.576,-2.046 2.377,-2.388 -0.12,-0.207 -1.266,0.296 -1.333,0.142 -0.079,-0.18 1.337,-1.047 1.517,-1.161 0.706,-0.424 0.871,-0.458 0.969,-0.672 0.323,-0.717 -0.834,-1.893 -1.097,-2.171 -1.006,-1.059 -1.825,-3.077 -3.456,-7.122 -1.878,-4.646 -1.633,-9.319 -1.265,-9.383 0.458,-0.082 0.848,6.941 5.356,14.743 2.701,4.673 5.763,7.693 5.969,7.543 0.27,-0.199 -4.966,-5.736 -8.166,-14.871 0,0 -1.822,-5.011 -2.731,-12.528 -0.217,-1.768 -0.237,-3.035 -0.199,-4.011 0.075,-1.668 0.251,-1.668 0.202,-2.949 -0.059,-1.656 -0.401,-2.52 0.132,-3.005 0.395,-0.361 1.164,-0.312 1.375,-0.289 0.364,0.026 0.623,0.135 1.078,0.052 0.372,-0.067 0.454,-0.183 0.575,-0.153 0.683,0.187 0.154,3.609 0.154,3.609 -0.759,4.917 1.386,14.267 2.648,18.289 2.81,8.914 8.616,14.808 8.824,15.015 -0.064,-0.098 -0.834,-1.247 -2.096,-3.344 -1.66,-2.761 -3.088,-5.131 -2.818,-5.33 0.428,-0.323 4.869,5.184 5.345,4.819 0.144,-0.105 -0.149,-0.63 -0.875,-2.335 -0.443,-1.038 -1.656,-3.877 -1.476,-3.967 0.131,-0.072 0.917,1.363 2.592,3.812 0.886,1.3 2.182,3.117 2.273,3.058 0.063,-0.041 -0.459,-0.902 -1.687,-3.167 -1.187,-2.19 -1.645,-3.133 -1.979,-4.413 -0.248,-0.954 -0.433,-2.115 -0.279,-2.168 0.249,-0.075 0.79,2.93 2.994,5.935 1.672,2.277 3.61,3.892 3.696,3.813 0.064,-0.061 -0.954,-0.995 -1.908,-2.701 -1.16,-2.077 -1.593,-4.151 -1.39,-4.234 0.199,-0.086 1.022,1.635 1.232,1.54 0.173,-0.074 -0.225,-1.322 -0.274,-1.468 -1.408,-4.436 -3.7,-12.693 -3.767,-13.045 0.142,0.266 1.848,5.006 1.848,5.006 2.494,6.931 3.046,8.381 4.338,10.259 1.601,2.329 3.155,3.599 3.355,3.752 -0.169,-0.161 -1.552,-1.54 -2.423,-3.65 -0.308,-0.744 -0.582,-1.65 -0.417,-1.736 0.266,-0.139 1.581,1.844 1.682,1.769 0.173,-0.12 -0.57,-1.746 -1.111,-3.174 -1.314,-3.448 -1.999,-7.23 -1.536,-7.407 0.462,-0.177 1.63,3.422 5.273,7.64 1.728,1.991 3.52,3.565 3.662,3.437 0.204,-0.181 -3.263,-3.373 -6.314,-8.673 -1.645,-2.862 -4.722,-8.407 -4.252,-15.033 0.143,-2.039 0.639,-4.368 0.781,-4.368 0.117,0.011 -0.225,1.72 0.023,3.647 0.132,1.018 0.315,2.163 0.522,3.305 0.21,1.143 0.447,2.288 0.692,3.31 0.168,0.976 1.318,5.533 4.12,10.157 0.139,0.229 0.679,1.119 1.472,2.235 0.485,0.687 0.924,1.299 1.548,2.013 0.792,0.913 2.039,2.16 2.22,2.014 0.24,-0.188 -1.473,-2.657 -1.304,-2.769 0.057,-0.041 0.384,0.233 0.932,0.875 0.346,0.406 0.725,0.853 1.139,1.191 0.657,0.534 1.505,0.879 1.607,0.74 C -1.131,5.777 -2.25,4.95 -3.32,3.576 -4.665,1.852 -5.383,-0.026 -5.187,-0.154 -4.819,-0.391 -1.428,5.465 -0.15,4.932 0.537,4.646 0.312,2.61 0,0 m -48.971,-38.036 c -0.01,0 -0.018,-0.004 -0.026,-0.004 0,0.012 0.004,0.019 0.008,0.03 0.008,-0.008 0.01,-0.018 0.018,-0.026 m 6.616,6.198 h 0.018 c -0.004,-0.004 -0.012,-0.008 -0.015,-0.012 0,0.004 -0.003,0.008 -0.003,0.012 m 30.696,-10.458 c 0.041,-0.108 0.078,-0.222 0.124,-0.334 0.041,-0.109 0.086,-0.222 0.131,-0.335 0.154,-0.1 0.06,-0.149 0.06,-0.153 1.026,-2.502 2.208,-4.072 2.029,-4.2 -0.121,-0.086 -0.639,0.624 -1.581,1.796 -0.073,-0.027 -0.147,-0.035 -0.222,-0.035 -0.061,0 -0.121,0.004 -0.181,0.012 -0.165,0.019 -0.327,0.067 -0.488,0.067 -1.026,0.012 -2.051,0.012 -3.076,0.016 -0.376,0.003 -0.301,0.007 -0.448,0.003 -0.815,-0.019 -1.21,-0.143 -1.735,-0.176 -0.124,-0.011 -0.244,-0.019 -0.391,-0.015 -0.034,0 -0.075,0.004 -0.116,0.007 1.423,-1.885 1.818,-3.47 1.818,-4.721 0,-0.293 -0.019,-1.953 -0.034,-3.239 -0.068,1.349 -0.327,3.43 -1.179,5.597 -0.361,0.913 -0.781,1.729 -1.221,2.446 -0.008,0 -0.018,0 -0.026,0.003 -0.004,0.008 -0.008,0.016 -0.012,0.02 -0.379,0.488 -0.615,0.559 -1.239,0.273 -1.308,-0.596 -2.682,-0.837 -4.11,-0.961 -1.664,-0.15 -3.226,-0.695 -4.631,-1.619 -0.131,-1.379 -0.245,-1.792 -0.338,-1.792 -0.121,0 -0.076,0.688 -0.251,1.736 -0.035,0.004 -0.061,-0.008 -0.087,-0.023 -0.041,0.008 -0.086,0.008 -0.132,0.004 -0.401,-0.09 -0.766,-0.267 -1.123,-0.458 -0.428,-0.185 -0.879,-0.256 -1.345,-0.256 -0.664,-0.004 -1.329,-0.004 -1.994,-0.004 -0.417,-0.596 -0.999,-1.292 -1.796,-1.957 -1.817,-1.517 -3.745,-2.028 -4.808,-2.219 0.865,0.244 2.991,0.98 4.44,3.049 0.252,0.365 0.455,0.726 0.616,1.068 -0.037,0 -0.075,0 -0.112,-0.004 -0.406,0.218 -0.643,0.638 -0.643,1.074 0,0.071 0.008,0.139 0.019,0.21 -1.085,0.079 -2.336,0.286 -3.67,0.726 -1.668,0.551 -2.047,0.668 -2.964,1.302 1.499,-0.72 2.514,-0.844 4.835,-1.37 0.702,-0.162 1.382,-0.286 2.028,-0.38 0.011,0.008 0.019,0.012 0.031,0.019 0.093,-0.004 0.172,0.03 0.228,0.101 h 0.026 c 0.031,0 0.057,0.004 0.083,0.012 0.124,-0.008 0.248,-0.008 0.342,0.098 h 0.004 l 0.045,-0.004 0.049,0.011 c 0.157,0 0.323,-0.027 0.45,0.105 h 0.053 l 0.053,0.012 c 0.093,-0.004 0.172,0.018 0.229,0.1 0.037,0 0.071,0.008 0.105,0.024 0.038,0.025 0.075,0.056 0.109,0.086 0.045,0.034 0.094,0.071 0.139,0.105 h 0.015 c 0.023,0 0.041,0.007 0.06,0.023 0.361,0.225 0.601,0.537 0.679,0.961 h 0.004 c 0.11,0.09 0.106,0.221 0.11,0.349 0.12,0.155 0.131,0.305 -0.012,0.451 -0.102,0.233 -0.184,0.466 -0.184,0.706 0,0.128 0.023,0.259 0.08,0.395 0.165,0.315 0.247,0.653 0.303,0.995 0.053,0.342 0.083,0.692 0.132,1.033 0.086,0.582 0.079,1.176 0.157,1.754 0.091,0.624 0.045,1.206 -0.142,1.796 -0.075,0.225 -0.143,0.458 -0.192,0.691 -0.079,0.387 -0.079,0.781 0.132,1.127 0.222,0.364 0.271,0.751 0.274,1.161 0.004,0.255 -0.068,0.522 0.105,0.751 0.102,0.042 0.203,0.079 0.305,0.124 1.066,0.477 2.088,1.021 2.915,1.871 0.029,0.045 0.063,0.086 0.112,0.112 0.064,0.012 0.102,0.049 0.112,0.109 0.065,0.011 0.102,0.049 0.114,0.113 0.153,0.079 0.248,0.21 0.315,0.364 0.169,0.139 0.285,0.312 0.346,0.519 0.139,0.154 0.232,0.33 0.224,0.547 0.26,0.673 0.08,1.259 -0.378,1.766 -0.47,0.515 -1.044,0.876 -1.728,1.022 -0.996,0.218 -1.969,0.154 -2.889,-0.334 -0.109,0.038 -0.117,0.195 -0.244,0.21 -0.673,0.597 -1.341,1.206 -2.062,1.75 -0.83,0.624 -1.701,1.158 -2.728,1.413 -1.021,0.259 -2.055,0.402 -3.109,0.386 -0.181,-0.003 -0.372,0.027 -0.537,-0.082 -0.496,0.019 -0.981,-0.038 -1.451,-0.218 -0.308,0.004 -0.597,-0.079 -0.871,-0.229 -0.327,-0.026 -0.612,-0.169 -0.89,-0.327 -0.275,-0.068 -0.523,-0.18 -0.748,-0.345 -1.401,-0.687 -2.546,-1.676 -3.433,-2.957 -0.999,-1.445 -1.349,-3.121 -1.676,-4.808 -0.108,-0.248 -0.195,-0.5 -0.202,-0.773 -0.091,-0.173 -0.136,-0.357 -0.136,-0.553 -0.097,-0.173 -0.128,-0.356 -0.105,-0.555 -0.139,-0.132 -0.086,-0.312 -0.112,-0.47 -0.143,-0.853 0.131,-1.093 0.909,-0.74 0.18,-0.117 0.09,-0.293 0.097,-0.447 0.015,-0.593 -0.056,-1.191 0.015,-1.784 -0.011,-0.083 -0.018,-0.166 -0.018,-0.248 0,-0.146 0.026,-0.286 0.101,-0.421 0.004,-0.034 0.008,-0.071 0.011,-0.105 -0.023,-0.188 0.042,-0.361 0.079,-0.541 0.214,-0.932 0.567,-1.818 0.936,-2.697 0.244,-0.575 0.176,-1.108 -0.135,-1.626 -0.121,-0.207 -0.26,-0.399 -0.437,-0.564 -0.067,-0.03 -0.124,-0.098 -0.078,-0.15 0.098,-0.105 0.214,-0.053 0.316,0.019 0.653,0.116 1.261,0.349 1.764,0.8 0.083,-0.105 0.024,-0.214 -0.003,-0.312 -0.293,-1.082 -0.917,-1.968 -1.653,-2.787 -0.06,0.019 -0.12,0.045 -0.184,0.045 -0.026,0 -0.052,-0.004 -0.079,-0.015 -0.06,-0.019 -0.12,-0.034 -0.184,-0.049 -0.123,0 -0.247,-0.015 -0.353,-0.071 -0.252,-0.034 -0.511,-0.045 -0.766,-0.056 -0.041,0.011 -0.072,0.011 -0.098,0.007 -0.049,-0.188 -0.071,-0.375 -0.143,-0.737 -0.252,-1.213 -0.586,-2.069 -0.623,-2.069 -0.038,0.008 0.255,1.105 0.184,2.092 -0.012,0.154 -0.037,0.372 -0.116,0.624 -0.031,0.101 -0.065,0.191 -0.102,0.274 -0.165,0.105 -0.364,0.143 -0.594,0.113 -0.349,-0.045 -0.638,0.093 -0.927,0.27 -0.158,0.098 -0.282,0.248 -0.451,0.331 h -0.004 c -0.019,0.019 -0.038,0.041 -0.056,0.06 -0.019,0.014 -0.041,0.03 -0.064,0.045 -0.007,0.004 -0.011,0.007 -0.019,0.011 -0.019,0.011 -0.029,0.027 -0.049,0.034 -0.011,0.003 -0.026,0.007 -0.037,0.011 -0.969,1.022 -1.961,2.017 -3.031,2.934 -0.504,0.428 -0.989,0.887 -1.616,1.141 -0.038,0.016 -0.071,0.027 -0.109,0.027 h -0.015 c -0.158,0.042 -0.296,0.109 -0.421,0.199 -3.373,-3.234 -5.041,-5.931 -5.123,-5.863 -0.064,0.049 0.913,1.412 4.7,6.292 -0.073,0.082 -0.166,0.142 -0.248,0.218 -0.042,0.033 -0.087,0.059 -0.114,0.108 0,0.004 0.004,0.008 0.004,0.012 -0.169,0.228 -0.303,0.488 -0.552,0.653 -0.038,0.037 -0.075,0.075 -0.113,0.112 -0.037,0.049 -0.075,0.095 -0.108,0.14 h -0.004 c 0.004,0.03 -0.004,0.053 -0.026,0.075 -0.106,0.151 -0.204,0.304 -0.32,0.446 -0.549,0.669 -1.029,1.391 -1.645,2.003 -0.725,0.992 -1.668,1.75 -2.674,2.43 -0.034,0.038 -0.069,0.067 -0.106,0.094 -0.026,0.015 -0.06,0.026 -0.089,0.026 -0.046,0.034 -0.091,0.071 -0.136,0.106 -0.037,0.034 -0.075,0.067 -0.113,0.101 l -0.003,0.004 c -0.549,0.44 -1.146,0.792 -1.774,1.108 -0.277,0.244 -0.668,0.345 -0.879,0.68 -0.059,0.007 -0.094,0.041 -0.116,0.094 -0.034,0.037 -0.063,0.075 -0.09,0.116 -1.469,0.451 -2.813,0.541 -3.891,0.503 1.085,0.215 2.543,0.368 4.229,0.162 0.248,0.665 0.519,1.326 0.657,2.029 0.004,0.097 0.015,0.191 0.034,0.289 0.03,0.071 0.049,0.146 0.06,0.225 0.016,0.041 0.03,0.086 0.045,0.128 0.02,0.045 0.038,0.09 0.049,0.135 0.038,0.116 0.109,0.214 0.177,0.311 0.165,0.376 0.248,0.779 0.364,1.169 0.034,0.123 0.075,0.244 0.113,0.368 0.015,0.049 0.029,0.101 0.037,0.15 0.019,0.158 0.049,0.315 0.11,0.462 0.277,0.966 0.544,1.934 0.852,2.896 0.019,0.075 0.045,0.147 0.068,0.222 0.011,0.124 0.011,0.252 0.048,0.372 0.015,0.049 0.031,0.098 0.041,0.147 0.023,0.101 0.046,0.199 0.069,0.296 0.014,0.056 0.029,0.109 0.045,0.162 0.037,0.112 0.067,0.225 0.093,0.337 0.011,0.035 0.023,0.069 0.037,0.102 l 0.004,0.004 c 0.012,0.045 0.023,0.086 0.031,0.128 0.045,0.131 0.101,0.255 0.195,0.368 0.185,0.495 0.35,0.995 0.503,1.502 0.053,0.169 0.101,0.335 0.15,0.504 0.185,0.645 0.358,1.296 0.523,1.949 0.004,0.139 0.026,0.274 0.06,0.405 0.019,0.046 0.034,0.091 0.045,0.14 0.004,0.007 0.004,0.011 0.007,0.019 0.008,0.018 0.016,0.041 0.02,0.059 0.051,0.128 0.12,0.252 0.213,0.368 0.252,0.388 0.308,0.861 0.575,1.247 0,0 0.207,0.324 0.496,0.639 0.819,0.905 2.768,2.111 3.193,2.37 2.013,-1.213 4.083,-2.433 5.574,-3.267 2.228,-1.244 4.83,-2.682 8.478,-4.053 1.31,-0.492 0.781,-0.234 6.607,-2.171 4.196,-1.394 4.733,-1.612 6.077,-1.837 2.84,-0.47 2.833,0.033 6.402,-0.293 2.084,-0.188 2.817,-0.504 3.955,-0.759 0.012,-0.026 0.022,-0.056 0.034,-0.091 0.056,-0.27 0.127,-0.537 0.267,-0.785 0.214,-1.07 0.578,-1.423 0.885,-1.536 0.256,-0.094 0.482,-0.026 0.865,-0.187 0.353,-0.151 0.593,-0.391 0.74,-0.572 0.094,-0.116 0.226,-0.112 0.356,-0.108 l 0.049,-0.008 h 0.045 c -0.003,-0.004 -0.003,-0.008 -0.007,-0.014 0.353,-0.437 0.939,-0.346 1.367,-0.613 h 0.06 c 0.744,-1.025 1.491,-2.048 2.235,-3.073 0.098,-0.011 0.196,-0.023 0.297,-0.033 0.395,-0.895 0.823,-1.928 1.243,-3.092 0.267,-0.732 0.602,-1.717 0.947,-2.889 0.323,-1.108 0.676,-2.464 0.996,-4.034 m -4.113,-12.85 c -0.008,0.003 -0.004,0.68 0.003,1.521 0.015,-0.304 0.019,-0.567 0.019,-0.789 0,-0.465 -0.022,-0.732 -0.022,-0.732 m -34.051,-25.776 c -2.427,-1.461 -4.854,-2.922 -7.28,-4.384 2.371,1.815 4.8,3.776 7.261,5.898 1.375,1.183 2.696,2.363 3.97,3.531 -1.318,-1.683 -2.637,-3.365 -3.951,-5.045 m -7.442,-5.664 0.087,0.594 c -0.026,-0.196 -0.026,-0.406 -0.087,-0.594 m -2.625,28.018 c 0.068,-0.004 0.105,-0.041 0.105,-0.113 -0.007,0.064 -0.041,0.102 -0.105,0.113 m -5.431,4.32 c 0.033,0 0.055,-0.008 0.075,-0.03 -0.02,0.014 -0.042,0.026 -0.075,0.03 m 2.663,-2.1 v 0.003 c 0.022,-0.003 0.045,-0.01 0.059,-0.026 -0.018,0.012 -0.037,0.023 -0.059,0.023 M 1.19,6.295 C 0.706,6.81 0.232,6.656 -0.887,7.163 -2.002,7.674 -2.622,8.32 -3.189,8.838 c -2.017,1.841 -3.148,1.818 -8.2,5.259 -2.133,1.45 -2.254,1.675 -3.568,2.404 -2.025,1.127 -3.667,1.668 -4.906,2.081 -10.522,3.501 -10.16,3.779 -13.444,4.437 -2.137,0.423 -3.377,0.521 -6.029,1.228 -0.792,0.214 -2.088,0.578 -4.425,1.187 -1.772,0.465 -2.437,0.624 -3.354,0.744 -1.698,0.221 -2.01,0.029 -3.253,0.198 -2.352,0.323 -3.035,1.263 -4.248,1.488 -2.72,0.507 -5.564,-3.043 -7.366,-5.345 -1.931,-2.46 -6.702,-8.715 -7.825,-17.655 -0.77,-6.107 0.684,-9.383 0.65,-11.502 -0.003,-0.112 -0.015,-0.492 0.225,-0.799 0.346,-0.452 0.989,-0.444 1.481,-0.519 0.514,-0.075 0.834,-0.236 1.408,-0.612 0.203,-2.46 -0.15,-3.385 -0.462,-3.786 -0.045,-0.057 -0.289,-0.417 -0.522,-0.654 -0.451,-0.455 -0.834,-0.973 -1.213,-1.495 -0.95,-1.311 -1.754,-2.724 -2.716,-4.023 -0.037,-0.037 -0.067,-0.082 -0.102,-0.12 -0.004,-0.034 -0.014,-0.068 -0.026,-0.102 -0.03,-0.033 -0.06,-0.071 -0.09,-0.105 l -0.004,-0.003 c -0.364,-0.312 -0.59,-0.718 -0.773,-1.154 -0.016,-0.083 -0.042,-0.158 -0.071,-0.236 -0.046,-0.065 -0.087,-0.132 -0.114,-0.211 -0.018,-0.026 -0.037,-0.057 -0.059,-0.086 -0.027,-0.038 -0.053,-0.083 -0.076,-0.124 -0.011,-0.019 -0.019,-0.038 -0.03,-0.053 -0.079,-0.079 -0.132,-0.176 -0.165,-0.285 -0.022,-0.034 -0.045,-0.071 -0.071,-0.105 -0.026,-0.041 -0.053,-0.083 -0.075,-0.124 -0.023,-0.041 -0.042,-0.086 -0.061,-0.128 -0.142,-0.173 -0.236,-0.375 -0.311,-0.586 -0.023,-0.037 -0.045,-0.075 -0.072,-0.109 -0.026,-0.038 -0.056,-0.079 -0.079,-0.12 -0.056,-0.079 -0.12,-0.146 -0.183,-0.219 -0.038,-0.055 -0.076,-0.112 -0.114,-0.171 -0.225,-0.366 -0.39,-0.759 -0.506,-1.176 -0.004,-0.034 -0.012,-0.069 -0.019,-0.102 -0.03,-0.042 -0.061,-0.083 -0.094,-0.124 0,-0.03 -0.008,-0.06 -0.015,-0.091 -0.139,-0.074 -0.21,-0.187 -0.204,-0.344 -0.041,-0.177 -0.082,-0.354 -0.124,-0.531 -0.055,-0.022 -0.097,-0.063 -0.112,-0.124 -0.225,-0.217 -0.307,-0.506 -0.421,-0.785 -0.161,-0.439 -0.462,-0.83 -0.466,-1.325 -0.169,-0.102 -0.172,-0.286 -0.224,-0.447 l 0.033,-0.004 v -0.004 c -0.015,0.004 -0.033,0.008 -0.033,0.008 -0.075,-0.057 -0.095,-0.136 -0.091,-0.226 -0.191,-0.425 -0.304,-0.879 -0.424,-1.326 -0.136,-0.36 -0.266,-0.717 -0.26,-1.104 -0.266,-0.251 -0.221,-0.571 -0.203,-0.886 -0.041,-0.075 -0.082,-0.151 -0.123,-0.222 -0.095,-0.146 -0.117,-0.315 -0.136,-0.484 -0.003,-0.162 0.004,-0.327 -0.052,-0.486 -0.015,-0.051 -0.031,-0.104 -0.037,-0.161 -0.008,-0.06 -0.012,-0.12 -0.012,-0.18 -0.015,-0.09 -0.03,-0.176 -0.094,-0.247 0.008,-0.076 0.015,-0.151 0.019,-0.23 -0.037,-0.646 -0.09,-1.292 -0.105,-1.938 -0.008,-0.414 0.011,-0.838 0.304,-1.184 0.09,-0.184 0.244,-0.304 0.398,-0.424 0.086,-0.184 0.196,-0.349 0.379,-0.451 0.238,-0.368 0.606,-0.646 0.816,-1.014 0.3,-0.518 0.657,-0.999 0.946,-1.525 0.016,-0.034 0.026,-0.067 0.038,-0.102 0.353,-0.631 0.706,-1.261 1.056,-1.892 0.022,-0.087 0.029,-0.181 0.127,-0.222 0.019,-0.177 0.091,-0.319 0.244,-0.413 0.034,-0.117 0.072,-0.23 0.109,-0.342 0.083,-0.124 0.03,-0.29 0.12,-0.41 0.072,-0.153 0.241,-0.228 0.316,-0.383 0.146,-0.293 0.297,-0.594 0.447,-0.886 0.507,-1 0.954,-2.033 1.528,-2.998 0.366,-0.823 0.789,-1.615 1.342,-2.329 0.007,-0.09 0.037,-0.165 0.124,-0.207 l 0.003,-0.007 c 0.034,-0.042 0.071,-0.079 0.102,-0.124 0.266,-0.559 0.755,-0.946 1.116,-1.438 -0.049,-0.132 -0.034,-0.248 0.098,-0.331 0.097,-0.252 0.221,-0.488 0.427,-0.672 0.045,-0.136 0.106,-0.252 0.244,-0.315 l 0.004,-0.004 c 0.041,-0.106 0.113,-0.177 0.214,-0.222 v -0.004 c 0.045,-0.03 0.083,-0.063 0.106,-0.112 -0.035,0.037 -0.072,0.074 -0.106,0.112 0.004,-0.063 0.038,-0.105 0.106,-0.116 0.007,-0.065 0.041,-0.102 0.105,-0.117 0.007,-0.064 0.045,-0.101 0.109,-0.113 0.007,-0.063 0.044,-0.101 0.109,-0.112 0.011,-0.064 0.049,-0.098 0.112,-0.109 0.012,-0.064 0.049,-0.102 0.113,-0.109 0.015,-0.06 0.048,-0.097 0.117,-0.109 0.128,-0.214 0.326,-0.342 0.537,-0.458 0.011,-0.065 0.053,-0.094 0.112,-0.106 0.012,-0.063 0.045,-0.105 0.109,-0.112 0.019,-0.068 0.064,-0.095 0.131,-0.095 0.11,-0.134 0.226,-0.251 0.384,-0.322 0.029,0.068 0.068,0.135 0.102,0.202 0.716,1.387 1.528,2.461 2.216,3.239 -0.507,-0.767 -1.259,-2.122 -1.571,-3.975 -0.004,-0.011 -0.004,-0.022 -0.004,-0.033 0.072,-0.11 0.173,-0.185 0.297,-0.237 v 0.003 c 0.027,0 0.045,-0.006 0.065,-0.018 -0.02,0.008 -0.038,0.015 -0.065,0.015 0.019,-0.064 0.065,-0.086 0.128,-0.086 l 0.004,-0.004 c 0.075,-0.117 0.173,-0.202 0.308,-0.244 0.018,-0.064 0.071,-0.086 0.131,-0.09 0.011,-0.061 0.049,-0.094 0.117,-0.098 l 0.007,-0.008 c 0.03,-0.094 0.109,-0.12 0.196,-0.135 0.014,-0.064 0.053,-0.097 0.124,-0.093 0.082,-0.11 0.176,-0.203 0.311,-0.242 0.019,-0.067 0.068,-0.089 0.132,-0.089 0.071,-0.124 0.169,-0.214 0.312,-0.248 0.018,-0.064 0.063,-0.09 0.128,-0.09 0.116,-0.147 0.258,-0.267 0.435,-0.338 0.015,-0.065 0.056,-0.098 0.124,-0.094 l 0.004,-0.004 c 0.109,-0.154 0.244,-0.286 0.432,-0.342 0.01,-0.064 0.052,-0.097 0.116,-0.101 0.049,-0.027 0.083,-0.065 0.113,-0.11 h 0.003 c 0.147,-0.191 0.313,-0.356 0.53,-0.465 0.011,-0.064 0.045,-0.102 0.105,-0.113 0.046,-0.135 0.132,-0.233 0.248,-0.307 0.008,-0.091 0.022,-0.173 0.105,-0.23 0,-0.173 0.023,-0.345 0.083,-0.507 0.003,-0.03 0.015,-0.056 0.03,-0.083 l -0.023,-0.03 0.023,-0.033 c 0.008,-1.139 0.128,-2.28 0.068,-3.419 -0.101,-1.976 0.026,-3.937 0.267,-5.894 0.055,-0.446 0.052,-0.909 0.206,-1.337 0.004,-0.582 0.087,-1.149 0.237,-1.712 v -0.004 l -0.023,-0.019 0.015,-0.026 c 0.015,-0.533 0.098,-1.052 0.222,-1.567 0,0 0,0.004 -0.004,0.004 0.03,-0.225 -0.03,-0.462 0.109,-0.669 0.007,-0.541 0.082,-1.074 0.233,-1.592 l -0.023,-0.03 0.023,-0.026 c -0.004,-0.071 -0.015,-0.147 -0.008,-0.218 0.113,-0.872 0.226,-1.743 0.35,-2.615 0.435,0.064 0.893,0.154 1.371,0.274 1.727,0.436 3.068,1.123 3.985,1.691 -1.721,-1.123 -3.436,-2.246 -5.157,-3.366 l -0.004,-0.003 -0.004,-0.015 -0.116,-0.406 0.112,0.406 c -0.635,-1.029 -0.89,-1.935 -0.991,-2.626 -0.113,-0.771 -0.026,-1.172 -0.09,-2.126 -0.079,-1.119 -0.301,-2.048 -0.512,-2.728 l -0.014,-1.13 11.077,5.616 -10.457,-7.468 c 1.829,0.022 6.731,-0.338 9.887,-1.709 0.987,-0.428 2.061,-0.894 3.121,-1.942 1.074,-1.063 1.202,-2.055 1.87,-2.077 0.748,-0.03 0.868,1.142 2.404,2.377 1.029,0.831 2.051,1.176 2.682,1.387 0.451,0.153 1.792,0.593 3.512,0.556 0.56,-0.012 1.992,-0.091 3.231,0.097 0.27,0.041 0.454,0.083 0.649,0.158 0.834,0.315 0.989,0.758 2.221,1.247 0.777,0.308 1.468,0.432 1.941,0.485 0.053,0.515 0.124,1.292 0.188,2.234 0.15,2.24 0.098,3.858 0.154,4.37 0.289,2.561 0.702,5.104 1.266,7.617 l 0.03,0.311 c -2.062,-1.693 -3.993,-3.425 -5.8,-5.172 1.815,1.991 3.678,4.159 5.548,6.517 0.147,0.185 0.293,0.372 0.44,0.557 l 0.465,4.675 c -1.156,-1.363 -2.317,-2.411 -3.297,-3.192 0.969,1.187 2.276,3.072 3.222,5.653 0.181,0.489 0.335,0.965 0.459,1.428 l 0.454,4.56 c -0.014,0.056 -0.033,0.124 -0.049,0.203 0.027,0.063 0.053,0.128 0.087,0.183 l 0.023,0.215 0.135,0.011 c 0.139,0.169 0.319,0.301 0.522,0.421 0.372,0.214 0.767,0.364 1.168,0.503 0.195,0.425 0.383,0.925 0.529,1.491 0.324,1.24 0.324,2.318 0.264,3.051 0.143,-1.391 0.285,-2.773 0.428,-4.158 1.344,0.417 2.701,0.799 4.068,1.127 0.417,0.097 0.812,0.24 1.097,0.586 v 0.018 c 0,0.857 0.522,0.853 0.698,0.946 1.563,0.838 2.938,1.019 4.414,1.998 1.308,0.869 2.659,1.662 4.079,2.333 1.048,0.497 2.081,1.018 3.118,1.544 0.263,0.06 0.522,0.124 0.688,0.369 0.938,1.476 1.003,2.28 0.852,2.749 -0.011,0.034 -0.026,0.072 -0.323,0.954 -0.109,0.319 -0.218,0.635 -0.327,0.954 0.022,0.384 -0.169,0.695 -0.326,1.018 -0.053,0.143 -0.106,0.282 -0.154,0.424 -0.083,0.23 -0.143,0.466 -0.293,0.669 0,0.034 -0.004,0.071 -0.015,0.106 -0.12,0.307 -0.181,0.645 -0.429,0.889 0.016,0.293 -0.173,0.515 -0.259,0.771 -0.075,0.199 -0.131,0.405 -0.282,0.563 -0.206,0.692 -0.567,1.308 -0.887,1.946 -0.202,0.406 -0.364,0.837 -0.671,1.187 -0.08,0.199 -0.124,0.417 -0.338,0.525 -0.008,0.155 -0.072,0.271 -0.222,0.331 -0.004,0.162 -0.075,0.275 -0.226,0.334 -0.034,0.207 -0.138,0.361 -0.334,0.444 -0.188,0.387 -0.41,0.747 -0.774,0.999 -0.007,0.244 -0.206,0.376 -0.338,0.549 -0.03,0.041 -0.063,0.079 -0.098,0.12 -0.018,0.059 -0.052,0.097 -0.116,0.105 -0.293,0.642 -0.74,1.187 -1.119,1.773 -0.59,0.781 -1.1,1.611 -1.562,2.467 -0.069,0.125 -0.132,0.249 -0.196,0.373 l -0.188,0.368 c -0.105,0.206 -0.206,0.421 -0.308,0.631 -0.236,0.5 -0.376,1.018 -0.425,1.578 -0.003,0.063 -0.01,0.127 -0.014,0.187 -0.016,0.161 -0.031,0.323 -0.049,0.481 -0.038,0.038 -0.083,0.079 -0.128,0.12 0.526,-0.109 0.868,-0.161 1.375,-0.064 1.656,0.308 2.757,1.725 4.557,4.865 1.727,3.02 3.076,5.368 4.624,9.51 0,0 2.061,5.523 2.846,10.778 C 1.42,-0.5 1.288,-1.243 1.574,3.05 1.694,4.834 1.766,5.683 1.19,6.295"
         style="fill:#000000;fill-opacity:1;fill-rule:nonzero;stroke:none"
         transform="matrix(0.35277777,0,0,-0.35277777,55.53582,19.984928)"
         clip-path="url(#clipPath691)" />
      <path
         id="path692"
         d="m 0,0 c 0.037,-0.76 0.212,-6.228 -3.977,-9.777 -1.968,-1.669 -4.091,-2.229 -5.288,-2.441 -0.213,1.183 -0.38,3.176 0.429,5.342 C -6.794,-1.402 -0.492,-0.094 0,0 Z"
         style="fill:none;stroke:#000000;stroke-width:2.005;stroke-linecap:butt;stroke-linejoin:miter;stroke-miterlimit:10;stroke-dasharray:none;stroke-opacity:1"
         transform="matrix(0.35277777,0,0,-0.35277777,48.30732,52.684388)"
         clip-path="url(#clipPath693)" />
      <path
         id="path694"
         d="m 0,0 c -0.464,0.604 -3.865,4.887 -9.356,4.888 -2.581,0 -4.562,-0.946 -5.612,-1.558 0.603,-1.04 1.764,-2.668 3.78,-3.798 C -6.091,-3.323 -0.437,-0.247 0,0 Z"
         style="fill:none;stroke:#000000;stroke-width:2.005;stroke-linecap:butt;stroke-linejoin:miter;stroke-miterlimit:10;stroke-dasharray:none;stroke-opacity:1"
         transform="matrix(0.35277777,0,0,-0.35277777,50.40708,58.484558)"
         clip-path="url(#clipPath695)" />
      <path
         id="path696"
         d="m 0,0 c -0.175,-0.741 -1.517,-6.044 -6.522,-8.3 -2.353,-1.06 -4.548,-1.012 -5.756,-0.885 0.122,1.196 0.511,3.158 1.886,5.016 C -6.918,0.528 -0.499,0.046 0,0 Z"
         style="fill:none;stroke:#000000;stroke-width:2.255;stroke-linecap:butt;stroke-linejoin:miter;stroke-miterlimit:10;stroke-dasharray:none;stroke-opacity:1"
         transform="matrix(0.35277777,0,0,-0.35277777,44.68412,54.049008)"
         clip-path="url(#clipPath697)" />
      <path
         id="path700"
         d="m 0,0 c 0.242,-0.722 1.903,-5.934 -1.157,-10.493 -1.438,-2.143 -3.328,-3.26 -4.421,-3.79 -0.527,1.079 -1.232,2.951 -1.046,5.255 C -6.153,-3.204 -0.448,-0.226 0,0 Z"
         style="fill:none;stroke:#000000;stroke-width:1.88;stroke-linecap:butt;stroke-linejoin:miter;stroke-miterlimit:10;stroke-dasharray:none;stroke-opacity:1"
         transform="matrix(0.35277777,0,0,-0.35277777,51.68142,50.549488)"
         clip-path="url(#clipPath701)" />
      <path
         id="path702"
         d="m 0,0 c -0.611,0.454 -5.053,3.646 -10.335,2.148 -2.482,-0.704 -4.131,-2.155 -4.974,-3.03 0.864,-0.836 2.425,-2.085 4.674,-2.622 C -4.952,-4.859 -0.353,-0.356 0,0 Z"
         style="fill:none;stroke:#000000;stroke-width:1.88;stroke-linecap:butt;stroke-linejoin:miter;stroke-miterlimit:10;stroke-dasharray:none;stroke-opacity:1"
         transform="matrix(0.35277777,0,0,-0.35277777,55.28467,55.556578)"
         clip-path="url(#clipPath703)" />
      <path
         id="path704"
         d="m 0,0 c 0.418,-0.636 3.346,-5.257 1.541,-10.442 -0.848,-2.438 -2.393,-3.998 -3.315,-4.788 -0.785,0.911 -1.941,2.542 -2.345,4.819 C -5.141,-4.659 -0.376,-0.331 0,0 Z"
         style="fill:none;stroke:#000000;stroke-width:1.754;stroke-linecap:butt;stroke-linejoin:miter;stroke-miterlimit:10;stroke-dasharray:none;stroke-opacity:1"
         transform="matrix(0.35277777,0,0,-0.35277777,54.20499,48.033198)"
         clip-path="url(#clipPath705)" />
      <path
         id="path706"
         d="m 0,0 c -0.706,0.285 -5.812,2.247 -10.542,-0.541 -2.224,-1.311 -3.45,-3.132 -4.043,-4.192 1.047,-0.59 2.875,-1.403 5.186,-1.351 5.84,0.129 9.148,5.65 9.399,6.084 z"
         style="fill:none;stroke:#000000;stroke-width:1.754;stroke-linecap:butt;stroke-linejoin:miter;stroke-miterlimit:10;stroke-dasharray:none;stroke-opacity:1"
         transform="matrix(0.35277777,0,0,-0.35277777,58.9599,51.963348)"
         clip-path="url(#clipPath707)" />
      <path
         id="path708"
         d="m 0,0 c 0.525,-0.55 4.236,-4.569 3.395,-9.995 -0.396,-2.55 -1.634,-4.362 -2.401,-5.306 -0.934,0.755 -2.365,2.153 -3.172,4.319 C -4.218,-5.508 -0.311,-0.394 0,0 Z"
         style="fill:none;stroke:#000000;stroke-width:1.504;stroke-linecap:butt;stroke-linejoin:miter;stroke-miterlimit:10;stroke-dasharray:none;stroke-opacity:1"
         transform="matrix(0.35277777,0,0,-0.35277777,56.54729,45.137918)"
         clip-path="url(#clipPath709)" />
      <path
         id="path710"
         d="m 0,0 c -0.745,0.153 -6.121,1.164 -10.272,-2.43 -1.952,-1.688 -2.831,-3.701 -3.223,-4.85 1.136,-0.392 3.08,-0.863 5.344,-0.397 C -2.429,-6.499 -0.169,-0.473 0,0 Z"
         style="fill:none;stroke:#000000;stroke-width:1.504;stroke-linecap:butt;stroke-linejoin:miter;stroke-miterlimit:10;stroke-dasharray:none;stroke-opacity:1"
         transform="matrix(0.35277777,0,0,-0.35277777,61.93164,48.148238)"
         clip-path="url(#clipPath711)" />
      <path
         id="path712"
         d="m 0,0 c 0.618,-0.442 5.016,-3.697 5.203,-9.185 0.088,-2.579 -0.79,-4.591 -1.367,-5.661 -1.06,0.567 -2.726,1.673 -3.924,3.65 C -3.114,-6.199 -0.232,-0.444 0,0 Z"
         style="fill:none;stroke:#000000;stroke-width:1.253;stroke-linecap:butt;stroke-linejoin:miter;stroke-miterlimit:10;stroke-dasharray:none;stroke-opacity:1"
         transform="matrix(0.35277777,0,0,-0.35277777,57.95943,41.470258)"
         clip-path="url(#clipPath713)" />
      <path
         id="path714"
         d="m 0,0 c -0.761,0.011 -6.23,0 -9.637,-4.307 -1.601,-2.023 -2.089,-4.165 -2.259,-5.368 1.189,-0.172 3.187,-0.27 5.324,0.611 C -1.171,-6.838 -0.077,-0.495 0,0 Z"
         style="fill:none;stroke:#000000;stroke-width:1.253;stroke-linecap:butt;stroke-linejoin:miter;stroke-miterlimit:10;stroke-dasharray:none;stroke-opacity:1"
         transform="matrix(0.35277777,0,0,-0.35277777,63.81127,43.421228)"
         clip-path="url(#clipPath715)" />
      <path
         id="path716"
         d="M 0,0 C 0.662,-0.375 5.379,-3.145 6.147,-8.581 6.509,-11.136 5.849,-13.23 5.39,-14.355 4.275,-13.904 2.501,-12.981 1.101,-11.143 -2.439,-6.495 -0.184,-0.467 0,0 Z"
         style="fill:none;stroke:#000000;stroke-width:1.253;stroke-linecap:butt;stroke-linejoin:miter;stroke-miterlimit:10;stroke-dasharray:none;stroke-opacity:1"
         transform="matrix(0.35277777,0,0,-0.35277777,59.15558,37.782288)"
         clip-path="url(#clipPath717)" />
      <path
         id="path718"
         d="m 0,0 c -0.758,-0.069 -6.195,-0.661 -9.126,-5.304 -1.377,-2.182 -1.635,-4.363 -1.677,-5.578 1.201,-0.045 3.198,0.069 5.229,1.171 C -0.438,-6.924 -0.024,-0.5 0,0 Z"
         style="fill:none;stroke:#000000;stroke-width:1.253;stroke-linecap:butt;stroke-linejoin:miter;stroke-miterlimit:10;stroke-dasharray:none;stroke-opacity:1"
         transform="matrix(0.35277777,0,0,-0.35277777,65.18139,39.101778)"
         clip-path="url(#clipPath719)" />
      <path
         id="path720"
         d="m 0,0 c 0.747,-0.148 6.095,-1.3 8.528,-6.222 1.144,-2.313 1.174,-4.508 1.09,-5.72 -1.199,0.079 -3.173,0.399 -5.079,1.706 C -0.28,-6.933 -0.027,-0.501 0,0 Z"
         style="fill:none;stroke:#000000;stroke-width:0.877;stroke-linecap:butt;stroke-linejoin:miter;stroke-miterlimit:10;stroke-dasharray:none;stroke-opacity:1"
         transform="matrix(0.35277777,0,0,-0.35277777,58.43935,34.341678)"
         clip-path="url(#clipPath721)" />
      <path
         id="path722"
         d="m 0,0 c -0.698,-0.304 -5.677,-2.57 -7.004,-7.897 -0.624,-2.504 -0.184,-4.657 0.156,-5.823 1.155,0.333 3.015,1.068 4.599,2.751 C 1.753,-6.713 0.134,-0.483 0,0 Z"
         style="fill:none;stroke:#000000;stroke-width:0.877;stroke-linecap:butt;stroke-linejoin:miter;stroke-miterlimit:10;stroke-dasharray:none;stroke-opacity:1"
         transform="matrix(0.35277777,0,0,-0.35277777,64.57541,33.705728)"
         clip-path="url(#clipPath723)" />
      <path
         id="path724"
         d="m 0,0 c 0.761,0.023 6.23,0.097 9.703,-4.156 1.632,-1.998 2.152,-4.132 2.342,-5.332 C 10.858,-9.679 8.863,-9.809 6.713,-8.961 1.277,-6.819 0.085,-0.494 0,0 Z"
         style="fill:none;stroke:#000000;stroke-width:0.627;stroke-linecap:butt;stroke-linejoin:miter;stroke-miterlimit:10;stroke-dasharray:none;stroke-opacity:1"
         transform="matrix(0.35277777,0,0,-0.35277777,57.52572,30.509698)"
         clip-path="url(#clipPath725)" />
      <path
         id="path726"
         d="m 0,0 c -0.612,-0.452 -4.958,-3.774 -5.06,-9.265 -0.047,-2.58 0.862,-4.579 1.455,-5.639 1.05,0.583 2.7,1.715 3.866,3.71 C 3.21,-6.15 0.238,-0.441 0,0 Z"
         style="fill:none;stroke:#000000;stroke-width:0.627;stroke-linecap:butt;stroke-linejoin:miter;stroke-miterlimit:10;stroke-dasharray:none;stroke-opacity:1"
         transform="matrix(0.35277777,0,0,-0.35277777,63.36378,28.517068)"
         clip-path="url(#clipPath727)" />
      <path
         id="path728"
         d="M 0,0 C 0.749,0.134 6.148,1.012 10.21,-2.684 12.118,-4.42 12.947,-6.453 13.312,-7.612 12.166,-7.976 10.211,-8.398 7.959,-7.876 2.268,-6.558 0.157,-0.477 0,0 Z"
         style="fill:none;stroke:#000000;stroke-width:0.461;stroke-linecap:butt;stroke-linejoin:miter;stroke-miterlimit:10;stroke-dasharray:none;stroke-opacity:1"
         transform="matrix(0.35277777,0,0,-0.35277777,55.90549,26.975398)"
         clip-path="url(#clipPath729)" />
      <path
         id="path730"
         d="m 0,0 c -0.539,-0.537 -4.349,-4.463 -3.641,-9.908 0.332,-2.559 1.526,-4.402 2.268,-5.363 0.954,0.731 2.419,2.092 3.279,4.238 C 4.08,-5.61 0.301,-0.401 0,0 Z"
         style="fill:none;stroke:#000000;stroke-width:0.461;stroke-linecap:butt;stroke-linejoin:miter;stroke-miterlimit:10;stroke-dasharray:none;stroke-opacity:1"
         transform="matrix(0.35277777,0,0,-0.35277777,61.38697,24.145588)"
         clip-path="url(#clipPath731)" />
      <path
         id="path732"
         d="m 0,0 c -0.164,-0.689 -1.263,-5.664 1.96,-9.633 1.516,-1.866 3.362,-2.743 4.422,-3.141 0.397,1.045 0.892,2.84 0.525,4.962 C 5.979,-2.451 0.435,-0.171 0,0 Z"
         style="fill:none;stroke:#000000;stroke-width:0.461;stroke-linecap:butt;stroke-linejoin:miter;stroke-miterlimit:10;stroke-dasharray:none;stroke-opacity:1"
         transform="matrix(0.35277777,0,0,-0.35277777,57.06749,21.894548)"
         clip-path="url(#clipPath733)" />
      <path
         id="path734"
         d="m 0,0 c -0.037,-0.76 -0.212,-6.228 3.977,-9.778 1.968,-1.668 4.091,-2.228 5.288,-2.44 0.213,1.183 0.38,3.176 -0.429,5.342 C 6.795,-1.402 0.492,-0.094 0,0 Z"
         style="fill:none;stroke:#000000;stroke-width:2.005;stroke-linecap:butt;stroke-linejoin:miter;stroke-miterlimit:10;stroke-dasharray:none;stroke-opacity:1"
         transform="matrix(0.35277777,0,0,-0.35277777,32.20287,52.751598)"
         clip-path="url(#clipPath735)" />
      <path
         id="path736"
         d="m 0,0 c 0.464,0.604 3.865,4.888 9.356,4.889 2.581,0 4.563,-0.946 5.612,-1.558 C 14.365,2.291 13.204,0.663 11.188,-0.467 6.091,-3.322 0.437,-0.246 0,0 Z"
         style="fill:none;stroke:#000000;stroke-width:2.005;stroke-linecap:butt;stroke-linejoin:miter;stroke-miterlimit:10;stroke-dasharray:none;stroke-opacity:1"
         transform="matrix(0.35277777,0,0,-0.35277777,30.1031,58.552078)"
         clip-path="url(#clipPath737)" />
      <path
         id="path738"
         d="m 0,0 c 0.175,-0.741 1.517,-6.044 6.522,-8.3 2.353,-1.06 4.548,-1.012 5.756,-0.885 -0.122,1.196 -0.511,3.158 -1.886,5.016 C 6.918,0.528 0.499,0.046 0,0 Z"
         style="fill:none;stroke:#000000;stroke-width:2.255;stroke-linecap:butt;stroke-linejoin:miter;stroke-miterlimit:10;stroke-dasharray:none;stroke-opacity:1"
         transform="matrix(0.35277777,0,0,-0.35277777,35.96525,54.049008)"
         clip-path="url(#clipPath739)" />
      <path
         id="path742"
         d="m 0,0 c -0.242,-0.721 -1.903,-5.933 1.157,-10.492 1.438,-2.143 3.328,-3.261 4.421,-3.79 0.527,1.079 1.233,2.951 1.046,5.255 C 6.154,-3.203 0.448,-0.225 0,0 Z"
         style="fill:none;stroke:#000000;stroke-width:1.88;stroke-linecap:butt;stroke-linejoin:miter;stroke-miterlimit:10;stroke-dasharray:none;stroke-opacity:1"
         transform="matrix(0.35277777,0,0,-0.35277777,28.828763,50.617018)"
         clip-path="url(#clipPath743)" />
      <path
         id="path744"
         d="m 0,0 c 0.611,0.454 5.053,3.647 10.335,2.149 2.483,-0.704 4.131,-2.155 4.974,-3.03 C 14.445,-1.717 12.884,-2.967 10.635,-3.503 4.952,-4.858 0.354,-0.356 0,0 Z"
         style="fill:none;stroke:#000000;stroke-width:1.88;stroke-linecap:butt;stroke-linejoin:miter;stroke-miterlimit:10;stroke-dasharray:none;stroke-opacity:1"
         transform="matrix(0.35277777,0,0,-0.35277777,25.225527,55.624098)"
         clip-path="url(#clipPath745)" />
      <path
         id="path746"
         d="m 0,0 c -0.418,-0.636 -3.346,-5.257 -1.541,-10.443 0.848,-2.437 2.393,-3.997 3.316,-4.787 0.784,0.91 1.94,2.542 2.344,4.818 C 5.141,-4.659 0.376,-0.331 0,0 Z"
         style="fill:none;stroke:#000000;stroke-width:1.754;stroke-linecap:butt;stroke-linejoin:miter;stroke-miterlimit:10;stroke-dasharray:none;stroke-opacity:1"
         transform="matrix(0.35277777,0,0,-0.35277777,26.305204,48.100378)"
         clip-path="url(#clipPath747)" />
      <path
         id="path748"
         d="m 0,0 c 0.706,0.285 5.812,2.247 10.542,-0.541 2.224,-1.311 3.45,-3.132 4.043,-4.192 C 13.538,-5.323 11.71,-6.136 9.399,-6.085 3.559,-5.956 0.251,-0.434 0,0 Z"
         style="fill:none;stroke:#000000;stroke-width:1.754;stroke-linecap:butt;stroke-linejoin:miter;stroke-miterlimit:10;stroke-dasharray:none;stroke-opacity:1"
         transform="matrix(0.35277777,0,0,-0.35277777,21.550287,52.030528)"
         clip-path="url(#clipPath749)" />
      <path
         id="path750"
         d="m 0,0 c -0.525,-0.551 -4.236,-4.569 -3.395,-9.995 0.396,-2.55 1.634,-4.363 2.401,-5.306 0.934,0.755 2.365,2.153 3.173,4.319 C 4.218,-5.508 0.311,-0.394 0,0 Z"
         style="fill:none;stroke:#000000;stroke-width:1.504;stroke-linecap:butt;stroke-linejoin:miter;stroke-miterlimit:10;stroke-dasharray:none;stroke-opacity:1"
         transform="matrix(0.35277777,0,0,-0.35277777,23.9629,45.205118)"
         clip-path="url(#clipPath751)" />
      <path
         id="path752"
         d="m 0,0 c 0.745,0.152 6.121,1.164 10.272,-2.43 1.952,-1.688 2.831,-3.701 3.223,-4.85 C 12.359,-7.672 10.415,-8.143 8.151,-7.677 2.429,-6.499 0.169,-0.473 0,0 Z"
         style="fill:none;stroke:#000000;stroke-width:1.504;stroke-linecap:butt;stroke-linejoin:miter;stroke-miterlimit:10;stroke-dasharray:none;stroke-opacity:1"
         transform="matrix(0.35277777,0,0,-0.35277777,18.578558,48.215448)"
         clip-path="url(#clipPath753)" />
      <path
         id="path754"
         d="m 0,0 c -0.618,-0.442 -5.016,-3.697 -5.203,-9.185 -0.088,-2.579 0.79,-4.591 1.367,-5.661 1.06,0.567 2.726,1.672 3.924,3.65 C 3.114,-6.199 0.232,-0.444 0,0 Z"
         style="fill:none;stroke:#000000;stroke-width:1.253;stroke-linecap:butt;stroke-linejoin:miter;stroke-miterlimit:10;stroke-dasharray:none;stroke-opacity:1"
         transform="matrix(0.35277777,0,0,-0.35277777,22.550766,41.537468)"
         clip-path="url(#clipPath755)" />
      <path
         id="path756"
         d="m 0,0 c 0.761,0.011 6.23,0 9.637,-4.307 1.601,-2.024 2.089,-4.165 2.259,-5.368 C 10.707,-9.847 8.709,-9.946 6.572,-9.065 1.171,-6.838 0.077,-0.495 0,0 Z"
         style="fill:none;stroke:#000000;stroke-width:1.253;stroke-linecap:butt;stroke-linejoin:miter;stroke-miterlimit:10;stroke-dasharray:none;stroke-opacity:1"
         transform="matrix(0.35277777,0,0,-0.35277777,16.698924,43.488438)"
         clip-path="url(#clipPath757)" />
      <path
         id="path758"
         d="m 0,0 c -0.663,-0.375 -5.38,-3.145 -6.148,-8.581 -0.362,-2.556 0.298,-4.649 0.757,-5.774 1.115,0.451 2.889,1.374 4.289,3.212 C 2.438,-6.495 0.183,-0.467 0,0 Z"
         style="fill:none;stroke:#000000;stroke-width:1.253;stroke-linecap:butt;stroke-linejoin:miter;stroke-miterlimit:10;stroke-dasharray:none;stroke-opacity:1"
         transform="matrix(0.35277777,0,0,-0.35277777,21.354955,37.849488)"
         clip-path="url(#clipPath759)" />
      <path
         id="path760"
         d="m 0,0 c 0.758,-0.069 6.196,-0.661 9.126,-5.305 1.377,-2.181 1.635,-4.362 1.677,-5.577 -1.2,-0.045 -3.198,0.069 -5.229,1.171 C 0.439,-6.924 0.024,-0.501 0,0 Z"
         style="fill:none;stroke:#000000;stroke-width:1.253;stroke-linecap:butt;stroke-linejoin:miter;stroke-miterlimit:10;stroke-dasharray:none;stroke-opacity:1"
         transform="matrix(0.35277777,0,0,-0.35277777,15.328805,39.168948)"
         clip-path="url(#clipPath761)" />
      <path
         id="path762"
         d="m 0,0 c -0.747,-0.147 -6.095,-1.299 -8.528,-6.221 -1.144,-2.313 -1.174,-4.508 -1.09,-5.72 1.199,0.079 3.173,0.398 5.08,1.706 C 0.28,-6.932 0.027,-0.5 0,0 Z"
         style="fill:none;stroke:#000000;stroke-width:0.877;stroke-linecap:butt;stroke-linejoin:miter;stroke-miterlimit:10;stroke-dasharray:none;stroke-opacity:1"
         transform="matrix(0.35277777,0,0,-0.35277777,22.070846,34.409198)"
         clip-path="url(#clipPath763)" />
      <path
         id="path764"
         d="m 0,0 c 0.698,-0.304 5.677,-2.57 7.004,-7.898 0.624,-2.504 0.184,-4.656 -0.156,-5.822 -1.155,0.333 -3.015,1.068 -4.599,2.751 C -1.753,-6.713 -0.134,-0.483 0,0 Z"
         style="fill:none;stroke:#000000;stroke-width:0.877;stroke-linecap:butt;stroke-linejoin:miter;stroke-miterlimit:10;stroke-dasharray:none;stroke-opacity:1"
         transform="matrix(0.35277777,0,0,-0.35277777,15.93477,33.772898)"
         clip-path="url(#clipPath765)" />
      <path
         id="path766"
         d="m 0,0 c -0.761,0.022 -6.23,0.097 -9.703,-4.156 -1.632,-1.999 -2.152,-4.132 -2.342,-5.332 1.187,-0.192 3.182,-0.321 5.333,0.526 C -1.277,-6.819 -0.085,-0.494 0,0 Z"
         style="fill:none;stroke:#000000;stroke-width:0.752;stroke-linecap:butt;stroke-linejoin:miter;stroke-miterlimit:10;stroke-dasharray:none;stroke-opacity:1"
         transform="matrix(0.35277777,0,0,-0.35277777,22.984471,30.576868)"
         clip-path="url(#clipPath767)" />
      <path
         id="path768"
         d="m 0,0 c 0.612,-0.452 4.958,-3.774 5.06,-9.264 0.047,-2.58 -0.862,-4.579 -1.455,-5.639 -1.05,0.583 -2.7,1.715 -3.866,3.71 C -3.21,-6.149 -0.238,-0.44 0,0 Z"
         style="fill:none;stroke:#000000;stroke-width:0.752;stroke-linecap:butt;stroke-linejoin:miter;stroke-miterlimit:10;stroke-dasharray:none;stroke-opacity:1"
         transform="matrix(0.35277777,0,0,-0.35277777,17.146421,28.584598)"
         clip-path="url(#clipPath769)" />
      <path
         id="path770"
         d="m 0,0 c -0.75,0.135 -6.148,1.013 -10.21,-2.683 -1.908,-1.736 -2.737,-3.77 -3.102,-4.929 1.146,-0.364 3.101,-0.785 5.353,-0.264 5.691,1.319 7.802,7.4 7.959,7.876 z"
         style="fill:none;stroke:#000000;stroke-width:0.461;stroke-linecap:butt;stroke-linejoin:miter;stroke-miterlimit:10;stroke-dasharray:none;stroke-opacity:1"
         transform="matrix(0.35277777,0,0,-0.35277777,24.762154,27.577588)"
         clip-path="url(#clipPath771)" />
      <path
         id="path772"
         d="m 0,0 c 0.539,-0.538 4.349,-4.463 3.641,-9.908 -0.332,-2.56 -1.526,-4.403 -2.269,-5.364 -0.953,0.731 -2.418,2.093 -3.278,4.239 C -4.08,-5.611 -0.301,-0.401 0,0 Z"
         style="fill:none;stroke:#000000;stroke-width:0.461;stroke-linecap:butt;stroke-linejoin:miter;stroke-miterlimit:10;stroke-dasharray:none;stroke-opacity:1"
         transform="matrix(0.35277777,0,0,-0.35277777,19.280656,24.747428)"
         clip-path="url(#clipPath773)" />
      <path
         id="path774"
         d="m 0,0 c -0.729,0.217 -5.998,1.687 -10.443,-1.537 -2.089,-1.516 -3.138,-3.444 -3.627,-4.557 1.097,-0.488 2.994,-1.124 5.29,-0.853 5.802,0.68 8.572,6.491 8.78,6.947 z"
         style="fill:none;stroke:#000000;stroke-width:0.461;stroke-linecap:butt;stroke-linejoin:miter;stroke-miterlimit:10;stroke-dasharray:none;stroke-opacity:1"
         transform="matrix(0.35277777,0,0,-0.35277777,26.564284,24.240308)"
         clip-path="url(#clipPath775)" />
      <path
         id="path776"
         d="m 0,0 c 0.476,-0.594 3.828,-4.916 2.522,-10.249 -0.613,-2.507 -2.002,-4.207 -2.847,-5.081 -0.866,0.833 -2.172,2.349 -2.789,4.575 C -4.677,-5.125 -0.344,-0.365 0,0 Z"
         style="fill:none;stroke:#000000;stroke-width:0.461;stroke-linecap:butt;stroke-linejoin:miter;stroke-miterlimit:10;stroke-dasharray:none;stroke-opacity:1"
         transform="matrix(0.35277777,0,0,-0.35277777,21.429708,20.821758)"
         clip-path="url(#clipPath777)" />
      <path
         id="path778"
         d="m 0,0 c -0.697,0.306 -5.742,2.419 -10.554,-0.228 -2.26,-1.243 -3.541,-3.027 -4.165,-4.07 1.03,-0.62 2.831,-1.486 5.143,-1.504 C -3.733,-5.847 -0.264,-0.426 0,0 Z"
         style="fill:none;stroke:#000000;stroke-width:0.461;stroke-linecap:butt;stroke-linejoin:miter;stroke-miterlimit:10;stroke-dasharray:none;stroke-opacity:1"
         transform="matrix(0.35277777,0,0,-0.35277777,29.60562,21.318888)"
         clip-path="url(#clipPath779)" />
      <path
         id="path780"
         d="m 0,0 c 0.398,-0.648 3.187,-5.354 1.229,-10.483 -0.92,-2.412 -2.51,-3.925 -3.457,-4.688 -0.756,0.934 -1.863,2.6 -2.2,4.887 C -5.277,-4.504 -0.387,-0.319 0,0 Z"
         style="fill:none;stroke:#000000;stroke-width:0.461;stroke-linecap:butt;stroke-linejoin:miter;stroke-miterlimit:10;stroke-dasharray:none;stroke-opacity:1"
         transform="matrix(0.35277777,0,0,-0.35277777,24.935789,17.288478)"
         clip-path="url(#clipPath781)" />
      <path
         id="path782"
         d="m 0,0 c 0.165,-0.689 1.264,-5.664 -1.96,-9.634 -1.515,-1.865 -3.362,-2.742 -4.421,-3.141 -0.397,1.046 -0.892,2.841 -0.525,4.963 C -5.978,-2.451 -0.435,-0.171 0,0 Z"
         style="fill:none;stroke:#000000;stroke-width:0.461;stroke-linecap:butt;stroke-linejoin:miter;stroke-miterlimit:10;stroke-dasharray:none;stroke-opacity:1"
         transform="matrix(0.35277777,0,0,-0.35277777,29.11159,15.567628)"
         clip-path="url(#clipPath783)" />
      <path
         id="path784"
         d="M 0,0 H -1.646 V -11.899 H 0 v -1.939 h -5.319 v 1.939 h 1.803 V -0.834 L -6.807,-6.807 H -7.82 l -3.291,5.973 v -11.065 h 1.802 v -1.939 h -5.318 v 1.939 h 1.646 V 0 h -1.646 v 1.938 h 3.989 l 3.404,-6.243 3.402,6.243 H 0 Z"
         style="fill:#000000;fill-opacity:1;fill-rule:nonzero;stroke:none"
         transform="matrix(0.35277777,0,0,-0.35277777,122.41169,23.823818)"
         clip-path="url(#clipPath785)" />
      <path
         id="path786"
         d="M 0,0 H -1.646 V -11.899 H 0 v -1.939 h -5.252 v 1.939 h 1.646 V 0 H -5.252 V 1.938 H 0 Z"
         style="fill:#000000;fill-opacity:1;fill-rule:nonzero;stroke:none"
         transform="matrix(0.35277777,0,0,-0.35277777,125.1388,23.823818)"
         clip-path="url(#clipPath787)" />
      <path
         id="path788"
         d="m 0,0 h -1.646 v 2.118 h -5.859 v -4.801 h 3.921 v 1.06 h 1.466 v -3.584 h -1.466 v 1.06 h -3.921 v -5.612 h 5.882 v 2.118 h 1.645 v -4.056 l -1.668,-1.668 v -1.308 l 0.338,-0.338 h 1.961 v -1.284 h -2.704 l -0.721,0.721 v 2.457 l 1.442,1.42 h -9.759 v 1.938 h 1.646 V 2.118 h -1.646 V 4.079 H 0 Z"
         style="fill:#000000;fill-opacity:1;fill-rule:nonzero;stroke:none"
         transform="matrix(0.35277777,0,0,-0.35277777,129.92506,24.578978)"
         clip-path="url(#clipPath789)" />
      <path
         id="path790"
         d="m 0,0 v -11.899 h 4.192 l 1.894,1.892 v 8.182 L 4.282,0 Z m 8.023,-10.66 -3.155,-3.178 h -8.473 v 1.939 H -1.96 V 0 h -1.645 v 1.938 h 8.586 l 3.042,-3.042 z"
         style="fill:#000000;fill-opacity:1;fill-rule:nonzero;stroke:none"
         transform="matrix(0.35277777,0,0,-0.35277777,131.91256,23.823818)"
         clip-path="url(#clipPath791)" />
      <path
         id="path792"
         d="m 0,0 -7.82,-12.283 h 6.243 v 2.389 h 1.644 v -4.259 h -10.524 v 1.599 l 7.798,12.306 h -6.085 v -2.411 h -1.668 V 1.623 H 0 Z"
         style="fill:#000000;fill-opacity:1;fill-rule:nonzero;stroke:none"
         transform="matrix(0.35277777,0,0,-0.35277777,139.00461,23.712518)"
         clip-path="url(#clipPath793)" />
      <path
         id="path794"
         d="m 0,0 h -1.533 l -3.561,-7.46 v -4.439 h 1.713 v -1.939 h -5.387 v 1.939 h 1.713 V -7.46 L -10.638,0 h -1.488 V 1.938 H -7.28 V 0 H -8.542 L -5.905,-5.928 -3.246,0 H -4.508 V 1.938 H 0 Z"
         style="fill:#000000;fill-opacity:1;fill-rule:nonzero;stroke:none"
         transform="matrix(0.35277777,0,0,-0.35277777,143.65585,23.823818)"
         clip-path="url(#clipPath795)" />
      <path
         id="path796"
         d="m 0,0 h -1.668 v -11.427 l -2.389,-2.411 h -5.048 l -2.412,2.411 V 0 h -1.645 v 1.938 h 5.026 V 0 h -1.42 v -10.525 l 1.352,-1.374 h 3.291 l 1.352,1.374 V 0 H -5.003 V 1.938 H 0 Z"
         style="fill:#000000;fill-opacity:1;fill-rule:nonzero;stroke:none"
         transform="matrix(0.35277777,0,0,-0.35277777,148.5534,23.823818)"
         clip-path="url(#clipPath797)" />
      <path
         id="path798"
         d="M 0,0 H -1.961 V 2.187 L -3.088,3.313 H -6.716 L -8.158,1.871 v -8.925 l 1.51,-1.509 h 3.493 l 1.194,1.194 v 2.501 H 0 v -3.29 l -2.366,-2.344 h -4.982 l -2.749,2.749 V 2.638 l 2.615,2.636 h 5.251 L 0,3.043 Z"
         style="fill:#000000;fill-opacity:1;fill-rule:nonzero;stroke:none"
         transform="matrix(0.35277777,0,0,-0.35277777,152.63203,25.000658)"
         clip-path="url(#clipPath799)" />
      <path
         id="path800"
         d="m 0,0 -7.821,-12.283 h 6.243 v 2.389 h 1.645 v -4.259 h -10.525 v 1.599 l 7.798,12.306 h -6.085 v -2.411 h -1.668 V 1.623 H 0 Z"
         style="fill:#000000;fill-opacity:1;fill-rule:nonzero;stroke:none"
         transform="matrix(0.35277777,0,0,-0.35277777,156.88573,23.712518)"
         clip-path="url(#clipPath801)" />
      <path
         id="path802"
         d="m 0,0 h -1.646 v 2.118 h -5.859 v -4.801 h 3.989 v 1.06 h 1.398 v -3.584 h -1.398 v 1.06 h -3.989 v -5.612 h 5.882 v 2.118 h 1.645 v -4.056 h -11.111 v 1.938 h 1.646 V 2.118 h -1.646 V 4.079 H 0 Z"
         style="fill:#000000;fill-opacity:1;fill-rule:nonzero;stroke:none"
         transform="matrix(0.35277777,0,0,-0.35277777,161.40947,24.578978)"
         clip-path="url(#clipPath803)" />
      <path
         id="path804"
         d="m 0,0 h -1.713 v -11.899 h 5.725 v 2.501 H 5.68 v -4.44 H -5.318 v 1.939 h 1.645 V 0 H -5.318 V 1.938 H 0 Z"
         style="fill:#000000;fill-opacity:1;fill-rule:nonzero;stroke:none"
         transform="matrix(0.35277777,0,0,-0.35277777,164.00123,23.823818)"
         clip-path="url(#clipPath805)" />
      <path
         id="path806"
         d="m 0,0 h -1.668 v -13.815 h -1.915 l -6.605,13.048 v -11.11 h 1.42 v -1.938 h -4.777 v 1.938 h 1.646 V 0 h -1.646 v 1.961 h 4.214 l 5.95,-12.035 V 0 h -1.42 V 1.961 H 0 Z"
         style="fill:#000000;fill-opacity:1;fill-rule:nonzero;stroke:none"
         transform="matrix(0.35277777,0,0,-0.35277777,171.30791,23.831728)"
         clip-path="url(#clipPath807)" />
      <path
         id="path808"
         d="M 0,0 H -1.646 V -11.899 H 0 v -1.939 h -5.252 v 1.939 h 1.646 V 0 H -5.252 V 1.938 H 0 Z"
         style="fill:#000000;fill-opacity:1;fill-rule:nonzero;stroke:none"
         transform="matrix(0.35277777,0,0,-0.35277777,173.84418,23.823818)"
         clip-path="url(#clipPath809)" />
      <path
         id="path810"
         d="M 0,0 H 4.146 L 2.073,7.662 Z m 7.324,-4.079 h 1.78 V -6.018 H 3.876 v 1.939 H 5.273 L 4.484,-1.218 H -0.271 L -1.06,-4.079 H 0.293 V -6.018 H -4.53 v 1.939 h 1.735 L 0.45,7.82 h -1.78 v 1.939 h 5.049 z"
         style="fill:#000000;fill-opacity:1;fill-rule:nonzero;stroke:none"
         transform="matrix(0.35277777,0,0,-0.35277777,176.07834,26.582648)"
         clip-path="url(#clipPath811)" />
      <path
         id="path812"
         d="m 0,0 h -1.668 v -13.815 h -1.916 l -6.604,13.048 v -11.11 h 1.42 v -1.938 h -4.778 v 1.938 H -11.9 V 0 h -1.646 v 1.961 h 4.215 l 5.95,-12.035 V 0 h -1.42 V 1.961 H 0 Z"
         style="fill:#000000;fill-opacity:1;fill-rule:nonzero;stroke:none"
         transform="matrix(0.35277777,0,0,-0.35277777,184.54604,23.831728)"
         clip-path="url(#clipPath813)" />
      <path
         id="path814"
         d="m 0,0 h -1.646 v 2.118 h -5.859 v -4.801 h 3.989 v 1.06 h 1.398 v -3.584 h -1.398 v 1.06 h -3.989 v -5.612 h 5.882 v 2.118 h 1.645 v -4.056 h -11.111 v 1.938 h 1.646 V 2.118 h -1.646 V 4.079 H 0 Z"
         style="fill:#000000;fill-opacity:1;fill-rule:nonzero;stroke:none"
         transform="matrix(0.35277777,0,0,-0.35277777,188.98228,24.578978)"
         clip-path="url(#clipPath815)" />
      <path
         id="path816"
         d="M 0,0 H -1.646 V -11.899 H 0 v -1.939 h -5.252 v 1.939 h 1.646 V 0 H -5.252 V 1.938 H 0 Z"
         style="fill:#000000;fill-opacity:1;fill-rule:nonzero;stroke:none"
         transform="matrix(0.35277777,0,0,-0.35277777,119.2632,33.364658)"
         clip-path="url(#clipPath817)" />
      <path
         id="path818"
         d="m 0,0 h -1.938 v 1.938 l -1.126,1.15 H -6.919 L -8.361,1.646 v -8.948 l 1.509,-1.51 h 3.247 l 1.667,1.667 v 3.381 h -2.93 v 1.375 H 0 v -8.361 h -1.87 v 1.78 l -1.781,-1.78 H -7.527 L -10.3,-7.979 V 2.39 l 2.637,2.636 h 5.432 L 0,2.795 Z"
         style="fill:#000000;fill-opacity:1;fill-rule:nonzero;stroke:none"
         transform="matrix(0.35277777,0,0,-0.35277777,123.77112,34.454008)"
         clip-path="url(#clipPath819)" />
      <path
         id="path820"
         d="m 0,0 v -5.387 h 4.598 l 1.127,1.127 v 3.133 L 4.598,0 Z M 7.663,-0.271 V -4.733 L 5.522,-6.874 H 4.35 l 2.524,-5.003 h 1.442 v -1.938 H 3.471 v 1.938 H 4.823 L 2.299,-6.874 H 0 v -5.003 h 1.375 v -1.938 h -4.958 v 1.938 h 1.646 V 0 h -1.646 v 1.961 h 9.037 z"
         style="fill:#000000;fill-opacity:1;fill-rule:nonzero;stroke:none"
         transform="matrix(0.35277777,0,0,-0.35277777,125.72687,33.372568)"
         clip-path="url(#clipPath821)" />
      <path
         id="path822"
         d="m 0,0 -7.82,-12.283 h 6.243 v 2.389 h 1.644 v -4.259 h -10.524 v 1.599 l 7.798,12.306 h -6.085 v -2.411 h -1.668 V 1.623 H 0 Z"
         style="fill:#000000;fill-opacity:1;fill-rule:nonzero;stroke:none"
         transform="matrix(0.35277777,0,0,-0.35277777,132.71562,33.253398)"
         clip-path="url(#clipPath823)" />
      <path
         id="path824"
         d="m 0,0 h -1.533 l -3.561,-7.46 v -4.439 h 1.713 v -1.939 h -5.387 v 1.939 h 1.713 V -7.46 L -10.638,0 h -1.488 V 1.938 H -7.28 V 0 H -8.542 L -5.905,-5.928 -3.246,0 H -4.508 V 1.938 H 0 Z"
         style="fill:#000000;fill-opacity:1;fill-rule:nonzero;stroke:none"
         transform="matrix(0.35277777,0,0,-0.35277777,137.36684,33.364658)"
         clip-path="url(#clipPath825)" />
      <path
         id="path826"
         d="m 0,0 v -2.231 h -1.937 v 1.375 l -1.15,1.149 H -6.761 L -7.91,-0.856 v -2.795 l 0.856,-0.812 h 5.409 l 1.803,-1.758 v -4.98 l -2.344,-2.344 h -5.319 l -2.344,2.344 v 2.885 h 1.939 v -2.074 l 1.217,-1.216 h 3.696 l 1.194,1.216 v 3.268 l -0.811,0.834 h -5.409 l -1.826,1.803 V 0 l 2.232,2.231 h 5.409 z"
         style="fill:#000000;fill-opacity:1;fill-rule:nonzero;stroke:none"
         transform="matrix(0.35277777,0,0,-0.35277777,141.04,33.468028)"
         clip-path="url(#clipPath827)" />
      <path
         id="path828"
         d="m 0,0 h -1.871 l -3.335,-3.809 3.695,-8.09 H 0 v -1.939 h -5.071 v 1.939 h 1.509 l -3.064,6.626 -2.164,-2.435 v -4.191 h 1.465 v -1.939 h -5.116 v 1.939 h 1.645 V 0 h -1.645 v 1.938 h 5.093 V 0 H -8.79 V -5.77 L -3.764,0 H -5.071 V 1.938 H 0 Z"
         style="fill:#000000;fill-opacity:1;fill-rule:nonzero;stroke:none"
         transform="matrix(0.35277777,0,0,-0.35277777,146.17627,33.364658)"
         clip-path="url(#clipPath829)" />
      <path
         id="path830"
         d="M 0,0 H 4.146 L 2.073,7.662 Z m 7.324,-4.079 h 1.78 V -6.018 H 3.876 v 1.939 H 5.273 L 4.484,-1.218 H -0.271 L -1.06,-4.079 H 0.293 V -6.018 H -4.53 v 1.939 h 1.735 L 0.45,7.82 h -1.78 v 1.939 h 5.049 z"
         style="fill:#000000;fill-opacity:1;fill-rule:nonzero;stroke:none"
         transform="matrix(0.35277777,0,0,-0.35277777,148.13207,36.123488)"
         clip-path="url(#clipPath831)" />
      <path
         id="path832"
         d="m 0,0 v -2.23 h -1.938 v 1.374 l -1.15,1.149 H -6.762 L -7.911,-0.856 V -3.65 l 0.856,-0.812 h 5.409 L 0.157,-6.22 v -4.981 l -2.344,-2.344 h -5.318 l -2.345,2.344 v 2.885 h 1.939 v -2.074 l 1.217,-1.216 h 3.696 l 1.195,1.216 v 3.269 l -0.811,0.834 H -8.023 L -9.85,-4.484 V 0 l 2.232,2.231 h 5.409 z"
         style="fill:#000000;fill-opacity:1;fill-rule:nonzero;stroke:none"
         transform="matrix(0.35277777,0,0,-0.35277777,120.69428,43.009218)"
         clip-path="url(#clipPath833)" />
      <path
         id="path834"
         d="m 0,0 h -1.668 v 2.772 h -3.088 v -11.99 h 1.871 v -1.938 h -5.679 v 1.938 h 1.871 V 2.772 H -9.781 V 0 h -1.668 V 4.62 H 0 Z"
         style="fill:#000000;fill-opacity:1;fill-rule:nonzero;stroke:none"
         transform="matrix(0.35277777,0,0,-0.35277777,125.29761,43.851868)"
         clip-path="url(#clipPath835)" />
      <path
         id="path836"
         d="m 0,0 h -1.667 v -11.426 l -2.39,-2.412 h -5.047 l -2.413,2.412 V 0 h -1.644 v 1.938 h 5.025 V 0 h -1.42 v -10.524 l 1.353,-1.375 h 3.29 l 1.352,1.375 V 0 H -5.003 V 1.938 H 0 Z"
         style="fill:#000000;fill-opacity:1;fill-rule:nonzero;stroke:none"
         transform="matrix(0.35277777,0,0,-0.35277777,130.23481,42.905858)"
         clip-path="url(#clipPath837)" />
      <path
         id="path838"
         d="m 0,0 v -11.899 h 4.191 l 1.894,1.893 v 8.181 L 4.282,0 Z m 8.023,-10.66 -3.155,-3.178 h -8.474 v 1.939 h 1.645 V 0 H -3.606 V 1.938 H 4.98 l 3.043,-3.042 z"
         style="fill:#000000;fill-opacity:1;fill-rule:nonzero;stroke:none"
         transform="matrix(0.35277777,0,0,-0.35277777,132.02382,42.905858)"
         clip-path="url(#clipPath839)" />
      <path
         id="path840"
         d="m 0,0 h -1.645 v 2.118 h -5.86 v -4.8 h 3.989 v 1.059 h 1.398 v -3.583 h -1.398 v 1.06 h -3.989 v -5.613 h 5.883 v 2.118 h 1.645 v -4.056 h -11.111 v 1.938 h 1.646 V 2.118 h -1.646 V 4.079 H 0 Z"
         style="fill:#000000;fill-opacity:1;fill-rule:nonzero;stroke:none"
         transform="matrix(0.35277777,0,0,-0.35277777,139.48938,43.661008)"
         clip-path="url(#clipPath841)" />
      <path
         id="path842"
         d="m 0,0 h -1.668 v -13.815 h -1.916 l -6.604,13.049 v -11.111 h 1.42 v -1.938 h -4.778 v 1.938 H -11.9 V 0 h -1.646 v 1.961 h 4.215 l 5.95,-12.035 V 0 h -1.42 V 1.961 H 0 Z"
         style="fill:#000000;fill-opacity:1;fill-rule:nonzero;stroke:none"
         transform="matrix(0.35277777,0,0,-0.35277777,144.98361,42.913758)"
         clip-path="url(#clipPath843)" />
      <path
         id="path844"
         d="M 0,0 H -1.96 V 2.186 L -3.087,3.313 H -6.716 L -8.158,1.87 v -8.925 l 1.51,-1.509 h 3.493 l 1.195,1.194 v 2.502 H 0 v -3.291 l -2.366,-2.344 h -4.981 l -2.75,2.75 v 10.39 l 2.615,2.636 H -2.23 L 0,3.042 Z"
         style="fill:#000000;fill-opacity:1;fill-rule:nonzero;stroke:none"
         transform="matrix(0.35277777,0,0,-0.35277777,149.06984,44.082328)"
         clip-path="url(#clipPath845)" />
      <path
         id="path846"
         d="m 0,0 h -1.871 l -3.335,-3.809 3.695,-8.09 H 0 v -1.939 h -5.071 v 1.939 h 1.509 l -3.064,6.626 -2.164,-2.434 v -4.192 h 1.465 v -1.939 h -5.116 v 1.939 h 1.645 V 0 h -1.645 v 1.938 h 5.093 V 0 H -8.79 V -5.77 L -3.764,0 H -5.071 V 1.938 H 0 Z"
         style="fill:#000000;fill-opacity:1;fill-rule:nonzero;stroke:none"
         transform="matrix(0.35277777,0,0,-0.35277777,154.17442,42.905858)"
         clip-path="url(#clipPath847)" />
      <path
         id="path848"
         d="M 0,0 H -1.646 V -11.899 H 0 v -1.939 h -5.251 v 1.939 h 1.646 V 0 H -5.251 V 1.938 H 0 Z"
         style="fill:#000000;fill-opacity:1;fill-rule:nonzero;stroke:none"
         transform="matrix(0.35277777,0,0,-0.35277777,156.78202,42.905858)"
         clip-path="url(#clipPath849)" />
      <path
         id="path850"
         d="m 0,0 h -1.645 v 2.118 h -5.86 v -4.8 h 3.989 v 1.059 h 1.398 v -3.583 h -1.398 v 1.06 h -3.989 v -5.613 h 5.883 v 2.118 h 1.645 v -4.056 h -11.111 v 1.938 h 1.646 V 2.118 h -1.646 V 4.079 H 0 Z"
         style="fill:#000000;fill-opacity:1;fill-rule:nonzero;stroke:none"
         transform="matrix(0.35277777,0,0,-0.35277777,161.56828,43.661008)"
         clip-path="url(#clipPath851)" />
      <path
         id="path852"
         d="M 0,0 H 7.404 V 53.55 H 0 v 8.721 H 23.631 V 53.55 H 16.228 V 0 h 7.403 V -8.722 H 0 Z"
         style="fill:#000000;fill-opacity:1;fill-rule:nonzero;stroke:none"
         transform="matrix(0.35277777,0,0,-0.35277777,106.18426,44.625998)"
         clip-path="url(#clipPath853)" />
      <path
         id="path854"
         d="m 0,0 h -6.592 l -15.72,-26.268 16.329,-27.282 h 6.795 v -8.721 h -24.24 v 8.721 h 7.1 l -13.185,22.313 -12.272,-22.313 h 6.896 v -8.721 h -21.196 v 8.721 h 5.983 L -33.063,-25.152 -47.87,0 h -7.403 v 8.722 h 23.427 V 0 h -6.085 L -25.963,-20.081 -14.808,0 h -5.678 V 8.722 H 0 Z"
         style="fill:#000000;fill-opacity:1;fill-rule:nonzero;stroke:none"
         transform="matrix(0.35277777,0,0,-0.35277777,87.69026,25.734818)"
         clip-path="url(#clipPath855)" />
      <text
         xml:space="preserve"
         style="font-style:italic;font-size:28.5287px;line-height:2.7;font-family:Georgia;-inkscape-font-specification:'Georgia Italic';text-align:start;word-spacing:-2.74143px;writing-mode:lr-tb;direction:ltr;text-anchor:start;opacity:0.89;fill:#000000;fill-opacity:1;stroke:#000000;stroke-width:0.252715;stroke-opacity:1"
         x="112.67976"
         y="37.294338"
         id="text855"
         transform="scale(0.78880964,1.267733)"><tspan
           id="tspan855"
           x="112.67976"
           y="37.294338"
           style="font-style:normal;font-variant:normal;font-weight:normal;font-stretch:normal;font-family:Rockwell;-inkscape-font-specification:Rockwell;fill:#000000;fill-opacity:1;stroke:#000000;stroke-width:0.252715;stroke-opacity:1"
           sodipodi:role="line">V</tspan></text>
    </g>
  </g>
</svg>
