<svg xmlns="http://www.w3.org/2000/svg" version="1.1" xmlns:xlink="http://www.w3.org/1999/xlink" xmlns:svgjs="http://svgjs.dev/svgjs" width="1440" height="560" preserveAspectRatio="none" viewBox="0 0 1440 560"><g mask="url(&quot;#SvgjsMask2971&quot;)" fill="none"><rect width="1440" height="560" x="0" y="0" fill="url(&quot;#SvgjsLinearGradient2972&quot;)"></rect><path d="M0 0L317.5 0L0 14.93z" fill="rgba(255, 255, 255, .1)"></path><path d="M0 14.93L317.5 0L810.5799999999999 0L0 209.29000000000002z" fill="rgba(255, 255, 255, .075)"></path><path d="M0 209.29000000000002L810.5799999999999 0L1096.3999999999999 0L0 381.41z" fill="rgba(255, 255, 255, .05)"></path><path d="M0 381.41L1096.3999999999999 0L1210.54 0L0 395.89000000000004z" fill="rgba(255, 255, 255, .025)"></path><path d="M1440 560L1146.92 560L1440 512.57z" fill="rgba(0, 0, 0, .1)"></path><path d="M1440 512.57L1146.92 560L716.96 560L1440 286.1500000000001z" fill="rgba(0, 0, 0, .075)"></path><path d="M1440 286.15000000000003L716.96 560L503.83000000000004 560L1440 229.86000000000004z" fill="rgba(0, 0, 0, .05)"></path><path d="M1440 229.86L503.83000000000004 560L405.40000000000003 560L1440 153.87z" fill="rgba(0, 0, 0, .025)"></path></g><defs><mask id="SvgjsMask2971"><rect width="1440" height="560" fill="#ffffff"></rect></mask><linearGradient x1="15.28%" y1="-39.29%" x2="84.72%" y2="139.29%" gradientUnits="userSpaceOnUse" id="SvgjsLinearGradient2972"><stop stop-color="rgba(237, 27, 118, 1)" offset="0"></stop><stop stop-color="rgba(244, 71, 134, 1)" offset="1"></stop><stop stop-color="rgba(255, 255, 255, 1)" offset="1"></stop></linearGradient></defs></svg>