<svg xmlns="http://www.w3.org/2000/svg" version="1.1" xmlns:xlink="http://www.w3.org/1999/xlink" xmlns:svgjs="http://svgjs.dev/svgjs" width="1440" height="560" preserveAspectRatio="none" viewBox="0 0 1440 560"><g mask="url(&quot;#SvgjsMask5349&quot;)" fill="none"><rect width="1440" height="560" x="0" y="0" fill="url(&quot;#SvgjsLinearGradient5350&quot;)"></rect><path d="M0 0L520.32 0L0 203.89z" fill="rgba(255, 255, 255, .1)"></path><path d="M0 203.89L520.32 0L608.1800000000001 0L0 269.63z" fill="rgba(255, 255, 255, .075)"></path><path d="M0 269.63L608.1800000000001 0L804.3000000000001 0L0 311.97z" fill="rgba(255, 255, 255, .05)"></path><path d="M0 311.97L804.3000000000001 0L1024.93 0L0 314.81z" fill="rgba(255, 255, 255, .025)"></path><path d="M1440 560L831.46 560L1440 477.5z" fill="rgba(0, 0, 0, .1)"></path><path d="M1440 477.5L831.46 560L701.87 560L1440 317.15999999999997z" fill="rgba(0, 0, 0, .075)"></path><path d="M1440 317.15999999999997L701.87 560L319.86 560L1440 234.53999999999996z" fill="rgba(0, 0, 0, .05)"></path><path d="M1440 234.53999999999996L319.8600000000001 560L154.48000000000013 560L1440 210.14999999999998z" fill="rgba(0, 0, 0, .025)"></path></g><defs><mask id="SvgjsMask5349"><rect width="1440" height="560" fill="#ffffff"></rect></mask><linearGradient x1="15.28%" y1="-39.29%" x2="84.72%" y2="139.29%" gradientUnits="userSpaceOnUse" id="SvgjsLinearGradient5350"><stop stop-color="rgba(237, 27, 118, 1)" offset="0"></stop><stop stop-color="rgba(244, 71, 134, 1)" offset="0"></stop></linearGradient></defs></svg>